<?xml version="1.0" encoding="UTF-8" standalone="no"?>
<!-- Created with Inkscape (http://www.inkscape.org/) -->

<svg
   xmlns:dc="http://purl.org/dc/elements/1.1/"
   xmlns:cc="http://creativecommons.org/ns#"
   xmlns:rdf="http://www.w3.org/1999/02/22-rdf-syntax-ns#"
   xmlns:svg="http://www.w3.org/2000/svg"
   xmlns="http://www.w3.org/2000/svg"
   xmlns:sodipodi="http://sodipodi.sourceforge.net/DTD/sodipodi-0.dtd"
   xmlns:inkscape="http://www.inkscape.org/namespaces/inkscape"
   width="200mm"
   height="200mm"
   viewBox="0 0 200 200"
   version="1.1"
   id="svg8"
   inkscape:version="0.92.4 (5da689c313, 2019-01-14)"
   sodipodi:docname="new_wall.svg">
  <defs
     id="defs2" />
  <sodipodi:namedview
     id="base"
     pagecolor="#ffffff"
     bordercolor="#666666"
     borderopacity="1.0"
     inkscape:pageopacity="0.0"
     inkscape:pageshadow="2"
     inkscape:zoom="0.98994949"
     inkscape:cx="371.09936"
     inkscape:cy="354.46624"
     inkscape:document-units="mm"
     inkscape:current-layer="layer1"
     showgrid="false"
     inkscape:window-width="1920"
     inkscape:window-height="1043"
     inkscape:window-x="0"
     inkscape:window-y="0"
     inkscape:window-maximized="1" />
  <metadata
     id="metadata5">
    <rdf:RDF>
      <cc:Work
         rdf:about="">
        <dc:format>image/svg+xml</dc:format>
        <dc:type
           rdf:resource="http://purl.org/dc/dcmitype/StillImage" />
        <dc:title></dc:title>
      </cc:Work>
    </rdf:RDF>
  </metadata>
  <g
     inkscape:label="Layer 1"
     inkscape:groupmode="layer"
     id="layer1"
     transform="translate(0,-97)">
    <path
       style="fill:#00ffff;stroke-width:0.26458332"
       id="path20"
       d="m 6.5989818,101.49378 c 0.091164,1.02564 0.2741271,2.04233 0.4491525,3.05669 0.1827032,1.16823 0.3079472,2.34447 0.4695777,3.51555 0.2016628,1.48268 0.3486819,2.97166 0.5071274,4.45935 0.1968762,1.97512 0.3460805,3.95457 0.5222317,5.93155 0.2186191,2.30484 0.412029,4.61169 0.6000353,6.91922 0.2169787,2.66823 0.4860549,5.33173 0.7242553,7.99803 0.2693513,2.87078 0.5436323,5.74123 0.7937513,8.61378 0.291342,3.03541 0.529011,6.07482 0.754075,9.11567 0.215059,3.20885 0.407604,6.41915 0.534547,9.63279 0.11678,3.27904 0.128134,6.56038 0.137374,9.84107 0.0082,3.29493 0.0034,6.58986 0.0012,9.88478 -8.47e-4,3.27058 4.76e-4,6.54116 0.0011,9.81174 0.04227,3.10164 -0.02112,6.20115 -0.112774,9.30112 -0.1041,3.02983 -0.0898,6.06194 -0.168846,9.09215 -0.125351,3.04226 -0.149861,6.08737 -0.247338,9.13028 -0.08587,2.95356 -0.221178,5.90472 -0.350183,8.85655 -0.07423,2.76898 -0.22247,5.53496 -0.322476,8.30299 -0.08551,2.6094 -0.101506,5.22042 -0.107915,7.83101 -0.0066,2.43743 0.0017,4.87487 0.002,7.31231 0.0044,2.23498 0.09454,4.47136 0.231907,6.70209 0.135204,1.97498 0.34367,3.94479 0.551674,5.91335 0.218225,1.78661 0.44061,3.57325 0.627277,5.36351 0.209477,1.60242 0.337761,3.21306 0.506873,4.81982 0.11958,1.42928 0.231477,2.85843 0.358987,4.28714 0.07224,1.16492 0.159645,2.32586 0.285119,3.4862 0.09419,0.87592 0.136192,1.75592 0.163155,2.63608 0.01124,0.67044 0.01416,1.34098 0.01572,2.01151 -0.02926,0.43116 0.09021,0.84636 0.182947,1.26231 0.04817,0.20811 0.08045,0.42065 0.09387,0.63389 0.0045,0.0998 0.0071,0.19972 0.01091,0.29957 0.09121,1.25829 -2.308218,2.27559 -3.689381,2.11213 0.01028,0.0203 -0.231056,-0.33197 -0.1770006,-0.35363 0.020201,-0.008 0.024384,0.0372 0.029206,0.0584 0.00355,0.0156 -0.03092,-0.009 -0.045432,-0.0158 -0.1229165,-0.0508 -0.1247722,-0.20316 -0.2015824,-0.23704 -0.061088,-0.021 -0.1362255,-0.0932 -0.1526923,-0.007 -0.1074534,-0.11763 -0.2180508,-0.23249 -0.3136876,-0.36017 -0.8235429,-1.51104 2.3213859,-2.37313 3.8025299,-2.25216 0.233777,0.0109 0.467958,0.0112 0.701944,0.0137 0.508119,-0.0141 0.999116,0.12794 1.502633,0.18926 0.858374,0.0556 1.706981,0.19236 2.564227,0.26633 1.253022,0.11398 2.502805,0.24193 3.760344,0.3057 1.759033,0.0898 3.515077,0.21722 5.27585,0.28038 2.292032,0.0675 4.585319,0.0732 6.878158,0.0807 2.681092,0.0114 5.360102,0.14182 8.040482,0.20478 3.012879,0.14557 6.027168,0.24426 9.042992,0.29864 3.37239,0.0482 6.745208,0.0514 10.117876,0.0568 3.701084,-0.0644 7.401202,-0.16112 11.100368,-0.29503 3.875929,-0.11628 7.751718,-0.24369 11.625612,-0.41652 3.907398,-0.15689 7.814141,-0.31928 11.714919,-0.59906 3.896786,-0.27487 7.789409,-0.60348 11.689439,-0.83055 3.79875,-0.23638 7.59996,-0.4406 11.40259,-0.60413 3.77543,-0.21619 7.55451,-0.34255 11.33523,-0.41093 3.61252,-0.12913 7.22576,-0.22365 10.84013,-0.27901 3.37701,-0.0434 6.75437,-0.0441 10.1316,-0.051 3.11739,0.0406 6.23243,-0.0851 9.34798,-0.16866 2.92986,-0.0712 5.85674,-0.222 8.78664,-0.29962 2.67996,-0.0635 5.36072,-0.0731 8.04129,-0.0817 2.36937,0.0469 4.73659,0.15483 7.09602,0.3781 1.98372,0.18752 3.96252,0.43346 5.93132,0.74037 1.58427,0.31577 3.18591,0.5291 4.77347,0.82628 0.97339,0.14464 1.93526,0.35188 2.90555,0.51375 0,0 -3.21808,2.25317 -3.21808,2.25317 v 0 c -0.95913,-0.17883 -1.91428,-0.37838 -2.87716,-0.5374 -1.57955,-0.28829 -3.16638,-0.53354 -4.74388,-0.83327 -1.95656,-0.30134 -3.92034,-0.55887 -5.89197,-0.73978 -2.34483,-0.21745 -4.69724,-0.32722 -7.05182,-0.36494 -2.67203,0.003 -5.34431,0.012 -8.01573,0.0745 -2.92609,0.0781 -5.84944,0.22796 -8.77586,0.29159 -3.11272,0.0798 -6.22514,0.19455 -9.33953,0.15063 -3.37025,-0.002 -6.74058,0.002 -10.11062,0.0423 -3.60997,0.0518 -7.21848,0.15334 -10.82686,0.271 -3.77761,0.0711 -7.5536,0.19609 -11.32582,0.41553 -3.79866,0.16707 -7.59612,0.36798 -11.39117,0.6028 -3.89766,0.23202 -7.788286,0.5611 -11.683347,0.83161 -3.903665,0.27455 -7.813318,0.43261 -11.723087,0.59285 -3.876315,0.17041 -7.754485,0.29531 -11.632549,0.41802 -3.707977,0.13614 -7.417043,0.23794 -11.127107,0.29746 -3.381465,5.3e-4 -6.763113,0.003 -10.144318,-0.0454 -3.024111,-0.0522 -6.04623,-0.15239 -9.067964,-0.283 -2.68559,-0.0598 -5.370105,-0.1858 -8.056587,-0.18339 -2.306981,-0.002 -4.614402,-8e-4 -6.92068,-0.0658 -1.772873,-0.0635 -3.541993,-0.18605 -5.314172,-0.26058 -1.26899,-0.0681 -2.531634,-0.19626 -3.798037,-0.29703 -0.866915,-0.082 -1.730593,-0.19399 -2.598858,-0.26105 -0.495958,-0.0693 -0.987628,-0.17196 -1.491559,-0.13648 -0.238573,-2.7e-4 -0.477058,-0.004 -0.7155925,-0.006 -0.070505,0.005 -0.1399037,0.0102 -0.2091264,0.0255 -0.030854,0.007 -0.1189403,0.0399 -0.09175,0.0238 3.3969529,-2.01133 4.0034319,-0.84528 3.1786559,-2.18394 0.02711,0.0354 0.137862,0.19277 0.132455,0.0854 0.0953,0.0638 0.193019,0.12524 0.278674,0.20205 0.170596,0.17484 0.09837,0.17721 0.201846,0.2329 0.116498,0.11718 0.358517,0.57013 0.046,0.085 1.527335,-0.11779 -2.935182,3.24275 -3.12505,2.0518 0.0062,-0.095 0.0084,-0.19021 0.0077,-0.28542 -0.0012,-0.19464 -0.01333,-0.38996 -0.05185,-0.58112 -0.08404,-0.4451 -0.2253453,-0.88713 -0.2009727,-1.34438 0.00299,-0.66949 0.00838,-1.33904 -0.00161,-2.00849 -0.011578,-0.87392 -0.04026,-1.74804 -0.127608,-2.61816 -0.1170614,-1.16706 -0.208943,-2.33319 -0.2640248,-3.50506 -0.1190355,-1.42909 -0.2392865,-2.85716 -0.3440655,-4.28731 -0.1645888,-1.60942 -0.2837674,-3.22305 -0.49399,-4.82766 -0.1758977,-1.79289 -0.3958085,-3.58147 -0.6132817,-5.36969 -0.2015871,-1.97628 -0.4118504,-3.95274 -0.5448593,-5.935 -0.1387864,-2.24074 -0.2105457,-4.48858 -0.2225173,-6.7333 -0.00159,-2.43969 0.00243,-4.8794 0.0078,-7.31909 0.01365,-2.61641 0.028894,-5.23314 0.1151469,-7.84841 0.1001363,-2.77149 0.257841,-5.54038 0.3351057,-8.31273 0.1312463,-2.95253 0.2735431,-5.90411 0.3630744,-8.85835 0.1027544,-3.04204 0.1167741,-6.08666 0.2481676,-9.12802 0.081807,-3.0307 0.062172,-6.06351 0.1698606,-9.09382 0.089966,-3.09883 0.1668185,-6.19674 0.129586,-9.29735 0.00114,-3.2717 0.00326,-6.54339 0.00518,-9.81509 4.763e-4,-3.29445 0.00206,-6.58891 -0.00111,-9.88336 -0.010623,-3.27634 -0.024535,-6.55335 -0.1328407,-9.82821 C 8.5006473,159.24136 8.2964329,156.03803 8.0830946,152.83521 7.8520861,149.79794 7.6236514,146.76066 7.320046,143.72946 7.0677732,140.85921 6.7913665,137.99108 6.5144898,135.12314 6.2698159,132.45975 6.004743,129.79829 5.7656663,127.13438 5.5741617,124.83164 5.3693049,122.53045 5.1425279,120.23101 4.9585478,118.26131 4.8086481,116.28836 4.595495,114.3214 4.4214116,112.84338 4.2691452,111.36295 4.0615986,109.889 3.891748,108.72402 3.7610761,107.5535 3.5875889,106.38899 c -0.1750494,-1.01537 -0.3515024,-2.03074 -0.5008775,-3.05007 0,0 3.5123207,-1.84499 3.5123207,-1.84499 z"
       inkscape:connector-curvature="0" />
    <path
       style="fill:#00ffff;stroke-width:0.26458332"
       id="path26"
       d="m 8.0226833,101.69025 c 0.7100157,0.3124 1.4660634,0.48453 2.2327107,0.57952 0.789197,0.0761 1.583325,0.0723 2.375362,0.076 1.107801,0.12273 2.219376,0.18889 3.332818,0.23005 1.617856,0.0468 3.236583,0.0499 4.854985,0.0561 2.146474,-0.10236 4.295672,-0.14115 6.441792,-0.24739 2.563971,-0.16163 5.133597,-0.17406 7.699619,-0.27916 2.831517,-0.13631 5.665594,-0.19408 8.499927,-0.22552 3.018872,-0.11022 6.03817,-0.19858 9.058677,-0.24717 3.120739,-0.0408 6.241809,-0.039 9.362749,-0.0437 3.133289,-0.002 6.266575,10e-4 9.399863,0.002 3.197095,0.001 6.394193,0.001 9.591289,0.002 3.121154,-0.003 6.240539,0.12853 9.36082,0.19338 2.975287,0.0405 5.949574,0.0508 8.923655,0.14853 2.94006,0.0927 5.88047,0.13725 8.81977,0.2524 2.87655,0.1192 5.75528,0.16116 8.63394,0.18423 2.77471,0.0311 5.55016,-0.0195 8.32423,0.0506 2.643,0.0975 5.28678,0.16294 7.93129,0.19845 2.48886,0.0689 4.97552,-0.0583 7.4622,-0.14227 2.2935,-0.029 4.58339,-0.12054 6.87402,-0.23276 2.04125,-0.0534 4.07715,-0.20833 6.11623,-0.30903 1.8834,-0.0813 3.76874,-0.0994 5.65364,-0.10785 1.72068,-0.007 3.44138,-0.005 5.16206,-0.008 1.5064,-3e-5 3.01279,-0.002 4.51918,-0.001 1.35914,-0.003 2.71829,-0.002 4.07744,-0.004 1.25078,-0.0459 2.49411,0.0348 3.73997,0.12981 1.07171,0.0843 2.1465,0.10939 3.22101,0.12351 0.94476,-0.0392 1.87848,0.0514 2.81679,0.14286 0.89718,0.0654 1.80052,0.15656 2.69884,0.079 0.80134,-0.0932 1.60422,-0.16011 2.40996,-0.19834 0.69275,-0.0212 1.3712,-0.17914 2.06234,-0.23611 0.62448,-0.0469 1.25084,-0.0555 1.87679,-0.0601 0.49438,-6.9e-4 0.96827,-0.16161 1.45936,-0.21838 0.33575,-0.088 0.72651,0.0355 1.03734,-0.12095 1.29293,-0.67737 3.0585,-2.050644 -2.90984,2.0323 -0.0886,0.041 -0.16411,0.11041 -0.2803,0.10792 -0.0326,0.0225 -0.163,-0.0193 -0.188,0.012 -0.02,0.025 -0.0524,0.10817 -0.0244,0.0927 2.48892,-1.37004 4.39594,-2.60217 3.22801,-1.84874 -0.12674,0.094 -0.28229,0.17174 -0.37799,0.29511 -0.15126,0.33625 -0.25529,0.68835 -0.37007,1.03956 -0.16298,0.60082 -0.30612,1.20924 -0.40772,1.82373 -0.12684,0.96184 -0.25749,1.9213 -0.33333,2.88882 -0.0701,1.27063 -0.10605,2.54452 -0.0646,3.81656 0.1051,1.75159 0.1577,3.50499 0.18761,5.25927 -0.009,2.14861 0.0597,4.29436 0.14056,6.44101 0.095,2.42688 0.11664,4.85582 0.13194,7.28426 -0.0304,2.59463 0.0858,5.18676 0.16337,7.7795 0.0647,2.78554 0.0778,5.57093 0.16814,8.35585 0.0997,3.01617 0.14021,6.03326 0.24687,9.04918 0.0747,3.12784 0.32282,6.24724 0.50388,9.36972 0.19693,3.11333 0.53221,6.21543 0.75986,9.32646 0.25287,3.18061 0.4638,6.36403 0.68007,9.54722 0.22649,3.20464 0.30797,6.41662 0.44472,9.62576 0.14554,3.24849 0.18124,6.50015 0.20664,9.75133 0.0222,3.18805 0.0221,6.37616 0.0212,9.56427 0.029,3.07373 -0.0431,6.14704 -0.18486,9.21736 -0.13674,2.87958 -0.37141,5.75371 -0.64334,8.62336 -0.2187,2.57763 -0.442,5.15465 -0.67879,7.73072 -0.17746,2.2682 -0.39242,4.53342 -0.6528,6.7936 -0.23637,2.10884 -0.40158,4.22566 -0.55536,6.34203 -0.11478,1.86216 -0.2769,3.72013 -0.36289,5.58412 -0.0545,1.62596 -0.19009,3.24741 -0.26481,4.87256 -0.06,1.45109 -0.0664,2.9036 -0.0724,4.3557 -0.002,1.36146 0.002,2.72292 0.002,4.08439 -5.2e-4,1.37285 -7.9e-4,2.74571 0.001,4.11856 0.004,1.18908 0.007,2.37816 0.009,3.56724 0.003,0.95832 0.005,1.91665 0.009,2.87496 0.005,0.71392 0.004,1.42785 0.007,2.14178 0.004,0.5619 1.7e-4,1.12385 0.006,1.68574 -0.008,0.35479 -0.0112,0.69871 0.0986,1.03828 0.0553,0.18111 0.10509,0.3638 0.15415,0.54667 0.0661,0.19834 0.0732,0.11033 -0.003,-0.11271 -1.10689,0.6564 -2.21378,1.3128 -3.32067,1.9692 0.0466,-0.1756 0.12716,0.11757 0.0913,-0.0235 0.0294,0.20827 -0.18054,-0.0798 -0.2017,-0.11444 -0.0476,-0.10667 -0.028,-0.0559 -0.0607,-0.15143 0,0 3.51611,-1.90873 3.51611,-1.90873 v 0 c 0.0163,0.14221 -0.002,-0.0321 0.004,0.05 -0.11399,-0.18804 0.31472,0.21371 0.27581,0.2435 0.5128,1.30471 -3.35609,3.85481 -3.41525,2.45419 -0.14271,-0.10312 -0.40403,-0.32079 -0.41181,-0.51237 -0.0294,-0.17599 -0.0721,-0.34962 -0.12066,-0.52121 -0.12266,-0.38194 -0.18256,-0.75194 -0.14341,-1.15488 0.006,-0.56399 0.002,-1.12805 0.006,-1.69206 0.003,-0.71634 0.002,-1.43268 0.007,-2.149 0.004,-0.96149 0.007,-1.92299 0.009,-2.88449 0.002,-1.19198 0.005,-2.38396 0.008,-3.57593 0.002,-1.37289 0.001,-2.74578 -8e-4,-4.11866 -0.002,-1.3628 -0.002,-2.72561 0.002,-4.0884 0.005,-1.45828 0.0137,-2.91687 0.0723,-4.37418 0.0753,-1.62838 0.22114,-3.25229 0.28137,-4.88117 0.0886,-1.87087 0.25267,-3.73545 0.37985,-5.60368 0.15341,-2.12311 0.32898,-4.24595 0.55762,-6.3622 0.26987,-2.26038 0.49061,-4.52658 0.67682,-6.79535 0.2437,-2.58013 0.47935,-5.16079 0.70051,-7.74294 0.28188,-2.86637 0.52707,-5.73772 0.66673,-8.61485 0.1552,-3.0664 0.23139,-6.13707 0.20556,-9.20753 1.7e-4,-3.18891 0.004,-6.37786 -0.01,-9.56674 -0.0243,-3.24624 -0.0674,-6.49282 -0.20688,-9.7365 -0.13673,-3.20621 -0.21801,-6.4152 -0.44042,-9.61713 -0.2191,-3.18175 -0.42506,-6.36428 -0.68418,-9.54319 -0.22621,-3.11276 -0.56413,-6.21614 -0.76331,-9.331 -0.18063,-3.12474 -0.42855,-6.24621 -0.50912,-9.37606 -0.1132,-3.01355 -0.16115,-6.02819 -0.26255,-9.04214 -0.0993,-2.78221 -0.12188,-5.56499 -0.18652,-8.34812 -0.0783,-2.59356 -0.2048,-5.18621 -0.17857,-7.78173 -0.0166,-2.42232 -0.0411,-4.84491 -0.14062,-7.26554 -0.0903,-2.14496 -0.17453,-4.28867 -0.16758,-6.4361 -0.037,-1.74523 -0.0961,-3.48993 -0.22309,-5.23129 -0.0644,-1.28021 -0.0297,-2.5631 0.0229,-3.84346 0.0567,-0.97283 0.18476,-1.93537 0.29511,-2.90247 0.0775,-0.63341 0.23053,-1.24804 0.35938,-1.87137 0.10317,-0.3434 0.16298,-0.7284 0.3529,-1.03028 0.0214,-0.23383 0.083,-0.38193 0.27268,-0.53022 1.18021,-0.93743 2.41177,-2.10424 3.90509,-2.11158 0.16394,-0.045 0.31851,0.0259 0.44215,0.13605 -0.98228,0.74207 -2.17831,2.23572 -3.62864,2.52453 -0.35075,0.01 -0.70109,0.032 -1.04808,0.0871 -0.49161,0.0834 -0.9796,0.20218 -1.48296,0.17102 -0.61709,0.008 -1.23493,0.0209 -1.8493,0.0842 -0.68911,0.0819 -1.37435,0.20949 -2.07026,0.21789 -0.80144,0.0441 -1.59903,0.129 -2.39909,0.19154 -0.91225,0.0202 -1.82355,-0.0427 -2.73153,-0.1289 -0.92986,-0.0917 -1.85907,-0.13244 -2.79384,-0.12033 -1.0752,-0.0228 -2.15035,-0.062 -3.22237,-0.15129 -1.23664,-0.0958 -2.47228,-0.14239 -3.7131,-0.11222 -1.35565,-10e-4 -2.7113,-2.7e-4 -4.06695,-0.004 -1.504,2.6e-4 -3.00801,-0.002 -4.51201,-0.004 -1.71475,-0.005 -3.42953,-0.007 -5.14429,-0.002 -1.87917,0.0121 -3.75889,0.0268 -5.63634,0.11619 -2.03468,0.10066 -4.0671,0.24399 -6.10391,0.29886 -2.28667,0.10305 -4.57307,0.17704 -6.86179,0.21714 -2.48515,0.08 -4.97054,0.19189 -7.45755,0.11682 -2.64212,-0.0379 -5.28311,-0.11178 -7.92374,-0.20823 -2.77224,-0.058 -5.54534,-0.0138 -8.31797,-0.0486 -2.8778,-0.0295 -5.75564,-0.0768 -8.63122,-0.19981 -2.93874,-0.1104 -5.878774,-0.15222 -8.817921,-0.25075 -2.971229,-0.092 -5.942957,-0.0977 -8.91504,-0.14987 -3.115286,-0.0686 -6.229808,-0.20316 -9.346197,-0.19406 -3.197874,-1e-5 -6.395744,-2e-5 -9.593617,0 -3.134389,4e-5 -6.268781,9e-5 -9.40317,5.8e-4 -3.121282,5.6e-4 -6.24269,0.006 -9.363694,0.0518 -3.02278,0.0526 -6.043925,0.15068 -9.065448,0.2502 -2.83909,0.0404 -5.677754,0.10687 -8.513884,0.24814 -2.572184,0.0963 -5.14695,0.12953 -7.716369,0.29588 -2.160655,0.10313 -4.323241,0.17207 -6.484717,0.25488 -1.633923,9e-4 -3.268319,0.007 -4.901736,-0.0396 -1.11896,-0.0433 -2.234312,-0.12954 -3.3514265,-0.20046 -0.8060179,-0.003 -1.6155837,-0.003 -2.4155304,-0.11504 -0.7924213,-0.13141 -1.5646485,-0.34929 -2.3096741,-0.65186 0,0 3.3033879,-2.20143 3.3033879,-2.20143 z"
       inkscape:connector-curvature="0" />
    <path
       style="fill:#00ffff;stroke-width:0.26458332"
       id="path28"
       d="m 99.140895,136.78974 c -0.917678,-0.50133 -1.948889,-0.65824 -2.973525,-0.77197 -1.449202,-0.13255 -2.90381,0.0545 -4.338873,0.24895 -2.001184,0.27739 -3.908626,0.95191 -5.788303,1.66491 -1.602012,0.60217 -3.155725,1.33723 -4.653547,2.16486 -0.418391,0.23119 -1.669044,0.93129 -1.240657,0.71919 0.663614,-0.32855 1.29822,-0.71271 1.947333,-1.06907 -2.929615,1.85184 -5.631297,4.01936 -8.235294,6.29822 -3.02074,2.7347 -5.713269,5.79909 -8.301921,8.93771 -2.839606,3.48778 -5.221332,7.30098 -7.457591,11.19277 -2.260576,4.09504 -4.163615,8.37307 -5.883322,12.719 -1.703023,4.27477 -2.962328,8.69828 -4.026059,13.16897 -1.026824,4.22188 -1.490083,8.53407 -1.749851,12.86123 -0.09067,2.84333 -0.105751,5.69413 0.07991,8.53447 0.105539,1.6146 0.228785,2.55111 0.408098,4.15445 0.435205,3.99263 1.449152,7.87459 2.7236,11.67221 1.055163,2.91669 2.292363,5.78136 3.888981,8.4467 0.312695,0.52201 0.653864,1.02642 0.980794,1.53963 1.983036,3.08908 4.490201,5.75748 7.155775,8.2586 1.814613,1.66486 3.735634,3.2102 5.803405,4.55019 1.244534,0.8065 1.892658,1.15741 3.176466,1.89682 3.31661,1.91971 6.874272,3.32786 10.481821,4.5876 2.446575,0.80344 4.919162,1.55958 7.432243,2.13043 1.413315,0.32103 2.384034,0.47192 3.811384,0.72116 2.530824,0.36034 5.071443,0.68561 7.625598,0.82625 1.34503,0.0741 2.42307,0.074 3.7692,0.0915 3.69892,-0.006 7.38511,-0.38304 11.03939,-0.92999 3.58861,-0.49876 7.09325,-1.40478 10.55259,-2.4602 3.391,-1.06878 6.66581,-2.44144 9.88212,-3.94725 1.07739,-0.53382 1.97381,-0.96495 3.02921,-1.53922 0.48794,-0.26549 1.93341,-1.09499 1.44917,-0.82281 -2.72188,1.52992 -1.9921,1.17256 -0.39046,0.14076 0.46202,-0.29763 0.91562,-0.60813 1.37343,-0.9122 2.78359,-1.92476 5.24282,-4.24845 7.58654,-6.67625 2.41453,-2.51057 4.48609,-5.3137 6.42112,-8.20159 1.82225,-2.74669 3.38838,-5.64946 4.68266,-8.67868 1.19779,-2.88638 2.07212,-5.88384 2.72532,-8.93529 0.64661,-3.00693 0.93747,-6.07104 1.07284,-9.13869 0.13207,-3.09063 -0.051,-6.17921 -0.36243,-9.25297 -0.32135,-3.07518 -0.99116,-6.09392 -1.81951,-9.06779 -0.88133,-2.99191 -2.12103,-5.85265 -3.40295,-8.68927 -1.28578,-2.84973 -2.81809,-5.57318 -4.44174,-8.24102 -1.62588,-2.70087 -3.49683,-5.24396 -5.41098,-7.74511 -1.9158,-2.43766 -3.99614,-4.74393 -6.21477,-6.90832 -2.19402,-2.10159 -4.56411,-4.01008 -6.95367,-5.88275 -2.35226,-1.85834 -4.861,-3.50231 -7.36644,-5.14329 -2.48793,-1.54719 -5.02199,-3.01719 -7.58252,-4.4404 -2.46026,-1.3432 -4.96411,-2.59837 -7.49975,-3.79193 -2.36903,-1.11491 -4.81689,-2.05268 -7.28227,-2.92986 -2.2319,-0.75102 -4.49708,-1.40904 -6.794112,-1.92837 -1.424971,-0.25123 -2.851935,-0.52512 -4.297195,-0.63369 -0.694137,-0.0522 -1.359988,-0.0482 -2.055202,-0.0556 -2.015019,0.0316 -4.000166,0.41927 -5.93545,0.95673 -0.963769,0.28216 -1.866697,0.71584 -2.766947,1.15171 0,0 3.01085,-2.39696 3.01085,-2.39696 v 0 c 0.914117,-0.41927 1.831388,-0.83432 2.806729,-1.09573 1.960846,-0.50777 3.96435,-0.88053 5.998115,-0.86969 2.151107,0.0494 4.282485,0.30215 6.386252,0.76435 2.29786,0.54461 4.56845,1.20507 6.80017,1.97809 2.46816,0.8906 4.91699,1.84364 7.28835,2.97037 2.53659,1.20475 5.04385,2.46648 7.50569,3.81864 2.56034,1.43663 5.10179,2.9072 7.58878,4.46824 2.51164,1.64835 5.02576,3.30158 7.37966,5.17282 2.39743,1.88371 4.77695,3.80127 6.97457,5.91819 2.2237,2.18355 4.3124,4.50447 6.23461,6.9589 1.92423,2.51023 3.7991,5.06713 5.43204,7.77914 1.63329,2.68006 3.17619,5.41502 4.46675,8.27976 1.28967,2.85424 2.53885,5.72975 3.43275,8.73822 0.83594,2.99253 1.52336,6.029 1.84908,9.1242 0.32273,3.0886 0.50892,6.19303 0.39068,9.29977 -0.12636,3.08588 -0.40664,6.17073 -1.04969,9.19666 -0.24031,1.15489 -0.37928,1.90725 -0.68639,3.04648 -0.54552,2.0236 -1.25853,4.00529 -2.01558,5.95734 -1.27746,3.05845 -2.84682,5.98253 -4.67251,8.75109 -1.92411,2.90675 -3.98936,5.72802 -6.39327,8.26153 -2.33206,2.44638 -4.77762,4.79017 -7.54502,6.74681 -3.78577,2.54921 -7.75267,4.83614 -11.86423,6.81822 -3.2237,1.49185 -6.5087,2.845 -9.90512,3.89824 -3.47129,1.04198 -6.98864,1.92612 -10.58563,2.41597 -3.66529,0.5242 -7.35889,0.8954 -11.06605,0.87573 -3.826418,-0.0655 -7.642043,-0.33858 -11.420933,-0.9717 -1.479569,-0.26402 -2.36409,-0.40245 -3.829138,-0.74152 -2.518762,-0.58295 -4.997169,-1.34538 -7.449208,-2.15907 -3.624805,-1.27632 -7.197585,-2.706 -10.532023,-4.6374 -1.297533,-0.75325 -1.932154,-1.09901 -3.190237,-1.92026 -2.078358,-1.35671 -4.009475,-2.91892 -5.834007,-4.59955 -2.685285,-2.52492 -5.214186,-5.21627 -7.207099,-8.33604 -0.32992,-0.51934 -0.674325,-1.02976 -0.989762,-1.55803 -1.604996,-2.68791 -2.855706,-5.57233 -3.910311,-8.51479 -1.277911,-3.82482 -2.295324,-7.73342 -2.74103,-11.75167 -0.175909,-1.58985 -0.30275,-2.57952 -0.409464,-4.18008 -0.190143,-2.85187 -0.182079,-5.71396 -0.09703,-8.56936 0.253047,-4.34797 0.706501,-8.68194 1.73492,-12.92476 1.062575,-4.48826 2.324595,-8.9279 4.019889,-13.22349 1.714222,-4.35919 3.608758,-8.65166 5.857779,-12.76475 2.221685,-3.90321 4.585026,-7.73081 7.406026,-11.23701 2.569822,-3.14908 5.248019,-6.2193 8.241898,-8.97693 2.575428,-2.29031 5.254035,-4.46373 8.156146,-6.3322 3.39352,-2.0132 6.738858,-4.17916 10.468438,-5.53481 1.909845,-0.71216 3.852781,-1.36415 5.883696,-1.62692 1.465016,-0.18715 2.9479,-0.35922 4.423897,-0.18967 1.075483,0.14134 2.140993,0.35545 3.108693,0.86987 0,0 -3.326382,2.16229 -3.326382,2.16229 z"
       inkscape:connector-curvature="0" />
    <path
       style="fill:#00ffff;stroke-width:0.26458332"
       id="path32"
       d="m 98.577774,208.8494 c 0.595903,-0.46403 1.145988,-0.97869 1.677396,-1.51409 0.43781,-0.4513 0.81731,-0.95219 1.16789,-1.47281 0.37191,-0.60625 0.66526,-1.25449 0.92717,-1.9143 0.26246,-0.82668 0.37643,-1.69513 0.49703,-2.55213 0.085,-0.95382 -0.0193,-1.90529 -0.18564,-2.84379 -0.21339,-0.99155 -0.65875,-1.88736 -1.22498,-2.71966 -0.59783,-0.83447 -1.3356,-1.55122 -2.085422,-2.24675 -0.792345,-0.71547 -1.585471,-1.42926 -2.387309,-2.13386 -0.82101,-0.73111 -1.464895,-1.61874 -2.088568,-2.51575 -0.608312,-0.89048 -1.046943,-1.88508 -1.370362,-2.91043 -0.350745,-1.0039 -0.505269,-2.04348 -0.583216,-3.09866 -0.04265,-1.13519 0.108392,-2.25273 0.337114,-3.36051 0.272923,-1.17329 0.598659,-2.3342 0.998866,-3.47045 0.444137,-1.17414 0.944874,-2.32544 1.467635,-3.46635 0.455049,-1.08074 0.903129,-2.16454 1.311207,-3.26397 0.385344,-0.94102 0.738187,-1.89193 0.964435,-2.88422 0.153011,-0.85141 0.222218,-1.72128 0.180131,-2.58552 -0.06227,-0.84081 -0.291886,-1.65875 -0.529924,-2.46414 -0.32409,-0.86591 -0.687115,-1.71663 -1.075168,-2.55584 -0.499327,-0.86622 -1.080588,-1.68387 -1.684272,-2.47998 -0.569412,-0.7926 -1.233061,-1.51158 -1.842791,-2.27259 -0.62258,-0.7756 -1.275717,-1.52473 -1.87362,-2.31999 -0.49992,-0.73514 -0.979175,-1.48541 -1.403218,-2.26703 -0.409884,-0.69062 -0.764606,-1.4095 -0.98334,-2.18319 -0.218469,-0.79708 -0.292764,-1.60227 -0.287575,-2.4251 0.03094,-0.88986 0.05494,-1.77982 0.07023,-2.67009 0.01328,-0.86823 0.01132,-1.73658 0.0068,-2.60487 0.01146,-0.54397 0.01135,-1.07842 -0.112765,-1.60963 -0.03113,-0.27589 -0.147026,-0.50826 -0.279813,-0.74615 -0.06969,-0.10302 -0.11843,-0.20925 -0.14378,-0.33078 3.627414,-1.86734 2.864292,-2.97485 3.672512,-1.67126 0,0 -3.437334,2.00499 -3.437334,2.00499 v 0 c -0.824934,-1.25092 -0.143526,-0.11349 3.289744,-2.23612 0.02551,0.0894 0.0032,0.16081 0.08281,0.24802 0.140031,0.27238 0.290343,0.5347 0.317397,0.8468 0.126574,0.56417 0.168079,1.12263 0.129839,1.70168 -0.006,0.87204 -0.01045,1.74409 -0.01733,2.61613 -0.01,0.88909 -0.03231,1.77795 -0.0621,2.6666 -0.01992,0.79112 0.02872,1.5569 0.240445,2.32435 0.19585,0.74993 0.539078,1.44053 0.932437,2.10668 0.416512,0.76352 0.877554,1.50108 1.362223,2.22326 0.599067,0.78956 1.249193,1.53606 1.870273,2.3079 0.615792,0.76178 1.273906,1.49088 1.849856,2.28384 0.611912,0.82357 1.208267,1.66308 1.722916,2.55153 0.402527,0.85308 0.770597,1.72149 1.109497,2.60154 0.25531,0.82965 0.49278,1.67513 0.57753,2.54132 0.069,0.8963 -0.0109,1.7985 -0.14116,2.68654 -0.20287,1.0154 -0.54102,1.99304 -0.95446,2.94197 -0.40884,1.10933 -0.857556,2.20158 -1.306192,3.29552 -0.526542,1.12983 -1.026567,2.27113 -1.477237,3.43363 -0.413377,1.11625 -0.741582,2.26036 -1.01667,3.41827 -0.22943,1.07706 -0.412099,2.15486 -0.384601,3.2625 0.07019,1.02547 0.205537,2.0416 0.542727,3.01857 0.300056,0.99123 0.728599,1.94715 1.313042,2.80517 0.601787,0.87385 1.232694,1.73282 2.036311,2.43573 0.80305,0.70872 1.60337,1.42014 2.39423,2.14256 0.76789,0.71884 1.52705,1.45653 2.13305,2.32159 0.59114,0.87913 1.06959,1.81831 1.30433,2.85993 0.18944,0.97283 0.30533,1.95858 0.2466,2.95163 -0.1083,0.87985 -0.23463,1.76237 -0.44492,2.62374 -0.23304,0.68575 -0.53302,1.34676 -0.88978,1.97724 -0.2981,0.56729 -0.71344,1.06936 -1.13298,1.55175 -0.50298,0.56337 -1.06626,1.0708 -1.64692,1.55357 0,0 -3.68023,1.48546 -3.68023,1.48546 z"
       inkscape:connector-curvature="0" />
    <path
       style="fill:#00ffff;stroke-width:0.26458332"
       id="path34"
       d="m 99.101819,208.02966 c 0.501409,-0.70486 0.927721,-1.45718 1.424601,-2.165 0.30316,-0.45924 0.66838,-0.87052 1.11172,-1.19698 1.51645,-0.94122 2.98398,-2.70328 4.58715,-1.66279 0.42863,0.295 0.77361,0.6782 1.12581,1.05737 0.41724,0.49674 0.8232,1.00334 1.24816,1.49411 0.42162,0.56364 0.86275,1.11024 1.33198,1.63483 0.45131,0.54107 1.0116,0.96794 1.54326,1.42439 0.51628,0.40509 1.06717,0.76011 1.5973,1.14568 0.55016,0.40299 1.16295,0.61845 1.82701,0.73492 0.75782,0.11474 1.51148,0.094 2.26799,-5.3e-4 0.88541,-0.12408 1.69818,-0.47327 2.52415,-0.79343 0.95765,-0.38728 1.89959,-0.81553 2.81181,-1.30027 0.15784,-0.0857 0.31567,-0.17131 0.47352,-0.25693 0.15986,-0.0867 0.31956,-0.17371 0.47962,-0.26003 0.16289,-0.0879 0.64929,-0.35538 0.48924,-0.26247 -5.37735,3.12175 -3.00109,1.7252 -1.82673,1.01237 2.15521,-1.40366 4.45029,-2.53534 6.74867,-3.66884 1.09186,-0.5679 2.19426,-1.09248 3.34603,-1.52473 1.10789,-0.40241 2.24567,-0.65522 3.41478,-0.78505 1.07132,-0.14746 2.13102,-0.0151 3.18643,0.16792 1.01578,0.18788 1.93578,0.64452 2.8312,1.1389 0.95896,0.51358 1.79759,1.21971 2.58684,1.96148 0.859,0.74769 1.61798,1.5928 2.38549,2.43042 0.76791,0.86091 1.54162,1.71746 2.32394,2.56568 0.74651,0.86319 1.54405,1.6861 2.39212,2.44995 0.73672,0.63873 1.60045,1.09234 2.51305,1.42075 0.88354,0.28612 1.78853,0.31762 2.70431,0.24556 0.90086,-0.087 1.79222,-0.27152 2.67861,-0.45434 0.90449,-0.16616 1.8054,-0.35166 2.70511,-0.54294 0.91167,-0.17452 1.84125,-0.21471 2.76693,-0.23844 0.95145,-0.12897 1.89415,-0.20206 2.85245,-0.14897 0.77129,0.0555 1.54326,0.0985 2.31625,0.11984 0.26881,0.006 0.53764,0.008 0.80651,0.006 0,0 -3.2326,2.34022 -3.2326,2.34022 v 0 c -0.26133,-0.012 -0.52278,-0.0195 -0.78412,-0.0313 -0.76732,-0.0342 -1.53301,-0.0933 -2.29991,-0.13491 -0.95049,-0.0285 -1.88691,0.10144 -2.83337,0.17207 -0.91467,0.0373 -1.8316,0.0952 -2.72778,0.29514 -0.90016,0.18887 -1.80285,0.36604 -2.70605,0.53966 -0.8961,0.17861 -1.79815,0.35672 -2.71188,0.40934 -0.95272,0.0358 -1.89591,-0.0533 -2.79871,-0.3823 -0.93951,-0.37816 -1.82511,-0.86894 -2.58176,-1.55129 -0.84753,-0.78034 -1.64907,-1.61178 -2.40404,-2.48203 -0.78515,-0.84686 -1.55833,-1.70532 -2.32828,-2.56578 -0.75836,-0.83226 -1.52075,-1.65993 -2.37054,-2.40199 -0.77702,-0.71331 -1.59843,-1.38973 -2.54189,-1.8735 -0.87182,-0.46654 -1.77028,-0.8816 -2.75821,-1.0309 -1.03302,-0.16725 -2.07118,-0.23815 -3.11263,-0.0807 -1.14678,0.15894 -2.26453,0.44057 -3.34801,0.85358 -1.14041,0.44821 -2.22742,1.00666 -3.32355,1.55264 -1.42166,0.70206 -6.01518,3.11154 -0.0465,-0.18021 -2.08112,1.25603 -4.16687,2.50815 -6.32413,3.63004 -0.93028,0.46531 -1.8763,0.90059 -2.84725,1.27491 -0.84153,0.3255 -1.69197,0.62391 -2.59625,0.71774 -0.78301,0.0686 -1.57034,0.0499 -2.34513,-0.0948 -0.69608,-0.16555 -1.34351,-0.4405 -1.92143,-0.87039 -0.54339,-0.3839 -1.09629,-0.75482 -1.6124,-1.17595 -0.54679,-0.46513 -1.10672,-0.91749 -1.56949,-1.47083 -0.46939,-0.52687 -0.91161,-1.07499 -1.33497,-1.63955 -0.42254,-0.48611 -0.83263,-0.98294 -1.24856,-1.4746 -0.33079,-0.34522 -0.65606,-0.7005 -1.07364,-0.94393 -1.41254,-0.5987 -3.765345,1.70048 2.44922,-1.95186 -0.47522,0.261 -0.88728,0.61268 -1.19481,1.06463 -0.49708,0.70352 -0.97695,1.41436 -1.40934,2.16124 0,0 -3.637281,1.57748 -3.637281,1.57748 z"
       inkscape:connector-curvature="0" />
    <path
       style="fill:#00ffff;stroke-width:0.26458332"
       id="path44"
       d="m 49.507322,237.55198 c -0.224779,-1.02656 -0.218858,-2.07745 -0.14882,-3.1197 0.09005,-1.05936 0.392207,-2.07746 0.695806,-3.09063 0.298289,-0.99808 0.782767,-1.90963 1.369767,-2.7639 0.556344,-0.84071 1.300085,-1.51406 2.085316,-2.13358 1.86082,-1.33702 3.858871,-2.59654 6.110303,-3.09766 1.012105,-0.13894 2.000986,0.0774 2.984429,0.28694 1.025043,0.29457 2.047179,0.601 3.069232,0.90682 1.050227,0.304 2.116873,0.53725 3.189121,0.7483 1.028332,0.19007 2.074498,0.23212 3.117377,0.2579 0.947345,0.0402 1.888918,0.0196 2.819267,-0.17102 0.612267,-0.14685 1.179627,-0.40719 1.723599,-0.71801 0.136113,-0.0778 0.542666,-0.31416 0.406104,-0.23718 -0.9892,0.55761 -1.976041,1.1194 -2.964061,1.67911 0.771483,-0.53171 1.37758,-1.23885 1.945616,-1.9739 0.573924,-0.73163 0.987232,-1.56529 1.367319,-2.4087 0.392954,-0.90534 0.751803,-1.82633 1.091401,-2.75309 0.317024,-0.89334 0.565587,-1.80674 0.804865,-2.72314 0.225658,-0.80285 0.464402,-1.60168 0.694616,-2.40322 0.202978,-0.7383 0.450863,-1.4635 0.712568,-2.18279 0.286494,-0.72524 0.621459,-1.42926 0.970174,-2.12619 0.305941,-0.58607 0.695817,-1.12102 1.144657,-1.60462 1.378156,-1.23315 3.084443,-2.02767 4.700725,-2.90421 0.497768,-0.18201 1.010001,-0.34033 1.52768,-0.45999 0.564975,-0.017 1.111417,0.0701 1.656249,0.20453 0.565613,0.22907 1.10513,0.52702 1.634453,0.83077 0.582912,0.3157 1.185569,0.58333 1.786718,0.8601 0.551212,0.24348 1.107226,0.47176 1.672662,0.68063 0.500927,0.17114 0.992721,0.35364 1.516181,0.44642 0.385487,0.1653 0.78345,0.24896 1.197663,0.29544 0.438163,0.0621 0.843362,-0.005 1.249376,-0.173 1.454005,-0.83279 -1.976956,1.13252 -2.905456,1.65591 -0.09289,0.0524 0.181991,-0.11143 0.2696,-0.17223 0.305094,-0.21171 0.591187,-0.45483 0.883404,-0.68359 0.653717,-0.53668 1.30906,-1.07114 1.975334,-1.59227 0.691243,-0.5076 1.339023,-1.06971 2.008073,-1.60531 0.10941,-0.0885 0.21882,-0.17697 0.32822,-0.26546 0,0 3.65577,-1.47119 3.65577,-1.47119 v 0 c -0.10918,0.0899 -0.21837,0.17976 -0.32755,0.26964 -0.67171,0.5352 -1.32131,1.09656 -2.00699,1.61419 -0.67594,0.50327 -1.32615,1.04095 -1.97084,1.58329 -1.54214,1.23086 -3.107189,2.50846 -5.04804,3.09418 -0.453326,0.0988 -0.90339,0.12547 -1.362635,0.0374 -0.413481,-0.0734 -0.805458,-0.20726 -1.208421,-0.32101 -0.525264,-0.1327 -1.031833,-0.32114 -1.542042,-0.50185 -0.565592,-0.22276 -1.12862,-0.44953 -1.680758,-0.70439 -0.613214,-0.27404 -1.214273,-0.57224 -1.808168,-0.88598 -0.507576,-0.27685 -1.013931,-0.5823 -1.575641,-0.73401 -0.504918,-0.10611 -1.036169,-0.16683 -1.54451,-0.0503 -0.500735,0.14641 -1.014342,0.27668 -1.470351,0.53763 -1.275834,0.69762 -0.632391,0.34847 2.954901,-1.73234 0.07315,-0.0424 -0.146018,0.0859 -0.214561,0.13539 -0.515959,0.37287 0.104487,-0.0191 -0.457592,0.32205 -0.0801,0.0562 -0.152582,0.12259 -0.228872,0.18388 -0.496784,0.40864 -0.871453,0.94466 -1.208953,1.48812 -0.365323,0.67773 -0.682223,1.37805 -0.992955,2.08217 -0.266432,0.71137 -0.518273,1.42867 -0.725913,2.15908 -0.238022,0.79743 -0.461534,1.59901 -0.704742,2.39504 -0.241726,0.92833 -0.493863,1.85239 -0.800208,2.76165 -0.336513,0.93315 -0.69205,1.85934 -1.074124,2.77444 -0.375346,0.86481 -0.76921,1.72922 -1.329536,2.49327 -0.568537,0.7542 -1.141511,1.51023 -1.902238,2.08551 -1.867212,1.11227 -3.772712,2.59834 -5.966523,3.08535 -0.950201,0.13429 -1.903651,0.14859 -2.861998,0.10373 -1.054688,-0.0401 -2.11165,-0.10583 -3.148291,-0.31682 -1.078187,-0.22339 -2.152541,-0.46149 -3.208284,-0.77707 -1.017797,-0.29733 -2.028846,-0.62229 -3.058594,-0.87532 -0.950844,-0.19481 -1.916136,-0.36175 -2.880826,-0.14309 -0.468955,0.13065 -0.923467,0.27697 -1.370782,0.47137 -0.154093,0.067 -0.600334,0.30042 -0.456756,0.21316 4.44985,-2.70425 3.642898,-2.18494 2.490452,-1.4287 -0.795041,0.57964 -1.561772,1.21479 -2.136251,2.02273 -0.588965,0.82381 -1.11492,1.67783 -1.423826,2.65245 -0.306277,0.98899 -0.607248,1.98224 -0.736447,3.01308 -0.0778,0.99513 -0.124494,2.01185 0.13253,2.98706 0,0 -3.488973,1.88677 -3.488973,1.88677 z"
       inkscape:connector-curvature="0" />
  </g>
</svg>
