<?xml version="1.0" encoding="UTF-8" standalone="no"?>
<!-- Created with Inkscape (http://www.inkscape.org/) -->

<svg
   xmlns:dc="http://purl.org/dc/elements/1.1/"
   xmlns:cc="http://creativecommons.org/ns#"
   xmlns:rdf="http://www.w3.org/1999/02/22-rdf-syntax-ns#"
   xmlns:svg="http://www.w3.org/2000/svg"
   xmlns="http://www.w3.org/2000/svg"
   xmlns:xlink="http://www.w3.org/1999/xlink"
   xmlns:sodipodi="http://sodipodi.sourceforge.net/DTD/sodipodi-0.dtd"
   xmlns:inkscape="http://www.inkscape.org/namespaces/inkscape"
   width="900mm"
   height="1000mm"
   viewBox="0 0 900 1000"
   version="1.1"
   id="svg6427"
   inkscape:version="0.92.4 (5da689c313, 2019-01-14)"
   sodipodi:docname="new-wall.svg">
  <defs
     id="defs6421" />
  <sodipodi:namedview
     id="base"
     pagecolor="#ffffff"
     bordercolor="#666666"
     borderopacity="1.0"
     inkscape:pageopacity="0.0"
     inkscape:pageshadow="2"
     inkscape:zoom="0.35"
     inkscape:cx="721.43605"
     inkscape:cy="2793.3318"
     inkscape:document-units="mm"
     inkscape:current-layer="layer1"
     showgrid="false"
     inkscape:window-width="1920"
     inkscape:window-height="1043"
     inkscape:window-x="0"
     inkscape:window-y="0"
     inkscape:window-maximized="1"
     inkscape:pagecheckerboard="true" />
  <metadata
     id="metadata6424">
    <rdf:RDF>
      <cc:Work
         rdf:about="">
        <dc:format>image/svg+xml</dc:format>
        <dc:type
           rdf:resource="http://purl.org/dc/dcmitype/StillImage" />
        <dc:title />
      </cc:Work>
    </rdf:RDF>
  </metadata>
  <g
     inkscape:label="Layer 1"
     inkscape:groupmode="layer"
     id="layer1"
     transform="translate(0,703)">
    <path
       style="fill:#00ffff;stroke-width:0.26458332"
       id="path3751"
       d="m 54.767842,-698.1264 c -0.132726,5.50903 -0.04718,11.02015 -0.02553,16.53004 0.0078,3.95566 0.04668,7.91089 0.04199,11.86658 0.0013,4.31835 -0.04106,8.63639 -0.04522,12.95472 -0.0061,5.47057 -0.03858,10.94097 -0.02687,16.41158 -0.408247,6.29058 -1.237961,12.54881 -2.28528,18.76261 -1.183584,6.81557 -1.51108,13.72538 -2.413931,20.57689 -0.96596,6.35508 -1.349296,12.76848 -1.593578,19.1846 -0.0619,6.06425 -0.391898,12.14524 0.04322,18.19961 0.832712,5.37334 1.096473,10.82035 1.889704,16.19452 1.038183,4.87391 1.490125,9.82981 2.478132,14.71139 0.90437,5.90582 2.149888,11.7477 2.921691,17.67337 0.47679,6.37262 1.503061,12.67656 2.272398,19.01576 0.666064,6.17692 0.849667,12.3873 0.922078,18.59479 0.04003,6.59707 0.01706,13.19421 0.02638,19.79133 0.482563,6.65115 1.278871,13.27021 1.681988,19.93028 0.385143,6.81458 0.391911,13.64308 0.441732,20.46618 0.09765,6.89822 -0.925716,13.74653 -1.497658,20.60919 -0.560075,6.65361 0.353354,13.31725 0.856409,19.94884 0.115596,6.64586 1.159182,13.20575 1.829329,19.80433 0.426,6.91277 0.963914,13.78828 1.802664,20.66483 0.834951,6.98849 1.037053,14.02501 1.197335,21.05406 0.08717,7.4367 0.07137,14.8744 0.0691,22.31152 -0.01693,7.57293 -0.0066,15.14578 -0.0218,22.71871 0.06267,7.50663 0.140738,14.99703 -0.532209,22.47808 -0.836422,6.69353 -0.939406,13.44861 -1.579639,20.15566 -0.868963,5.73323 -1.503945,11.48773 -1.826403,17.27671 -0.283141,5.4237 -0.238662,10.85644 -0.271992,16.28534 -0.379309,5.35205 -1.258911,10.64414 -1.684983,15.9946 -0.459719,5.24097 -0.225266,10.50991 -0.611489,15.75072 -0.656772,4.46048 -1.307105,8.91252 -1.645899,13.41017 -0.265869,4.23862 -0.27778,8.48738 -0.292563,12.73262 -0.0054,4.27136 0.0032,8.54271 0.0073,12.81406 0.0026,4.70975 -0.02355,9.41928 -0.01765,14.12907 0.0092,4.547 0.01619,9.09399 0.01992,13.640991 0.0029,4.289055 0.003,8.578109 0.0031,12.86719 0.01342,4.600072 -0.02479,9.199906 -0.02566,13.799952 5.29e-4,5.160275 0.0037,10.320655 -0.02021,15.480903 0.01291,5.447348 -0.0041,10.894642 0.0068,16.341963 -0.428947,5.780167 -1.284729,11.510566 -1.727874,17.291817 -0.369684,5.820013 -0.386395,11.6527527 -0.433938,17.4817087 -0.04149,5.8022066 0.01598,11.6043867 0.0051,17.4065673 0.02477,5.427768 0.008,10.85551 0.01937,16.283278 -0.01175,5.510636 -0.0066,11.021298 -0.006,16.531934 0.341778,5.321009 -0.533696,10.557245 -1.192085,15.813113 -0.668978,5.21425 -0.785059,10.471865 -0.90388,15.720272 -0.07788,5.548445 -0.04759,11.097445 -0.06302,16.646181 0.0021,5.69672 0.02532,11.39351 0.0091,17.0902 0.0026,5.18235 0.02856,10.36461 0.04245,15.54692 0.09177,3.66752 -0.243809,7.35484 0.498202,10.96682 0.752642,2.82631 1.253046,5.69119 1.515742,8.60221 0.192297,3.13283 0.193263,6.27282 0.184285,9.41023 0.01199,3.35052 -0.02532,6.70134 -0.0034,10.05184 -8.2e-5,3.10057 0.0065,6.20088 -0.0087,9.30142 -0.02138,3.09068 0.122285,6.18456 -0.131474,9.26658 -0.394785,2.36959 -1.167027,4.65622 -1.603201,7.01675 -0.233844,1.22407 -0.304638,2.46335 -0.317574,3.70653 -0.0016,0.54713 -0.0089,1.0941 -0.0038,1.64128 -0.08921,0.50242 0.81651,1.47858 1.219105,2.30712 0.549521,1.20674 0.768752,2.48528 0.879123,3.79463 0.08282,0.90178 0.05095,1.80803 0.06123,2.71253 0.02373,0.61648 -0.01349,1.23103 -0.0127,1.84775 0.003,0.89069 -0.0011,1.78183 -0.01889,2.6725 0.518086,1.17014 1.149993,2.44414 1.548347,3.72015 0.425042,1.5073 0.539726,3.07117 0.577717,4.62933 0.03699,1.34829 0.01238,2.69669 0.03142,4.04527 -0.02151,1.46219 -0.02779,2.92417 0.0041,4.38623 -0.55131,1.36279 -1.429832,2.44764 -1.834727,3.93528 -0.119515,2.3336 -1.221523,4.39148 -1.77909,6.62009 -0.577429,2.2968 -1.538954,4.46646 -2.302277,6.70692 -0.168913,1.48067 -0.953278,2.69865 -1.715172,3.9287 -0.581284,0.54289 -0.698939,-1.15581 -0.906108,0.65637 -1.593617,-2.48255 0.289803,-0.0515 1.009372,0.86905 0.244573,0.30774 0.47494,0.62582 0.698021,0.94912 5.576795,9.6312 -21.483529,22.66021 -28.779075,14.31943 0,0 27.383361,-16.33926 27.383361,-16.33926 v 0 c 7.598079,10.25837 -25.611738,4.98089 -26.313656,18.15513 -0.15401,-0.24093 -0.308647,-0.48218 -0.484923,-0.70822 -0.698152,-0.91037 -1.952944,-1.60816 -2.10814,-2.81228 -0.01577,-0.92413 -0.148947,-2.3555 -0.134816,-2.94841 1.049452,-0.48876 1.782727,-1.43864 2.595335,-2.22895 0.343446,-2.354 1.266645,-4.59092 2.349653,-6.69724 0.244739,-1.26101 0.381898,-2.60065 0.858426,-3.80294 0.229003,-0.5778 0.718669,-1.03963 0.895355,-1.63549 0.093,-0.31364 0.05028,-0.65233 0.07543,-0.97849 0.08877,-1.3631 0.07632,-4.02187 1.449684,-4.63124 1.070557,-0.0548 0.394583,-2.3129 0.528296,-3.23323 0.03075,-1.33453 0.02334,-2.66891 0.03598,-4.0036 -0.01064,-1.31812 0.02701,-2.64684 -0.215114,-3.94872 -0.295799,-1.62306 -1.324412,-2.94097 -1.953135,-4.43875 -0.01806,-0.88615 -0.0224,-1.77279 -0.01745,-2.65893 0.0025,-0.62146 -0.03362,-1.24106 0.004,-1.86185 0.02088,-0.85749 0.01375,-1.7149 0.0358,-2.57225 -0.0032,-0.9303 0.03722,-1.85005 -0.290881,-2.74016 -0.401073,-1.22185 -1.877968,-2.09534 -1.889004,-3.46758 -5.82e-4,-0.56565 -0.02341,-1.13043 -0.02284,-1.69595 0.02334,-1.38575 0.03137,-2.78029 0.191929,-4.15642 0.326133,-2.41194 0.899533,-4.77364 1.680381,-7.08287 0.801913,-2.83906 0.174752,-5.88057 0.380071,-8.80321 -0.01485,-3.09976 -0.0075,-6.19924 -0.0024,-9.299 0.02826,-3.35155 0.0031,-6.70359 0.02068,-10.05517 -0.0123,-3.05784 0.0088,-6.11756 -0.12263,-9.17321 -0.167566,-2.78416 -0.52194,-5.53802 -1.266286,-8.23426 -0.881049,-3.85458 -0.857794,-7.67323 -0.719253,-11.61965 0.01383,-5.19599 0.03961,-10.39193 0.0399,-15.58793 -0.01944,-5.69565 -0.0018,-11.39139 -0.01154,-17.08708 -0.02448,-5.56011 -0.02268,-11.120594 0.01668,-16.680601 0.0454,-5.343049 0.178422,-10.697924 0.739864,-16.0147 0.617613,-5.15239 1.674644,-10.265568 1.383938,-15.477701 5.29e-4,-5.508308 0.006,-11.016641 -0.0067,-16.524949 0.0099,-5.431393 -0.0091,-10.862733 0.0067,-16.294126 -0.02048,-5.809192 0.01643,-11.618516 5.29e-4,-17.427734 0.003,-5.8890425 0.05138,-11.78144557 0.358865,-17.6635828 0.323977,-5.7242072 1.011338,-11.3992022 1.773436,-17.0795152 0.01087,-5.44965 -0.0061,-10.899246 0.0068,-16.348922 -0.02395,-5.153369 -0.02082,-10.306896 -0.02021,-15.460292 -7.94e-4,-4.591341 -0.03912,-9.182443 -0.02567,-13.773811 1.48e-4,-4.290139 2.57e-4,-8.580278 0.0032,-12.870418 0.0038,-4.553638 0.01101,-9.107249 0.01966,-13.66086 0.0051,-4.701276 -0.02156,-9.402258 -0.02668,-14.103508 -0.0037,-4.27432 -0.01098,-8.54864 -0.01246,-12.82295 0.005,-4.30633 0.0024,-8.61497 0.204401,-12.91762 0.267957,-4.54848 0.765244,-9.07312 1.633027,-13.55027 0.765159,-5.17863 0.197649,-10.45646 0.683641,-15.66883 0.373777,-5.29154 0.992383,-10.54346 1.790933,-15.7874 -0.01823,-5.48055 0.04861,-10.96148 0.213455,-16.4397 0.298834,-5.85592 0.78437,-11.6931 1.76412,-17.48039 0.978194,-6.66059 0.759518,-13.46096 1.713801,-20.13722 0.754566,-7.40008 0.79918,-14.78322 0.689348,-22.22138 -0.01074,-7.57031 0.0083,-15.14049 0.0043,-22.71077 0.0063,-7.4132 0.02545,-14.82659 -0.07754,-22.23937 -0.09986,-6.93224 -0.293401,-13.87348 -1.06567,-20.769 -0.795896,-6.89824 -1.540989,-13.77463 -1.819965,-20.71785 -0.665705,-6.62736 -1.819625,-13.20175 -1.889972,-19.87735 -0.453218,-6.77921 -1.477216,-13.5794 -1.060185,-20.37281 0.49476,-6.7967 1.604195,-13.55759 1.605634,-20.37511 -0.0021,-6.77471 -0.04051,-13.55167 -0.348787,-20.32061 -0.377891,-6.71656 -1.083863,-13.39448 -1.796248,-20.08203 0.02236,-6.58131 0.03179,-13.16307 -0.02619,-19.7442 -0.07947,-6.10778 -0.161681,-12.2247 -0.767831,-18.3082 -0.699966,-6.34159 -1.86894,-12.61843 -2.22576,-18.99555 -0.742426,-5.84762 -2.049457,-11.58265 -2.926592,-17.40794 -1.013626,-4.92284 -1.547533,-9.89575 -2.53886,-14.82393 -0.955156,-5.43041 -0.960298,-10.99643 -1.9366,-16.43538 -0.620301,-6.1562 -0.20711,-12.36465 -0.198117,-18.54413 0.178788,-6.52124 0.57743,-13.04024 1.490851,-19.50444 1.002418,-6.86923 1.328988,-13.78702 2.378563,-20.64933 0.979158,-6.06747 1.825346,-12.14012 2.433646,-18.25967 0.01167,-5.46148 -0.02072,-10.92276 -0.02687,-16.3842 -0.0042,-4.30296 -0.0465,-8.60564 -0.04522,-12.90863 -0.0047,-3.96995 0.03423,-7.93944 0.04199,-11.90937 0.02151,-5.5012 0.107566,-11.00369 -0.02553,-16.50401 0,0 28.28575,-14.41231 28.28575,-14.41231 z"
       inkscape:connector-curvature="0" />
    <path
       style="fill:#00ffff;stroke-width:0.26458332"
       id="path3753"
       d="m 856.74035,-679.05772 c 0.79571,7.84085 1.05667,15.72396 1.77384,23.56884 1.11705,8.40444 1.7271,16.80616 1.38028,25.27688 -0.62238,9.03987 -0.98372,18.09094 -1.18459,27.14902 0.32507,9.24623 1.10707,18.46699 1.53469,27.70938 0.35539,9.28233 0.38965,18.57387 0.43304,27.86189 0.066,9.39985 -0.96676,18.76579 -1.52646,28.1426 -0.38719,9.52438 -1.54003,18.99112 -2.136,28.50338 -0.20016,9.56327 -1.17346,19.07666 -1.87024,28.61016 -0.35441,9.22057 -0.99825,18.40712 -1.7844,27.59977 -0.77772,9.91547 -0.96525,19.8524 -1.77599,29.76565 -0.96017,10.78656 -1.32424,21.6109 -1.5227,32.43416 0.15171,11.20037 -0.78725,22.35898 -1.41873,33.53025 -0.61753,11.35771 -0.76435,22.73339 -0.86778,34.10513 -0.0309,11.87477 -0.0685,23.74959 -0.0396,35.62438 0.098,12.14003 -0.22153,24.28462 0.21376,36.41865 0.82852,13.1813 1.31988,26.37705 1.62341,39.57981 0.24423,12.68016 0.30104,25.36256 0.3117,38.0447 0.023,11.34684 0.0451,22.69371 0.037,34.04058 -0.34187,10.07835 -1.11517,20.13297 -2.24163,30.151705 -0.63934,8.651161 -2.57117,17.107641 -4.18431,25.606031 -1.40488,6.899698 -3.19746,13.712957 -5.02467,20.510738 -1.39002,5.240628 -2.57136,10.530046 -3.87041,15.794301 -0.99637,3.980974 -1.29101,8.07093 -1.46246,12.155038 -0.10017,3.262736 -0.0969,6.528647 -0.0614,9.7925466 -0.30729,3.0830837 0.52731,5.9897168 1.14959,8.9668349 0.62986,3.2961526 1.60377,6.5387007 2.53372,9.7671725 1.17097,3.462497 2.25955,6.959786 3.25163,10.479141 0.78996,4.21251 1.8919,8.357843 2.69835,12.567496 0.54885,4.758082 1.4591,9.459304 2.17937,14.192462 0.67363,4.578429 0.8563,9.204774 0.95899,13.824796 0.0659,4.297812 0.0503,8.596339 0.0445,12.894495 -0.007,4.272333 -0.0106,8.544692 -0.0124,12.817025 -0.006,3.842676 0.0272,7.684955 0.0212,11.527631 0.0169,3.092607 0.0315,6.185327 0.0204,9.277957 -0.0212,3.77082 -0.0311,7.54166 -0.0373,11.3125 -0.006,4.25336 -0.006,8.50672 -0.006,12.76009 0.043,3.6966 0.0225,7.39357 0.0145,11.09032 -0.009,4.14722 -0.0116,8.29445 -0.0132,12.44167 0.42622,4.25156 1.24712,8.44499 1.68079,12.69978 0.33841,3.87715 0.45149,7.76751 0.483,11.65757 0.4069,3.76859 1.1988,7.48274 1.67513,11.24575 0.65704,3.6712 0.0233,7.24953 -0.68323,10.84609 -0.60873,3.23736 -0.82563,6.53211 -0.91639,9.81987 0.0616,2.71307 -0.0274,5.31313 -0.78504,7.92486 -0.83466,2.14677 -1.11408,4.40721 -1.28762,6.68477 -0.25826,2.78006 -1.25439,5.40576 -1.77821,8.13869 -0.36693,2.49053 -0.45048,5.011 -0.47041,7.52481 0.004,1.86761 0.0119,3.73509 0.0289,5.60263 0.41876,1.86134 -0.69368,2.41387 -1.44452,3.71443 -2.63154,12.05151 -21.65106,24.01872 -31.57992,15.78036 -1.10691,-1.15234 -2.17715,-2.33839 -3.25716,-3.51571 0,0 27.18049,-16.56482 27.18049,-16.56482 v 0 c 0.93864,0.95004 1.8324,2.01528 2.95177,2.754 0.839,0.16989 1.0818,-0.65678 1.01521,-0.61923 -8.91829,5.02705 -17.7288,10.243 -26.59319,15.36451 0.79719,-0.0305 0.387,-0.0773 1.22536,0.17978 0.42585,-1.38594 0.41736,-2.33627 2.04423,-2.58275 0.006,-1.89026 -0.006,-3.78069 0.0204,-5.67087 0.027,-2.6398 -0.007,-5.28743 0.2989,-7.91459 0.2736,-2.71012 0.91453,-5.32423 1.88928,-7.87177 0.0741,-2.50608 0.18296,-5.02328 0.89096,-7.44527 0.97613,-2.57704 1.52114,-4.25043 1.2437,-7.11632 0.1098,-3.43042 0.23162,-6.86448 0.73266,-10.2658 0.56951,-3.34759 1.75157,-6.57651 1.11249,-10.01334 -0.39272,-3.88554 -1.07198,-7.72041 -1.82163,-11.5515 -0.0225,-3.81363 -0.0316,-7.63143 -0.3098,-11.43704 -0.37359,-4.35657 -1.09635,-8.65277 -1.82049,-12.96233 -0.003,-4.14272 -0.004,-8.28543 -0.0132,-12.42812 -0.008,-3.70168 -0.0284,-7.40359 0.0145,-11.10511 0,-4.25138 0,-8.50276 -0.006,-12.75411 -0.006,-3.75817 -0.0161,-7.51634 -0.0373,-11.27445 -0.0114,-3.09949 0.003,-6.19906 0.0201,-9.29849 -0.006,-3.85075 0.0276,-7.7011 0.0235,-11.55182 0,-4.273335 0.003,-8.546673 0.0106,-12.820012 0.007,-4.28117 0.023,-8.562445 -0.0103,-12.843562 -0.0592,-4.50395 -0.15849,-9.016683 -0.73033,-13.490628 -0.65273,-4.706064 -1.72905,-9.334262 -2.17083,-14.066679 -0.71874,-4.139565 -1.92288,-8.160279 -2.59035,-12.307437 -0.94268,-3.500888 -2.13373,-6.927982 -3.2177,-10.385028 -1.07768,-3.277394 -1.96871,-6.67684 -2.72447,-10.028396 -0.6155,-3.161639 -1.75307,-6.241389 -1.46198,-9.508649 0.0154,-3.3101756 -0.0185,-6.62074807 0.0496,-9.9306326 0.14044,-4.2736029 0.39404,-8.5642714 1.27328,-12.7592134 1.2342,-5.339874 2.69751,-10.618285 3.94406,-15.956042 1.92395,-6.725258 3.65901,-13.510022 5.23447,-20.32508 1.62266,-8.46021 3.71935,-16.855122 4.42632,-25.462811 1.14898,-9.932035 1.97337,-19.891693 2.48647,-29.87887 -2e-5,-11.36128 0.0385,-22.72252 0.0562,-34.08378 -0.0111,-12.67674 0.0161,-25.35449 -0.19765,-38.02988 -0.27228,-13.17591 -0.77168,-26.34274 -1.66272,-39.4929 -0.55933,-12.15949 -0.21338,-24.33717 -0.31834,-36.50676 0.019,-11.88223 -0.0464,-23.76461 0.0339,-35.6467 0.052,-11.40971 0.13425,-22.82294 0.74795,-34.21933 0.63862,-11.13026 1.62364,-22.24757 1.43803,-33.40627 0.20566,-10.87424 0.51057,-21.74973 1.4064,-32.59323 0.79539,-9.90729 1.0828,-19.8235 1.70164,-29.74318 0.78031,-9.18295 1.50566,-18.35195 1.80464,-27.56616 0.68855,-9.52544 1.74149,-19.02407 1.90172,-28.58066 0.54028,-9.51605 1.6795,-18.9751 2.14519,-28.49079 0.46522,-9.32556 1.56228,-18.62235 1.57088,-27.96213 -0.014,-9.251 -0.0375,-18.50387 -0.37438,-27.75003 -0.37727,-9.30799 -1.09342,-18.59097 -1.63145,-27.88933 0.1942,-9.07246 0.493,-18.14439 1.10704,-27.19944 0.44858,-8.33119 0.01,-16.58872 -1.19528,-24.85556 -0.83042,-7.76813 -0.80597,-15.61502 -2.02134,-23.34871 0,0 28.10209,-14.76176 28.10209,-14.76176 z"
       inkscape:connector-curvature="0" />
    <path
       style="fill:#00ffff;stroke-width:0.26458332"
       id="path3755"
       d="m 59.791922,-695.32799 c 3.5926,3.81773 7.354144,7.69344 11.854489,10.44018 2.809825,1.49271 5.979248,1.90886 9.009076,2.81294 3.094368,0.86452 6.286357,1.0148 9.476491,1.11594 3.259445,0.0731 6.519802,0.0481 9.779691,0.0381 3.250531,-0.002 6.500921,-0.0148 9.751471,-0.008 3.17282,-0.0102 6.34568,-0.009 9.51852,-0.009 3.16092,0.002 6.32197,0.0119 9.48286,-0.004 2.99441,0.20182 5.86966,1.29214 8.86094,1.79074 2.38274,0.31682 4.78639,0.34936 7.18582,0.35535 2.39342,-0.32768 4.62742,-1.46062 7.10007,-1.82904 2.5567,-0.37802 5.16394,-0.33811 7.74431,-0.33588 3.12037,0.45833 5.33244,-0.603 8.24428,-1.25186 2.969,-0.73052 6.06046,-0.77812 9.10345,-0.85176 3.25555,0.65597 6.2604,-0.97823 9.41722,-0.83203 3.2321,0.37917 6.47888,0.58479 9.72933,0.71625 3.47353,0.24978 6.81636,1.41009 10.28934,1.86692 3.4864,0.35735 6.99525,0.37718 10.49629,0.40028 3.45272,0.0158 6.90534,-0.009 10.3581,-0.008 3.77686,0.0133 7.55366,5.3e-4 11.3305,-0.007 3.83508,0.23303 7.48791,-0.0509 11.22944,-0.81261 4.02333,-0.77267 8.11815,-1.07804 12.20527,-1.25887 3.79462,0.0448 7.65775,-0.47547 11.37964,0.35987 3.38262,1.26418 6.75117,0.43896 10.20829,0.0416 3.73885,-0.35895 7.49858,-0.39453 11.25138,-0.43559 3.6757,-1.52262 7.20961,-1.10651 11.03588,-0.70738 3.60717,0.4022 7.23045,0.55789 10.85667,0.63794 3.53759,0.29077 6.85951,-0.0415 10.29422,-0.78748 4.12777,-0.84757 8.34078,-1.07075 12.54073,-1.2179 4.42118,-0.31121 8.69571,-0.0929 13.03284,0.72782 4.19645,0.83392 8.46667,1.09956 12.73262,1.25368 4.57558,0.1097 9.15311,0.11325 13.72976,0.11156 4.72842,-0.005 9.45682,-0.0327 14.18521,-0.0151 4.85574,0.006 9.71148,-0.005 14.56725,-0.0108 4.50964,-0.41877 8.82171,0.43022 13.23231,1.17772 3.69306,0.63784 7.42842,0.82774 11.16738,0.9172 3.74795,0.0728 7.49652,0.0366 11.24482,0.0313 3.1909,-1.07366 6.47318,-1.555 9.80223,-1.93588 3.0122,-0.47091 5.88361,-1.50797 8.92971,-2.0379 2.901,-0.335 5.82356,-0.32541 8.7389,-0.35693 2.73505,0.31547 5.08304,-1.05417 7.72567,-1.57143 2.34185,-0.49618 4.7517,-0.56337 7.13843,-0.57349 1.95731,-0.0192 3.91483,-0.003 5.87222,-0.002 0.31922,0.003 0.65857,0.11932 0.95768,0.008 0.53674,-0.20008 0.77208,-0.87477 1.27045,-1.15712 0.80256,-0.4547 1.86815,-0.62646 2.76127,-0.73328 1.7797,-0.36661 3.59559,-0.26856 5.40065,-0.27698 1.77184,0.003 3.54388,0.0171 5.31575,0.0316 2.20014,-0.004 4.4002,0.0195 6.60032,0.0145 2.83459,0.009 5.66907,0.009 8.50365,0.0196 1.97456,-0.26439 4.09517,0.33851 6.0551,-0.009 0.95364,-0.16888 1.83266,-0.63054 2.76556,-0.89063 3.12602,-0.63057 6.34539,-1.52112 9.48621,-0.71633 3.19743,0.86155 6.492,1.26294 9.78916,1.47502 3.4735,-0.13269 6.7034,1.13775 10.10459,1.68026 3.44567,0.66699 7.0208,0.14145 10.39538,1.0677 3.00326,0.94593 6.09719,1.3683 9.22721,1.554 2.98415,0.15423 5.97355,0.12562 8.96059,0.12959 2.86364,-0.0128 5.72733,-0.0239 8.59102,-0.0177 3.1532,-0.008 6.30653,0.0135 9.4597,-9.5e-4 3.4085,-0.43357 6.49785,0.53271 9.76649,1.2578 3.13645,0.65409 6.33089,0.78515 9.5224,0.8664 3.17458,0.0585 6.34966,0.03 9.52453,0.0299 2.92224,-0.0152 5.84459,-0.0239 8.76689,-0.0166 2.85033,-0.006 5.70068,-0.0106 8.55101,-0.001 2.77111,0.19597 5.39729,1.31303 8.17126,1.80117 2.31606,0.31099 4.65317,0.3368 6.98569,0.3426 2.34508,-0.003 4.69013,-0.0109 7.03522,-0.009 3.0694,0.46682 3.98708,-0.60102 6.59701,-1.3686 2.6837,-0.59562 5.42721,-0.70569 8.16584,-0.76469 2.85882,-0.0337 5.71777,-0.0281 8.5767,-0.0184 2.58593,-0.005 5.17179,0.014 7.75775,0.002 2.26205,-0.004 4.52418,0.003 6.78624,-0.007 2.25629,0.26908 4.36533,1.38042 6.64604,1.87616 1.94186,0.2601 3.90216,0.29096 5.8583,0.28704 1.91823,-0.008 3.83643,-0.0224 5.75466,-0.0177 2.11918,-0.004 4.23844,-0.0118 6.35765,-0.004 2.40051,1.00591 4.89318,1.61824 7.45982,1.98383 2.3346,0.20548 4.68,0.17906 7.02119,0.18424 2.59808,-0.009 5.19616,-0.0166 7.79426,-0.01 2.82678,-0.007 5.65362,-0.0111 8.4804,-0.002 2.66612,-0.0191 5.3323,2.4e-4 7.9984,-0.0101 2.5826,-1.4e-4 5.1652,-0.003 7.7478,0.002 2.60458,0.39205 4.61748,-0.56086 7.01908,-1.33127 2.18,-0.53705 4.36827,-0.82464 6.60979,-0.83757 2.67769,-0.10609 3.33476,0.57518 5.54995,-1.11543 1.76041,-0.70156 3.65731,-1.01132 5.54953,-1.02631 1.73096,-0.0415 3.46345,-0.0127 5.19502,-0.006 1.84398,0.0294 3.68821,0.0104 5.53228,0.02 1.53905,0.4237 1.58109,-0.60059 2.70176,-1.1599 0.57806,-0.2885 1.2364,-0.37559 1.85103,-0.57463 1.82184,-0.33753 3.64863,-0.40608 5.49373,-0.46104 0.92411,-0.38212 2.99696,0.6186 3.79735,0.0393 0.21338,-0.15444 0.18216,-0.49433 0.27326,-0.74149 -8.82938,5.01501 -34.76188,20.9317 -26.48812,15.04501 8.81313,-6.27044 18.72861,-10.82592 28.11414,-16.20192 0.94708,-0.54248 1.61441,-0.40083 2.65274,-0.37589 0.83243,-0.0231 1.65598,0.10055 2.48597,0.12333 0.51324,0.01 1.02656,0.0122 1.53985,0.0148 0.552,-0.0117 1.10445,-0.006 1.65672,-0.0126 0.51009,-0.0131 1.0197,0.006 1.52998,0.005 0.79901,-0.005 1.59771,0.007 2.39683,1.3e-4 0.81759,0.005 1.63515,0.007 2.45285,-0.004 0.86905,0.0249 1.73823,-0.007 2.60725,0.008 0.88197,-0.006 1.76361,-10e-4 2.64549,10e-4 0.63328,0.005 1.26633,-0.0244 1.89937,-0.007 0.90313,0.97663 1.82949,1.93374 2.61596,3.00912 -0.36182,-0.95633 0.55846,-0.71323 1.2196,-0.78873 0.51027,-0.13805 1.06862,-0.0778 1.59864,-0.0862 0.47588,-0.0291 0.94996,-4e-4 1.42568,0.005 1.12987,0.16597 2.00422,2.11891 2.47163,3.17329 0.14507,0.35984 0.27728,0.72393 0.43011,1.0805 0.0359,0.0766 0.0719,0.15321 0.10789,0.22981 -1.7394,-2.78031 -1.61806,-2.30971 0.0923,-2.35418 0.19788,-9e-4 0.39542,-0.0147 0.59248,-0.028 1.27569,0.0336 1.69281,-0.0551 2.74572,0.87357 0.84182,0.7178 2.23999,1.51732 3.39748,1.37165 1.07699,1.08221 1.39288,2.15515 1.79115,3.5905 0,0 -29.07384,13.37479 -29.07384,13.37479 v 0 c 0.55634,0.56149 0.8233,0.61519 0.99666,1.22955 -1.28757,-0.5816 -2.55297,-1.22422 -3.77124,-1.91217 -0.32922,0.64741 -1.35274,0.2029 -1.99954,0.36306 -0.19222,-0.008 -0.38478,-0.0171 -0.57748,-0.0153 -1.94577,-0.0206 -1.18869,0.0852 -2.97682,-2.34996 -0.046,-0.0626 0.0744,0.13624 0.11163,0.20436 0.17399,0.19136 0.16824,0.18778 0.14441,-0.0894 -0.38063,-1.21348 0.25048,0.20505 -0.3773,0.0751 -0.47437,0.006 -0.94734,0.0359 -1.42206,0.0173 -0.57957,-10e-4 -1.18268,0.071 -1.74453,-0.0816 -1.12813,-0.26033 -2.05173,-0.54642 -2.75748,-1.58153 -0.22374,-0.29678 -1.20256,-1.5975 -0.94166,-0.49219 -0.62666,0.0161 -1.2532,-0.0101 -1.8801,-0.007 -0.88326,0.003 -1.76625,0.008 -2.64956,0.002 -0.87659,0.0149 -1.75334,-0.016 -2.62999,0.008 -0.81409,-0.011 -1.62811,-0.008 -2.44213,-0.004 -0.79917,-0.007 -1.59795,0.005 -2.39702,2.4e-4 -0.51559,-5.3e-4 -1.03063,0.0186 -1.54604,0.006 -0.57036,-0.007 -1.14088,7.9e-4 -1.71093,-0.0183 -0.49366,-0.015 -0.98742,-0.0282 -1.48134,-0.0305 -0.72999,0.004 -1.44458,0.0842 -2.14612,0.30047 -0.72165,0.29353 -1.20573,0.89596 -1.9399,1.20612 37.76853,-21.81851 33.39727,-19.25225 -1.89767,0.8762 -1.5385,-0.36103 -3.11512,-0.23663 -4.68511,-0.11089 -1.67714,0.15598 -3.36246,0.47785 -4.90191,1.18266 -1.8007,0.7449 -3.2522,1.14136 -5.23557,0.83511 -1.84632,0.003 -3.69271,-0.0278 -5.53905,-0.004 -1.65952,0.01 -3.32748,0.0269 -4.96922,0.29628 -1.729,0.41829 -3.40114,0.93323 -5.00084,1.7321 -2.02758,0.34059 -4.12726,-0.0478 -6.17426,0.2711 -2.08765,0.27826 -4.1487,0.72921 -6.15985,1.36091 -2.50819,0.65669 -4.96366,0.73036 -7.55446,0.60525 -2.58432,0.005 -5.16861,0.002 -7.75293,0.002 -2.65668,-0.0105 -5.31344,0.009 -7.97015,-0.009 -2.8281,0.0102 -5.65623,0.008 -8.48434,0.0105 -2.61207,0.0154 -5.22462,0.0298 -7.8365,-0.005 -2.46145,-0.0427 -4.9361,-0.10305 -7.35521,-0.60872 -2.37024,-0.51748 -4.69318,-1.5111 -7.12933,-1.51603 -2.11982,0.01 -4.23966,0.005 -6.3595,0.0127 -1.94228,0.0138 -3.88601,0.0274 -5.82731,-0.0432 -2.10492,-0.11238 -4.2173,-0.30594 -6.25351,-0.88261 -2.05983,-0.6026 -3.99365,-1.53062 -6.18712,-1.22268 -2.25568,-0.0105 -4.51141,-0.003 -6.76712,-0.0108 -2.57715,-0.0168 -5.15432,-0.005 -7.73147,-0.0214 -2.82895,0.004 -5.66068,-0.0125 -8.48611,0.15038 -2.61162,0.20388 -5.22417,0.51008 -7.69588,1.43525 -2.34233,0.79246 -4.72004,0.60027 -7.16722,0.5846 -2.37014,0.011 -4.74094,0.0295 -7.11052,-0.0348 -2.44345,-0.10609 -4.88855,-0.28733 -7.28112,-0.82719 -2.58278,-0.59435 -5.07913,-1.56174 -7.77632,-1.29788 -2.84956,0.009 -5.69915,0.005 -8.54871,0.003 -2.91783,0.0117 -5.83568,0.012 -8.7535,0.007 -3.20509,0.005 -6.41231,0.002 -9.6148,-0.13901 -3.30907,-0.20397 -6.60329,-0.54215 -9.83234,-1.33222 -3.11021,-0.69687 -6.1872,-0.83293 -9.37609,-0.67851 -3.15431,-0.0138 -6.30878,0.009 -9.46309,0.008 -2.86494,0.0136 -5.73003,0.0192 -8.59496,0.004 -3.03605,-0.0138 -6.07796,-0.0532 -9.10122,-0.35889 -3.18532,-0.36351 -6.2819,-1.10156 -9.40694,-1.80023 -3.46187,-0.27032 -6.94325,-0.37611 -10.35863,-1.07479 -3.30726,-0.66147 -6.56206,-1.44182 -9.96204,-1.42917 -3.30633,-0.36688 -6.55785,-1.03948 -9.84858,-1.50175 -2.99093,0.2709 -5.93299,0.82068 -8.84579,1.55426 -3.04787,0.56057 -6.15566,0.25404 -9.2433,0.31857 -2.85276,0.011 -5.70544,0.0112 -8.55818,0.0182 -2.20946,-0.007 -4.41891,0.0144 -6.62837,-0.002 -1.75871,0.006 -3.51793,-0.01 -5.27579,0.0573 -1.67966,0.0859 -3.33349,0.31969 -4.9249,0.89022 -1.86069,0.87586 -3.40749,1.56071 -5.5277,1.1959 -1.92048,-0.01 -3.84189,-0.0116 -5.76083,0.0764 -2.27364,0.15992 -4.53366,0.42608 -6.73383,1.05284 -2.69364,0.75801 -5.32307,1.22712 -8.13877,1.01725 -2.81165,0.0609 -5.64084,0.19047 -8.39425,0.80813 -3.00892,0.66502 -5.92114,1.74056 -9.03523,1.85797 -3.35214,0.4906 -6.61432,1.5634 -10.02091,1.58911 -3.7661,5.3e-4 -7.53329,-0.0192 -11.29773,-0.13759 -3.81646,-0.18312 -7.60881,-0.5812 -11.36835,-1.28139 -4.28845,-0.71237 -8.56118,-0.93563 -12.91138,-0.75879 -4.84775,-0.005 -9.6955,-0.0158 -14.54322,-0.004 -4.72747,0.0234 -9.45499,0.009 -14.18251,0.009 -4.62209,-0.006 -9.24724,0.0311 -13.86517,-0.20173 -4.34232,-0.26367 -8.66246,-0.73572 -12.93921,-1.55241 -4.19704,-0.58179 -8.42349,-0.36176 -12.64688,-0.17943 -4.13654,0.25666 -8.25256,0.70892 -12.31138,1.5752 -3.54838,0.53989 -7.12512,0.38159 -10.70369,0.2544 -3.6572,-0.1365 -7.29998,-0.42976 -10.94271,-0.77913 -3.71671,-0.21835 -7.15921,0.62622 -10.83906,0.95615 -3.72028,0.0945 -7.44138,0.24422 -11.13894,0.69232 -3.61482,0.34079 -7.11023,0.22727 -10.64744,-0.69025 -3.66745,-0.17244 -7.34591,-0.0182 -11.01107,0.15523 -4.01193,0.28361 -8.00491,0.73148 -11.95263,1.52303 -3.84603,0.55374 -7.7168,0.39525 -11.59431,0.4064 -3.77572,-0.006 -7.5514,-0.0149 -11.32711,0.01 -3.46407,0.0123 -6.92816,0.0122 -10.39207,-0.0281 -3.59718,-0.0754 -7.2076,-0.20386 -10.76606,-0.77391 -3.35339,-0.62812 -6.6577,-1.63017 -10.10189,-1.57674 -3.16805,-0.19015 -6.34908,-0.58281 -9.52201,-0.39243 -3.134,0.67193 -6.26058,0.70648 -9.45907,0.76041 -2.95229,0.19274 -5.88445,0.50651 -8.73926,1.3299 -2.86852,0.72411 -5.71581,0.77383 -8.66897,0.71169 -2.48578,0.0894 -4.98126,0.19905 -7.3972,0.8505 -2.49292,0.71701 -4.92822,1.57782 -7.56971,1.24434 -2.49797,-0.10779 -4.99544,-0.29711 -7.44758,-0.81437 -2.82068,-0.60133 -5.58119,-1.56221 -8.5072,-1.3083 -3.156912,-0.0164 -6.313979,-0.006 -9.470918,-0.004 -3.165271,-5.3e-4 -6.33054,10e-4 -9.495814,-0.004 -3.256664,0.0122 -6.513261,0.0112 -9.769919,0.0217 -3.281495,-0.004 -6.566263,-10e-6 -9.843342,-0.19017 -3.373207,-0.2255 -6.711037,-0.67521 -9.94171,-1.72055 -3.260987,-0.96767 -6.670302,-1.50798 -9.444696,-3.66022 -4.528365,-3.24589 -8.466969,-7.2413 -12.370232,-11.19843 0,0 27.223683,-16.34507 27.223683,-16.34507 z"
       inkscape:connector-curvature="0" />
    <path
       style="fill:#00ffff;stroke-width:0.26458332"
       id="path3757"
       d="m 53.488346,245.32388 c 5.312532,0.46916 10.761538,1.92731 16.093088,1.16515 3.301264,-0.93422 6.876248,-0.77729 10.099624,-1.8969 3.047998,-1.5376 6.588393,-0.99994 9.692262,-2.17948 3.458594,-0.69869 6.709354,-1.94932 10.08661,-2.93013 3.64166,-1.28942 7.53964,-1.85386 11.19582,-3.0978 3.65487,-1.08611 7.2509,-2.36151 10.96438,-3.25053 4.13586,-1.56089 8.11138,-3.3727 12.4321,-4.38534 4.18346,-1.55086 8.54337,-2.43814 12.82844,-3.64768 4.28598,-1.28537 8.48288,-2.60532 12.93861,-3.22879 4.09063,-1.40681 8.36505,-1.95514 12.64201,-2.41302 3.75484,-0.28599 7.52507,-0.24279 11.288,-0.23921 3.762,0.46468 7.21648,-0.51279 10.85615,-1.19325 4.09376,-0.67741 8.24856,-0.79481 12.38823,-0.88291 4.28285,-0.0618 8.56634,-0.0469 12.8495,-0.0415 4.12162,-0.40643 8.03953,0.84667 12.05464,1.51408 3.96822,0.31104 7.82475,0.6459 11.72011,1.45986 4.21408,0.71906 8.40102,1.01219 12.54262,2.09355 3.40897,0.91678 6.93897,1.15371 10.45053,1.29497 3.27731,0.0888 6.5563,0.0612 9.83446,0.0625 3.28684,-0.0326 6.57381,0 9.86067,-0.0193 3.38675,0.004 6.77344,0 10.16016,-0.003 3.30195,0.006 6.60376,-0.004 9.90571,0.004 3.6299,-0.43101 6.97741,0.54115 10.4893,1.22589 3.50144,0.47652 6.80307,1.68336 10.25792,2.42636 3.59482,1.27773 7.14711,2.70092 10.82638,3.72761 3.52793,1.36441 7.27168,2.10204 10.84144,3.33111 3.50382,1.17435 6.86707,2.60545 10.44818,3.55248 3.15926,1.56501 6.59755,2.25578 10.07351,2.64109 3.67019,0.2698 7.3546,0.24191 11.03238,0.24615 3.80416,0 7.60804,-0.0336 11.41217,-0.0351 4.00254,0.003 8.00507,0.006 12.00761,0.007 3.68395,-0.0267 7.36804,-0.013 11.05202,-0.007 3.94827,0.0151 7.89649,0 11.84471,-0.008 3.4931,0.0109 6.98613,-0.008 10.47921,-0.005 3.26179,-0.0119 6.52368,0.01 9.78541,-0.006 2.76725,-0.28747 5.88594,0.65294 8.46354,-0.51575 2.56127,-0.94298 5.21251,-1.3879 7.9261,-1.52699 2.73796,-0.5347 5.08386,0.90083 7.67548,1.50262 2.44806,0.44008 4.93273,0.50509 7.41249,0.54017 2.55267,0.008 5.10556,0.0122 7.6582,-0.004 2.78474,-0.005 5.56956,0.008 8.35428,-0.005 2.64734,-0.003 5.29465,-0.007 7.94199,-0.003 2.80832,0.008 5.61666,8e-5 8.425,0.003 3.50591,-0.24853 6.84046,0.94006 10.25991,1.54784 3.36899,0.49117 6.78013,0.55983 10.17862,0.60769 3.49496,0.38555 6.7005,-0.97057 10.11063,-1.50794 3.49094,-0.52078 7.01358,-0.59155 10.53523,-0.62749 3.71592,0.37185 7.16151,-0.96699 10.7887,-1.52275 3.70536,-0.0667 7.06867,-1.5258 10.69491,-2.13215 3.33989,-0.10205 6.3799,-1.1095 9.58035,-1.90616 2.98173,-0.64918 6.02277,-0.80836 9.06389,-0.8735 2.98228,-0.0459 5.96461,-0.004 8.94699,-0.008 2.97259,0.004 5.94527,0.0196 8.91783,0.007 2.85946,-0.003 5.719,0.0124 8.57846,-8e-5 2.84951,-0.003 5.69907,0.0124 8.54855,-1.1e-4 3.1011,-0.38619 5.84568,0.49374 8.7843,1.30321 2.81945,0.6577 5.71704,0.75893 8.59816,0.82984 3.48232,-0.16423 5.84849,0.0341 9.19147,0.9294 3.06372,0.68125 6.03189,1.1109 9.02018,2.07608 3.3402,0.72376 6.61439,1.82692 9.74661,3.21079 3.20609,1.33787 6.51097,2.43467 9.82631,3.49499 3.33015,1.04669 6.58704,2.20075 10.05715,2.76508 3.54206,1.44915 7.30729,1.97528 11.09038,2.29547 3.76751,-0.0976 7.32949,1.08011 10.99625,1.7802 3.25638,0.51081 6.56275,0.5406 9.85136,0.57978 3.35547,0.36039 6.40353,-0.99827 9.67867,-1.51789 3.07187,-0.53686 6.20403,-0.61161 9.3155,-0.64063 2.79411,-0.038 5.58858,-0.008 8.3829,-0.0164 2.12037,-0.26468 4.82399,0.69655 6.62953,-0.56385 2.04042,-1.05021 4.26408,-1.29572 6.50852,-1.51773 1.88483,-1.38753 4.10138,-1.74635 6.35285,-2.07648 1.97353,-0.15253 3.94708,-0.17832 5.92498,-0.15001 1.94992,-0.15635 4.14774,0.54237 5.85322,-0.51713 2.5038,-1.64611 4.18039,-0.74957 6.79291,-0.13161 2.17712,0.62373 4.43539,0.29401 6.4988,1.21907 2.29724,0.93041 4.70802,1.31982 7.15827,1.54276 2.03592,0.11218 4.07483,0.0818 6.11254,0.0735 1.8442,-0.0188 3.68845,-0.006 5.53265,-0.0262 1.55736,-0.003 3.11478,0.003 4.67209,-0.01 1.12369,0.005 2.24777,-0.0161 3.37143,-0.003 13.03861,-0.7221 -36.69194,21.24975 -24.07558,13.55651 12.5281,-7.67651 19.3149,-16.74278 31.38657,-15.76789 0.53607,0.0347 1.07347,0.0546 1.60621,0.1247 0.58883,-0.0965 1.20009,-0.0574 1.79853,-0.0668 0.21151,-0.013 0.41807,-0.0127 0.62918,5e-5 0.74372,1.6e-4 1.48719,0.008 2.23086,0.0109 1.03613,0.13345 1.38533,2.20361 2.22028,2.56413 0.14909,0.0644 0.24172,-0.27236 0.40415,-0.27213 0.4423,0.0822 0.87418,0.0818 1.30087,0 0.0684,-0.042 0.27567,-0.16433 0.20524,-0.12586 -50.70237,27.6869 -20.30637,10.73206 2.26211,-2.3546 1.0918,-0.34407 2.16897,0.006 3.26528,0.16473 0.51644,0.22185 0.80674,0.0413 1.29251,0.0319 0.46797,-0.003 0.93589,-0.008 1.40356,-0.0241 0.47051,0.005 0.94343,0.0111 1.41518,0.008 0.27578,0 0.55144,-0.007 0.82714,-0.0132 0.4186,0.75967 0.88072,1.49691 1.25579,2.27896 0.68168,1.42134 -0.84285,0.0431 0.19108,0.16571 0.93663,1.14705 1.42508,2.39194 1.51713,3.86416 0,0 -29.23506,13.02613 -29.23506,13.02613 v 0 c 0.42857,0.18245 1.30381,0.75879 0.89289,0.57001 -1.14432,-0.91839 -3.21268,-4.92074 -0.5633,-1.05666 -0.26358,-0.006 -0.52718,-0.0116 -0.79086,-0.0127 -0.48208,-0.003 -0.96518,0.005 -1.44611,0.01 -0.46564,-0.0185 -0.93155,-0.0291 -1.39732,-0.0441 -0.48606,-0.0246 -0.88596,-0.23977 -1.37771,-0.13872 -0.91535,0.0397 -1.60711,0.38658 -2.43491,0.76057 8.77803,-5.24711 17.51904,-10.55669 26.33411,-15.74133 0.48832,-0.28721 -0.44929,1.13443 -0.94144,1.41504 -28.166,16.06071 -18.06114,19.1084 -28.84273,15.733 -0.59068,-0.26151 -1.20772,-0.46643 -1.76839,-0.79346 -0.47356,-0.32107 -1.84825,-2.19369 -1.87228,-1.20928 -0.75345,0.003 -1.50669,0.0108 -2.26017,0.0114 -0.2158,0.0119 -0.42656,0.0148 -0.64244,8e-5 -0.6446,-0.014 -1.29762,0.0159 -1.93389,-0.0919 -0.47355,0.005 -0.94782,-0.003 -1.42116,0.0217 -0.7948,0.0796 -1.52402,0.4382 -2.29269,0.65013 8.87238,-5.0764 17.74476,-10.15283 26.61714,-15.22926 -10.16291,6.17358 -19.60375,17.05959 -31.63065,16.77157 -1.12088,0.013 -2.24216,-0.008 -3.36304,-0.003 -1.54887,-0.0119 -3.09785,-0.003 -4.64672,0 -1.84375,-0.0108 -3.68744,0.0167 -5.53114,-0.003 -2.11307,-0.0279 -4.23201,-0.10864 -6.3247,-0.42154 -2.52905,-0.43783 -4.96904,-1.17617 -7.41942,-1.92873 -2.14064,-0.14094 -4.24418,-0.53097 -6.3395,-0.98208 -2.20247,-0.31425 -3.87175,0.78097 -6.01334,1.20258 -2.09445,-0.0547 -4.18955,-0.0498 -6.28447,-0.0193 -1.86335,0.0688 -3.74287,0.16095 -5.5577,0.62376 -2.18755,0.573 -4.17949,1.78181 -6.46221,1.9345 -2.16146,0.41574 -4.16976,1.29071 -6.31537,1.76336 -2.35442,-0.10718 -4.71268,-0.0462 -7.06908,-0.0731 -2.7632,-0.0188 -5.5268,-0.013 -8.28919,0.0658 -3.01746,0.14193 -6.03059,0.37944 -8.98951,1.0242 -3.35211,0.73232 -6.63127,1.38116 -10.09258,0.99211 -3.40699,-0.12488 -6.83022,-0.29572 -10.16918,-1.03854 -3.56807,-0.76427 -7.11449,-1.47061 -10.77833,-1.57872 -3.85035,-0.50913 -7.57817,-1.43181 -11.30784,-2.49843 -3.48277,-0.83881 -6.84827,-2.03523 -10.26816,-3.09126 -3.32611,-1.15721 -6.69796,-2.19985 -9.91151,-3.65191 -3.1773,-1.11151 -6.34129,-2.21298 -9.62848,-2.96145 -2.92528,-0.81392 -5.98588,-1.00235 -8.89915,-1.89992 -2.91708,-0.54949 -5.89325,-0.23538 -8.84703,-0.45715 -3.04419,-0.1759 -6.07693,-0.52536 -9.01864,-1.36864 -2.75543,-0.68154 -5.48304,-0.75837 -8.31964,-0.63325 -2.84951,-0.0127 -5.69913,0.003 -8.54866,5e-5 -2.85901,-0.013 -5.7181,0.003 -8.57713,-0.004 -2.96855,-0.0172 -5.93725,-0.01 -8.90585,-0.0185 -2.95648,-0.0132 -5.91571,-0.004 -8.86923,0.1374 -2.9192,0.20682 -5.82538,0.55991 -8.64473,1.38422 -3.17884,0.85323 -6.43461,1.0908 -9.65417,1.75117 -3.56111,0.85553 -7.08488,1.70937 -10.74248,2.06666 -3.67353,0.73665 -7.30036,1.35554 -11.07358,1.13538 -3.4326,0.12645 -6.86763,0.35864 -10.24258,1.03685 -3.49083,0.73567 -6.91843,1.37822 -10.51438,0.98825 -3.50959,-0.1264 -7.0295,-0.34645 -10.48044,-1.03603 -3.29522,-0.68043 -6.55849,-1.31625 -9.9478,-1.02809 -2.81096,0.003 -5.62195,-0.005 -8.43291,0.003 -2.64559,0.004 -5.29116,0 -7.93675,0 -2.78808,-0.01 -5.57618,0.01 -8.36422,0.0159 -2.57011,-0.007 -5.14147,0.022 -7.70994,-0.0926 -2.64636,-0.13179 -5.29195,-0.40166 -7.85193,-1.12263 -2.35955,-0.70831 -4.50556,-1.11582 -6.97267,-0.56374 -2.6262,0.43793 -5.15623,1.2392 -7.76526,1.75667 -2.93438,0.0169 -5.86885,-0.0172 -8.80329,-0.004 -3.25631,-0.0159 -6.51277,0.006 -9.76911,-0.006 -3.48903,0.004 -6.97799,-0.0151 -10.46705,-0.005 -3.94107,-0.009 -7.88214,-0.0228 -11.82327,-0.008 -3.67708,0.005 -7.35423,0.019 -11.03128,-0.007 -4.01343,0.003 -8.0269,0.008 -12.04034,0.0228 -3.79843,0.0124 -7.59679,0.007 -11.39526,0 -3.78774,-0.0249 -7.59756,-0.0109 -11.35123,-0.58598 -3.53822,-0.66429 -6.94494,-1.71018 -10.30451,-3.00021 -3.51153,-1.11543 -6.91447,-2.5304 -10.437,-3.61635 -3.65627,-0.97989 -7.22183,-2.18644 -10.82926,-3.32666 -3.58547,-1.17227 -7.12205,-2.50701 -10.7565,-3.52288 -3.37855,-0.8492 -6.71976,-1.82226 -10.17138,-2.34804 -3.37159,-0.66302 -6.71195,-0.88525 -10.1532,-0.71073 -3.30555,0.008 -6.61099,-0.003 -9.9165,0.004 -3.38572,-0.003 -6.77137,-0.006 -10.15708,0.004 -3.28427,-0.0119 -6.56844,0.0309 -9.85271,0.0108 -3.32088,0.004 -6.64456,-0.005 -9.96009,-0.21783 -3.62049,-0.30449 -7.22166,-0.79415 -10.72969,-1.77329 -4.1052,-0.89676 -8.33215,-1.04154 -12.43464,-1.98575 -3.89288,-0.67162 -7.85684,-0.64781 -11.7406,-1.40563 -3.87376,-0.75189 -7.71062,-1.39504 -11.68364,-1.08524 -4.26414,1.3e-4 -8.52951,-0.01 -12.79199,0.12695 -4.06343,0.17285 -8.13109,0.4518 -12.119,1.30167 -3.71617,0.72112 -7.40858,0.86317 -11.19326,0.7154 -3.69983,0.0345 -7.4101,0.0685 -11.08603,0.53941 -4.23293,0.5525 -8.34133,1.61245 -12.50497,2.52285 -4.3202,0.89961 -8.46228,2.38509 -12.73181,3.48615 -4.28115,1.21301 -8.63048,2.17157 -12.84039,3.63665 -4.19584,1.35496 -8.19415,3.26136 -12.466648,4.3924 -3.63542,1.11286 -7.28223,2.17387 -10.920139,3.27964 -3.782592,0.91321 -7.478816,2.07976 -11.205173,3.1927 -3.348199,1.12581 -6.79558,1.85619 -10.200188,2.78969 -3.304579,0.46233 -6.516219,1.18639 -9.712203,2.14432 -3.458993,0.49688 -6.900217,1.18102 -10.392656,1.38879 -5.505079,-0.18653 -10.95272,-1.0669 -16.429439,-1.60702 0,0 25.910902,-18.33748 25.910902,-18.33748 z"
       inkscape:connector-curvature="0" />
    <path
       style="fill:#00ffff;stroke-width:0.26458332"
       id="path3759"
       d="m 112.49806,-610.462 c 0.18571,4.37324 -0.22805,9.46433 1.55827,13.58607 0.12651,0.11845 0.26132,0.48208 0.37952,0.35535 0.20391,-0.21862 0.0269,-0.60436 0.11824,-0.88902 4.27532,-13.32834 -36.820577,23.44345 -23.69183,12.32855 2.693736,-3.12413 5.197827,-6.4032 7.882366,-9.53634 9.071774,-9.25739 26.028384,-16.44231 34.643814,-21.40203 2.732,0.14025 5.10784,0.86373 7.47,2.16897 2.76854,1.17539 4.97307,3.72757 6.75994,6.09524 2.55322,3.53876 4.58775,7.43464 6.52904,11.33514 1.68739,2.71139 3.9592,6.54555 7.54614,6.49209 9.78605,-3.86657 23.88908,-12.0874 -21.55584,12.52263 -0.88622,0.47992 1.65656,-1.15277 2.43083,-1.79793 1.85354,-1.54446 3.59972,-3.41237 5.28365,-5.12599 6.13685,-6.80648 11.94199,-13.89286 18.25401,-20.54315 12.32963,-11.41629 26.84962,-23.93063 44.02667,-25.41193 5.44265,0.45557 9.30154,4.17394 12.40665,8.34424 3.14414,5.06781 5.73157,10.44962 8.23861,15.85246 2.38649,4.61934 4.67148,9.38109 8.05746,13.36203 2.4008,2.77905 5.59788,3.98629 9.19597,3.34199 4.56183,-1.73511 8.93931,-3.87761 13.19708,-6.25967 -8.22565,4.71701 -16.44301,9.4485 -24.67694,14.15103 -0.78317,0.44728 1.53843,-0.94251 2.32427,-1.38507 9.88957,-5.56942 19.70903,-11.26724 29.70118,-16.65043 2.21216,-1.19178 5.47098,-1.40247 7.91327,-1.78243 4.60126,-1.12499 8.50786,0.44959 12.54553,2.53552 4.38896,3.19418 7.464,7.89001 10.50798,12.31535 3.1487,5.34273 6.89438,10.2626 10.92465,14.96079 3.62802,3.64346 6.52052,6.66123 11.87479,4.91144 9.70476,-4.82281 24.13553,-12.94242 -20.06288,11.66866 -0.98539,0.5487 1.89251,-1.22964 2.8026,-1.89583 1.18224,-0.86539 4.68717,-3.73896 5.76678,-4.61634 13.23618,-11.61305 28.79159,-18.82672 44.20555,-27.53488 4.43254,-2.78614 9.21091,-2.79926 14.24157,-2.62857 3.76245,0.12528 7.1664,2.13353 10.97269,1.71699 0.77634,0.7162 6.91727,-2.29601 6.57379,-2.10082 -24.86319,14.12901 -33.82106,19.35279 -23.34607,13.25464 12.54387,-10.20403 27.38644,-15.30687 41.2319,-22.81274 3.55068,-1.77536 7.50385,-2.21202 11.41267,-2.42829 3.32814,-0.27478 6.48428,-1.39981 9.84091,-1.76972 2.96884,-1.44758 6.25713,-1.96842 9.51217,-2.30292 3.64826,-0.4331 6.83162,-0.21266 10.36264,0.65755 3.47054,0.5504 6.42189,2.00328 9.21467,4.08427 3.81207,2.23917 6.65896,5.67202 9.33027,9.11949 2.97302,3.44178 6.18509,6.4311 10.40725,8.19336 0.69453,0.0413 1.38949,0.17166 2.08362,0.124 2.50222,-0.17182 5.4968,-1.33364 7.68125,-2.4745 1.02857,-0.53717 3.95444,-2.42741 2.93998,-1.86409 -7.9048,4.38941 -15.74367,8.89658 -23.6155,13.34488 8.48675,-6.35756 15.77801,-14.11747 23.44082,-21.40705 15.69818,-15.94337 29.19753,-21.92712 50.05173,-33.92354 6.27472,-3.11376 12.49225,-3.4558 19.06288,-1.2895 5.90159,2.36917 9.67209,7.32765 13.23454,12.34705 3.81791,5.89577 6.68867,12.30847 9.68272,18.64131 2.62146,5.87187 4.96065,11.8888 8.5353,17.26044 2.82159,3.34738 4.4867,4.84329 8.74964,3.13909 19.07339,-10.54078 -32.96754,20.413 -18.14605,10.33073 0.8909,-0.60604 1.76413,-1.23774 2.63996,-1.86538 0.90185,-0.6463 1.79533,-1.30424 2.69298,-1.95636 5.5255,-4.38574 11.70728,-7.77455 17.63196,-11.56026 11.91109,-7.67579 4.8124,-3.17022 32.39553,-18.57457 3.47176,-1.93888 6.83255,-2.69064 10.7451,-2.96263 4.92115,-0.34237 9.03608,1.62908 12.61415,4.83246 3.85114,4.34177 7.15615,9.07899 10.11938,14.05457 2.73508,4.21176 5.81321,8.52746 9.83377,11.60875 1.87934,1.15702 4.16801,1.40692 6.12643,0.26345 0.50559,-0.29521 1.94405,-1.30144 1.43319,-1.01538 -8.53112,4.77724 -17.00141,9.66229 -25.50213,14.49343 5.24158,-3.96472 9.40671,-9.26513 13.55193,-14.33071 4.37539,-5.31175 9.43198,-9.9765 14.5628,-14.53721 10.3953,-8.09714 4.12676,-3.36133 30.77763,-17.80857 2.31209,-1.25337 4.64783,1.71929 5.74858,3.19864 2.19112,4.34356 2.08126,9.39862 2.2134,14.15288 -0.0122,4.46787 0.45143,8.97038 1.99972,13.17839 1.93397,3.31381 4.09622,3.43962 7.59454,3.23623 3.85057,-0.78747 8.55007,0.48621 12.0981,-1.36122 0,0 -25.2799,19.38023 -25.2799,19.38023 v 0 c -4.18208,0.2537 -8.36946,0.57548 -12.56072,0.53467 -4.26488,-0.51115 -7.64353,-2.44754 -9.65626,-6.3786 -1.63113,-4.53067 -2.38435,-9.33623 -2.34935,-14.15672 -0.0876,-4.04975 0.0894,-8.40481 -1.39369,-12.22803 -1.4124,-1.43425 -4.14218,0.61127 -3.35211,0.14458 11.5167,-6.80275 35.2461,-20.53169 23.50937,-13.7395 -5.39584,4.21679 -10.31883,9.02327 -14.97336,14.04446 -4.16636,5.17642 -8.45343,10.23397 -12.90761,15.16746 -9.35903,5.39614 -25.58254,23.55799 -38.53932,14.58501 -4.045,-3.60435 -7.405,-8.01361 -10.26731,-12.59585 -2.79281,-4.65027 -5.89262,-9.12216 -9.63478,-13.07075 -3.36603,-2.46098 -6.98436,-3.40328 -11.15399,-2.70693 -2.64152,0.51142 -4.87595,1.28591 -7.32443,2.42027 -0.91109,0.42211 -3.57698,1.82009 -2.71515,1.3048 8.05992,-4.81893 16.21263,-9.48095 24.31894,-14.22143 -0.88522,0.53535 -1.77044,1.0707 -2.65565,1.60606 -5.80748,3.97158 -12.12498,7.07985 -17.69351,11.40269 -12.82359,9.69992 -26.29683,19.98357 -41.89405,24.24254 -4.80925,-0.0186 -7.90434,-2.42884 -10.66675,-6.2821 -3.56299,-5.54015 -5.97205,-11.68748 -8.62817,-17.69604 -2.95032,-6.14229 -5.69233,-12.4024 -9.43621,-18.12265 -3.26702,-4.42559 -6.64191,-8.85579 -12.14294,-10.50431 -6.22829,-1.3075 -11.90805,-0.0193 -17.45991,3.09283 44.7635,-26.22594 23.97308,-14.94681 15.41582,-8.45646 -4.33623,3.28885 -8.07122,7.29737 -12.1787,10.8487 -7.74639,7.16309 -14.92808,14.93212 -23.0229,21.71822 -10.05673,5.97963 -20.05486,12.05892 -30.17017,17.9389 -4.44291,2.58265 -9.73786,3.74463 -14.63141,1.92857 -4.37075,-2.34309 -7.99269,-5.62462 -11.16494,-9.43178 -2.54375,-3.19577 -5.29849,-6.20151 -8.89005,-8.25135 -2.63885,-1.62383 -5.47643,-2.51023 -8.53191,-3.02352 -3.22607,-0.52352 -6.51312,-0.20605 -9.73648,0.24904 -3.21332,0.60681 -6.28029,1.6883 -9.48267,2.29724 -3.31034,0.62565 -6.55492,1.601 -9.95447,1.63533 -3.7225,0.49277 -7.30525,1.39474 -10.56534,3.34616 -11.17741,5.7009 -35.05939,17.61619 13.07721,-8.40743 -12.38054,7.1654 -23.82141,18.96711 -38.60228,18.83128 -3.65006,-0.53487 -7.19005,-1.79695 -10.91412,-1.68937 -4.79205,0.0672 -9.05237,1.24156 -13.22221,3.69007 8.12962,-4.73773 16.27656,-9.44583 24.38885,-14.2132 0.94249,-0.55389 -1.93988,1.0113 -2.87833,1.57201 -0.15131,0.0904 -5.90933,3.82869 -6.00427,3.89942 -2.02231,1.50679 -3.74493,3.39091 -5.81636,4.83855 -12.98374,10.42985 -26.59287,21.8319 -43.13843,25.54287 -5.72426,-0.1993 -9.80422,-3.37584 -13.491,-7.59445 -4.07157,-4.8051 -7.84439,-9.83467 -11.13951,-15.21048 -2.73521,-3.96362 -5.47381,-8.33276 -9.69756,-10.84214 -3.82651,-1.58658 -7.27145,-2.06827 -11.34957,-0.94694 -2.09304,0.48276 -2.87308,0.60008 -4.91948,1.33066 -0.84958,0.30331 -3.28144,1.48025 -2.50909,1.01414 8.13066,-4.90693 16.4139,-9.55652 24.61048,-14.35252 0.7801,-0.45645 -1.57385,0.88915 -2.36077,1.33372 -9.82535,5.68706 -19.65068,11.37412 -29.47601,17.06117 -4.49799,2.25337 -9.10409,4.85044 -14.22698,5.14445 -4.33081,-0.54291 -7.9513,-2.21872 -10.67761,-5.75693 -3.4309,-4.29875 -5.97125,-9.19131 -8.41702,-14.10093 -2.35068,-5.213 -4.87181,-10.35856 -7.90994,-15.21161 -2.71161,-3.38128 -5.88958,-6.21394 -10.52524,-5.53399 -10.48104,2.45702 -24.45355,12.90473 19.11888,-12.49456 1.0035,-0.58497 -2.03537,1.13067 -2.97852,1.80865 -0.97292,0.69938 -5.10308,4.35032 -5.90658,5.05274 -6.41071,6.51311 -12.31034,13.4539 -18.17856,20.45201 -10.44704,11.78575 -25.03528,25.82823 -41.38972,24.58024 -3.97765,-1.80556 -6.83683,-5.02326 -8.89315,-8.85441 -1.83328,-3.71316 -3.79569,-7.4155 -6.29397,-10.72743 -1.66251,-2.04091 -3.54041,-3.87789 -6.0514,-4.80928 -1.81994,-0.71756 -4.05039,-1.05494 -5.6678,0.2601 47.44936,-27.42723 29.45982,-17.68038 19.43867,-10.93499 -2.77455,3.04164 -5.43087,6.19558 -7.8513,9.52841 -7.09049,10.42469 -25.000807,27.40486 -33.900567,16.12338 -1.859616,-4.55322 -1.631331,-9.92195 -2.052193,-14.74772 0,0 28.28575,-14.41231 28.28575,-14.41231 z"
       inkscape:connector-curvature="0" />
    <path
       style="fill:#00ffff;stroke-width:0.26458332"
       id="path3765"
       d="m 625.45936,-483.88852 c -1.19211,8.39562 -1.66611,16.83831 -1.28178,25.30376 0.58761,8.43508 0.97814,16.87872 1.13755,25.33236 0.14724,9.59247 0.15634,19.18676 0.14079,28.78018 -0.41331,9.27823 -1.21322,18.53102 -1.66079,27.80835 -0.23218,6.23869 -0.35259,12.48291 -0.31724,18.72596 -0.0298,3.97227 0.28914,7.94218 -0.40799,11.8686 -0.49326,2.35037 -1.08452,4.68442 -1.3943,7.06877 0.1446,1.87227 -0.8052,3.25458 -1.5304,4.84198 -0.2894,1.4872 -0.99925,2.62141 -2.08994,3.69488 -0.59013,1.80491 -1.55917,3.434 -2.25563,5.20107 -0.57767,1.86984 -0.69387,3.82495 -0.73832,5.76818 -0.0484,1.23021 -0.0306,2.46203 0.0111,3.69213 0.0214,0.10295 -0.0269,0.20855 -0.0404,0.31282 -5.15387,-10.06174 10.4662,-7.96137 -27.67171,12.68947 -0.25607,0.13864 0.47847,-0.33198 0.72062,-0.49369 0.75279,-0.50273 0.52551,-0.35158 1.4193,-0.80073 9.66063,-6.57514 2.45843,-1.6977 28.84451,-16.96175 0.28209,-0.1632 1.20147,-0.49559 0.91958,-0.33206 -8.76112,5.08342 -35.3155,19.85132 -26.37041,15.09917 37.85335,-20.1099 18.04479,-11.96904 29.72197,-16.73257 2.70139,-0.83047 5.51111,-0.78131 8.30408,-0.86524 3.45583,-0.0259 6.91184,0.01 10.36767,0.0243 4.12552,0.006 8.25103,0.0233 12.37657,0.0259 4.85005,0.006 9.70016,0.009 14.55018,0.0262 5.30826,-0.005 10.61649,-0.004 15.92474,-0.003 4.33607,-0.0151 8.67207,-0.0333 13.00819,-0.0328 4.17788,0.42738 8.13139,-0.47786 12.20782,-1.17581 4.12763,-0.94766 8.4944,-0.25082 12.55586,-1.368 3.4137,-0.83524 6.9697,-1.87643 10.46503,-1.17927 2.70296,0.77642 5.44852,1.207 8.24315,1.43888 2.46896,0.44201 4.44862,-0.85066 6.75682,-1.53818 1.99314,-0.40016 3.99259,-0.54317 6.02028,-0.52732 1.12879,0 2.25803,-0.0356 3.38672,-0.008 -0.15462,0.0543 0.32186,-0.0262 0.2518,0.0206 -19.3956,12.93942 -18.89368,21.9937 -32.69411,16.78831 0,0 26.26373,-17.87456 26.26373,-17.87456 v 0 c 14.20686,3.58606 7.53465,-0.14047 -19.75797,19.87203 -1.06259,0.005 -2.1259,0.009 -3.18667,0.0804 -1.87862,0.19187 -3.74946,0.51226 -5.54143,1.12644 -2.51299,0.72858 -4.86873,1.05444 -7.48398,0.50495 -2.72402,-0.37594 -5.38205,-1.1014 -8.11964,-1.35895 -3.37404,0.32784 -6.65821,1.13054 -9.98283,1.76178 -4.18828,0.33068 -8.39595,0.52337 -12.52919,1.34202 -4.16565,0.7049 -8.31977,0.93117 -12.54664,0.76073 -4.30604,0 -8.61195,-0.0177 -12.91794,-0.0327 -5.30622,0.003 -10.61241,0.003 -15.91863,-0.003 -4.87318,0.0172 -9.7464,0.0206 -14.61958,0.022 -4.1362,-0.003 -8.27251,0.008 -12.40861,-0.008 -3.44752,0.003 -6.89846,-0.0251 -10.34238,0.1565 -2.63364,0.17976 -5.24272,0.55388 -7.59836,1.8316 -8.62756,4.29864 33.52454,-19.03491 25.0121,-14.51255 -9.61859,5.11003 -18.90586,10.82074 -28.34897,16.24825 -0.26593,0.15285 -1.04217,0.64733 -0.7774,0.49241 26.48855,-15.49863 34.03026,-22.15692 25.65379,-14.84651 -0.68138,0.66514 -1.26481,0.97446 -2.09201,1.43039 -20.4625,11.27818 -22.55763,24.2107 -30.48717,13.77114 -0.0452,-0.19949 -0.10414,-0.38396 -0.0583,-0.60362 0.0148,-1.27804 0.0319,-2.55622 0.0185,-3.83434 0.058,-2.15646 0.048,-4.33258 0.44027,-6.46044 0.34785,-2.03994 1.22081,-3.74764 2.03229,-5.5463 0.11377,-0.74581 0.61754,-2.45158 1.32948,-2.91039 0.17989,-0.11594 0.47374,0.16354 0.64132,0.0304 0.1854,-0.14724 0.12269,-0.45734 0.18405,-0.68599 0.16261,-0.58399 0.22315,-1.20293 0.46857,-1.75723 0.27136,-0.61288 1.09623,-1.05944 1.34091,-1.63631 0.10287,-0.24249 0.0435,-0.52504 0.0652,-0.78756 0.23239,-2.50214 0.68197,-4.97668 1.37501,-7.39635 0.9071,-3.75846 0.89252,-7.48403 0.80521,-11.35748 0.0991,-6.3232 0.12089,-12.64872 0.48162,-18.96488 0.46358,-9.25526 1.29082,-18.48366 1.85539,-27.73222 -0.0267,-9.56125 -0.01,-19.12319 -0.18518,-28.68332 -0.20669,-8.41997 -0.51602,-16.83613 -1.13504,-25.23753 -0.44928,-8.56814 0.01,-17.07357 0.78428,-25.61639 0,0 28.4049,-14.07931 28.4049,-14.07931 z"
       inkscape:connector-curvature="0" />
    <path
       style="fill:#00ffff;stroke-width:0.26458332"
       id="path3767"
       d="m 624.37605,-481.64921 c 6.4571,1.1066 13.05734,0.90969 19.50886,1.95471 5.1544,1.07454 10.3917,1.52522 15.64087,1.77808 5.21952,0.0283 10.33677,0.0969 15.484,0.96299 4.92871,0.79053 9.91357,1.07769 14.89628,1.23718 4.34054,-0.80484 8.69543,-1.44215 13.09685,-1.7847 3.87315,-0.24859 7.75356,-0.30859 11.63341,-0.31558 3.10274,-0.0147 6.20564,-0.0137 9.30841,-0.002 2.05618,-0.35754 5.1839,0.84081 6.80876,-0.62305 2.37681,-0.78792 3.97444,-1.09368 6.06235,-2.52105 0.91858,-0.65777 2.2992,-0.46299 3.2607,-0.88636 0.32803,-0.14442 0.51062,-0.51188 0.81449,-0.70191 0.65508,-0.40968 1.40888,-0.63473 2.11217,-0.95462 21.54303,-8.45417 -85.89648,47.01695 4.84288,-2.31468 1.4056,-0.73776 3.15304,-0.6232 4.71403,-0.64281 0.3071,0.008 0.63502,0.13666 0.92133,0.0252 0.26786,-0.10425 0.36123,-0.46013 0.6015,-0.61788 1.17526,-0.77158 2.71767,-0.94524 4.05538,-1.22471 2.11674,0.0925 3.46186,-1.18406 5.2942,-2.11397 0.11354,0.11083 1.17145,-0.77316 1.27588,-0.67416 0.0469,0.0445 1.77813,2.64562 1.7816,2.38562 1.71299,0.94707 1.54508,3.3036 1.1295,4.88679 -0.54012,2.36418 -0.64013,4.78867 -0.74073,7.20204 -0.49683,3.81702 -1.36702,7.55939 -1.79596,11.39289 -0.16671,4.9288 -1.02203,9.7775 -1.70233,14.65023 -0.68903,5.58248 -0.83368,11.21035 -0.91826,16.82833 -0.0849,6.10746 -0.0641,12.21566 -0.0311,18.32343 -0.0109,5.31963 0.0225,10.63927 0.0407,15.95887 -0.007,4.92856 -0.01,9.85708 0,14.78566 -0.01,4.13353 0.0392,8.26675 0.043,12.4002 -0.22675,2.48335 0.70866,4.73475 1.40499,7.05543 0.45117,1.45127 0.6804,2.96702 0.78394,4.48059 0.0809,1.43116 0.0307,2.86475 0.0288,4.29713 -0.0169,2.03348 -0.033,4.06725 -0.023,6.10084 0.25548,1.84592 0.97931,3.62278 1.55559,5.39776 0.3737,1.34504 0.54473,2.72696 0.60463,4.11745 0.0589,0.93054 0.0238,1.86113 0.0265,2.79241 0,0.40513 0.0103,0.81013 0.0225,1.21505 -39.70761,20.17987 -22.72099,21.76557 -29.94226,10.53975 0,0 27.51505,-16.09468 27.51505,-16.09468 v 0 c 8.36266,12.50839 -4.33223,10.21302 -26.14798,20.09553 0.0161,-0.41426 0.0297,-0.82863 0.0352,-1.2432 0.0116,-0.90969 -0.004,-1.81856 0.0309,-2.72791 0.003,-1.12522 -0.004,-2.25086 -0.18836,-3.36523 -0.57333,-2.10625 -1.27434,-4.16608 -1.94424,-6.24174 0.0122,-2.03155 0,-4.06323 -0.006,-6.09478 0.007,-1.38811 -0.014,-2.77614 0.003,-4.16422 -0.003,-1.28651 -0.0561,-2.59263 -0.38582,-3.84144 -0.67789,-2.60233 -1.88195,-5.14868 -1.69389,-7.8886 0.004,-4.14806 0.0531,-8.29588 0.0432,-12.44402 0.01,-4.92794 0.008,-9.8558 -0.003,-14.78367 0.0145,-5.32908 0.0416,-10.65821 0.0193,-15.98729 0.0212,-6.12555 0.0161,-12.25105 0.0359,-18.37661 0.0669,-5.7114 0.10242,-11.43418 0.71853,-17.11954 0.53451,-4.85538 1.67439,-9.62631 1.65444,-14.53009 0.31117,-3.75674 0.74573,-7.51836 1.80858,-11.14882 0.029,-2.54416 0.0643,-5.10871 0.43913,-7.62832 0.35494,-2.79399 1.41928,-0.8652 0.32218,-2.07655 -1.143,-1.48284 -0.69074,-0.92416 -0.38364,-0.46031 1.13305,1.71121 0.95657,1.23643 -0.39571,1.9006 -1.86865,0.84681 -3.63961,1.22689 -5.64483,1.60392 -1.99176,0.62793 -3.78916,1.61593 -5.93545,1.42022 -1.44868,0.25017 -2.68307,0.85061 -3.8756,1.69137 -10.4036,5.92853 26.51774,-15.10937 25.7546,-14.87226 -9.74601,3.0282 -20.16083,12.21042 -30.71514,16.98047 -2.02348,0.95744 -4.15787,1.50965 -6.08295,2.68537 -2.09452,0.84377 -4.38499,1.20241 -6.50939,1.97942 -2.41112,-0.1921 -4.83534,-0.072 -7.25233,-0.12419 -3.08496,0.003 -6.16982,-0.0163 -9.25476,-5.3e-4 -3.81322,0.053 -7.6314,0.12906 -11.42939,0.50144 -4.44098,0.48481 -8.84751,1.4345 -13.32566,1.41915 -5.0505,-0.26832 -10.08737,-0.72604 -15.08572,-1.51666 -5.08005,-0.66804 -10.19857,-0.43327 -15.3067,-0.74505 -5.27857,-0.38555 -10.5179,-1.04895 -15.72334,-2.0151 -6.52095,-0.72955 -13.08597,-1.04406 -19.6024,-1.84049 0,0 25.91091,-18.33746 25.91091,-18.33746 z"
       inkscape:connector-curvature="0" />
    <path
       style="fill:#00ffff;stroke-width:0.26458332"
       id="path3769"
       d="m 732.94424,-466.07765 c 4.60666,-6.27546 9.72841,-12.13208 14.15177,-18.54048 3.79743,-5.30445 7.39868,-10.72383 10.69335,-16.3547 2.47285,-4.09402 5.04912,-8.11972 7.41984,-12.27489 1.70744,-3.13626 3.17426,-6.39734 4.8677,-9.53906 1.15649,-2.2462 2.48378,-4.38791 4.07471,-6.34961 8.70908,-8.82783 17.7903,-11.51968 30.86357,-18.82809 8.56107,-4.78594 -33.1298,20.81357 -25.5583,14.57903 1.42872,-1.01787 2.92492,-1.89416 4.30739,-2.97941 0.65421,-0.52444 0.30226,-0.4493 0.89741,0.60029 0,0 28.67197,-14.28631 28.67197,-14.28631 v 0 c 0.52795,1.55144 0.83643,1.06175 0.0774,1.73454 -1.35903,1.17742 -2.63861,2.46013 -4.27162,3.25167 -9.50047,5.45443 -26.31845,15.10488 -28.97505,17.10238 -8.11067,6.09846 17.55386,-10.18626 26.33078,-15.2794 -0.36145,0.14024 -0.75097,0.22279 -1.08434,0.4207 -0.66466,0.39459 -1.10038,1.10985 -1.77001,1.49819 -1.88722,1.45462 -3.46964,3.43707 -4.47919,5.60125 -1.91365,3.0387 -3.33663,6.31734 -5.02571,9.48098 -2.16429,4.32086 -4.78811,8.40019 -7.50175,12.39395 -3.16942,5.79878 -6.75458,11.33915 -10.697,16.64277 -4.31657,6.42826 -9.24431,12.31452 -13.89081,18.50468 0,0 -29.10216,12.62152 -29.10216,12.62152 z"
       inkscape:connector-curvature="0" />
    <path
       style="fill:#00ffff;stroke-width:0.26458332"
       id="path3771"
       d="m 602.31543,-474.47899 c 3.28464,-5.23837 7.11758,-10.10642 11.34062,-14.61422 2.89373,-3.23973 6.50375,-5.6753 9.80253,-8.46383 3.22865,-2.67529 6.24112,-5.63357 9.20633,-8.59988 3.22112,-3.33648 6.32275,-6.78545 9.63721,-10.03041 2.87687,-2.79296 6.05565,-5.2329 9.13305,-7.79393 2.65956,-2.26235 5.17461,-4.6843 7.67797,-7.11585 2.15,-2.12433 4.29159,-4.25716 6.41207,-6.41099 1.58419,-1.47947 3.32401,-2.70641 4.99618,-4.03729 0.99055,-0.76012 0.90543,-2.52146 1.88111,-0.78863 4.37205,12.52764 28.80397,-24.95231 28.23704,-12.86638 -0.0389,0.49638 -0.0711,0.96521 -0.061,1.47016 -0.0608,0.35494 0.2607,2.03452 -0.14655,1.17123 0.82114,0.0793 1.76345,-0.0879 2.70629,-0.0778 2.49166,-0.006 4.98335,-0.003 7.47504,0.003 3.56997,-0.15243 7.02868,-1.30797 10.59812,-1.74407 3.45908,-0.54135 7.06054,0.0732 10.43596,-0.85261 3.51975,-0.89731 7.10544,-1.36115 10.72523,-1.55591 3.03295,-0.17962 6.07343,-0.15384 9.11042,-0.17082 2.70712,0.006 5.41425,0.0268 8.12134,0.0195 2.71134,0.30714 5.0334,-1.06652 7.65442,-1.58414 2.49896,-0.10588 4.38295,-0.84725 6.52121,-2.05151 1.50699,-0.9881 2.97667,1.22498 4.54485,1.34767 0.62328,0.45032 1.67529,-0.15399 2.28571,0.15552 0.6087,0.30863 1.06876,0.86073 1.6682,1.18699 1.19436,0.7611 2.5396,0.99814 3.94145,0.96047 1.79011,0.0133 3.58055,-0.009 5.37083,-0.009 1.71775,-0.01 3.43564,-0.037 5.15342,-0.0276 1.65023,-7.9e-4 3.30046,0.003 4.9507,-10e-4 1.35014,0.008 2.70055,-0.02 4.05061,-0.007 1.75863,-0.22425 2.5405,0.23318 3.86683,1.38841 0.73993,0.96489 1.2451,0.81903 2.3495,0.93693 0.37272,0.11059 0.52515,-0.0327 0.69318,-0.16823 -0.78531,-1.53675 1.29247,1.85063 1.27596,3.39183 0.10496,1.04811 -1.25902,-0.99099 0.10279,-1.1435 1.44645,-0.17036 0.30755,-0.78297 1.89396,2.02766 -0.38846,-0.73813 0.85225,0.36881 1.17057,0.56294 0.0539,0.0488 0.14185,-0.0318 0.21278,-0.0477 1.07738,1.47052 0.87691,1.90659 0.89466,3.31111 0,0.86534 -0.0153,1.73079 -0.0169,2.59623 0.008,1.70662 -0.034,3.413 -0.0322,5.11968 -0.0198,2.79563 -0.0204,5.5912 -0.0374,8.3869 -0.0238,3.92711 -0.0296,7.8543 -0.0339,11.78147 -0.20391,3.85323 -1.18039,7.5963 -1.65997,11.41746 -0.4204,4.02721 -0.44921,8.081 -0.48382,12.12578 -0.3539,4.34049 -1.23946,8.60799 -1.6891,12.94128 -0.78073,4.33499 -1.51942,8.68039 -2.31314,13.01423 -1.07114,3.89476 -1.55197,7.90132 -2.25685,11.86621 -0.82494,3.09656 -1.54566,6.19912 -1.94995,9.37882 -0.27789,2.62674 -0.28162,5.26877 -0.30945,7.90658 -0.0432,3.09159 0.01,6.18314 0.0164,9.27469 0.005,2.59167 0.003,5.18355 0.0243,7.77515 0,2.39323 -0.003,4.78642 -0.0114,7.17963 -0.0148,2.79045 -0.003,5.58096 -0.008,8.37141 -0.003,2.64591 -0.005,5.29207 0.0182,7.93792 0.007,1.88225 0.003,3.76481 0.0304,5.64693 -0.007,1.54067 0.006,3.08099 -0.0124,4.62166 -0.26762,1.81589 0.36751,3.18863 1.0132,4.8264 0.56898,1.32892 0.82081,2.76307 1.05238,4.182 0.0999,0.87458 0.1085,1.75604 0.13919,2.63496 0.20032,1.44944 -0.0802,2.34781 -0.98131,3.43022 -0.7367,0.53427 -0.76165,-1.03407 -1.1109,0.74977 -0.17074,0.65286 -0.0241,1.21023 0.0598,1.92112 -0.3161,0.87399 -0.8872,1.65002 -1.73789,2.02909 -1.01822,0.83846 -1.9739,1.75003 -2.9124,2.67594 -1.46518,1.4302 -2.90645,2.88464 -4.36173,4.32493 -1.90747,1.90807 -3.82419,3.8068 -5.72101,5.72548 -1.91542,1.74911 -3.52518,3.85484 -5.6275,5.3803 -1.97541,1.50741 -3.38077,3.52494 -4.97123,5.38051 -1.14451,1.85582 -2.6439,3.40929 -3.89554,5.19298 -0.72575,0.97451 -1.50942,1.90336 -2.26489,2.85441 2.48105,4.05976 -24.08425,22.80792 -30.15017,12.68327 -0.48937,-0.81684 -0.33668,-0.73292 -1.0211,-1.15284 0,0 27.13143,-16.91232 27.13143,-16.91232 v 0 c 9.45877,9.57519 -8.43547,10.11433 -25.48342,17.80939 0.86251,-0.86601 1.65155,-1.80184 2.45808,-2.71904 1.44277,-1.63113 2.55394,-3.51878 3.99465,-5.07683 1.30765,-2.18691 2.96672,-4.11721 4.69866,-6.02141 1.70429,-1.86317 4.11334,-3.10671 5.67626,-5.21764 1.92022,-1.89939 3.82125,-3.81794 5.73014,-5.72868 1.42232,-1.43896 2.85726,-2.86533 4.27672,-4.30707 0.94459,-0.93924 1.86651,-1.89965 2.81586,-2.834 0.4514,-0.69578 1.24103,-1.04625 2.0406,-1.27696 1.09119,0.8364 0.5298,0.2613 0.59671,-0.44792 0.0167,-0.91929 -0.18492,-2.54867 0.0614,-3.11303 0.39251,-0.19066 1.10873,-0.76668 1.55093,-0.71258 0.22032,0.027 0.38407,0.33137 0.60135,0.28602 0.1334,-0.0278 -0.009,-0.27239 -0.014,-0.4086 0.0449,-0.76901 0.0427,-1.53895 0.0595,-2.30881 -0.0553,-1.17983 -0.16695,-2.38797 -0.59134,-3.49705 -0.71372,-1.92598 -1.83727,-3.72509 -1.56269,-5.85583 -0.0188,-1.53644 -0.006,-3.07253 -0.0124,-4.60897 0.0271,-1.89243 0.0238,-3.78528 0.0304,-5.67785 0.0228,-2.65208 0.0209,-5.30447 0.0183,-7.95657 -0.005,-2.78784 0.007,-5.5757 -0.008,-8.36348 -0.01,-2.38909 -0.0106,-4.77811 -0.0116,-7.1672 0.0214,-2.59667 0.0175,-5.19369 0.0151,-7.79041 -0.003,-3.09655 0.0325,-6.19316 -0.0124,-9.2896 -0.0175,-2.73058 -0.042,-5.46868 0.16758,-8.19272 0.26615,-3.31785 0.82947,-6.58175 1.82613,-9.76383 1.14348,-3.85388 1.05315,-8.00892 2.3259,-11.85653 1.08101,-4.15692 1.22158,-8.52523 2.47978,-12.65994 0.35174,-4.26774 0.96965,-8.493 1.80763,-12.69326 0.0146,-4.13271 0.0185,-8.2703 0.30901,-12.39494 0.33589,-3.76501 1.05085,-7.43859 1.84134,-11.13021 -0.004,-3.91568 -0.0101,-7.83137 -0.0338,-11.74698 -0.0172,-2.78301 -0.0175,-5.5659 -0.0372,-8.34885 0.003,-1.69458 -0.0403,-3.38882 -0.0336,-5.08335 -0.003,-0.84717 -0.0177,-1.69428 -0.0309,-2.54127 -0.003,-1.05961 -0.48313,-3.01625 0.93022,-0.1315 -0.16195,-0.21146 -0.34224,-0.39604 -0.55933,-0.55463 -0.93258,-0.78749 -1.83393,-1.5968 -2.41046,-2.70008 1.54173,2.25439 1.54345,1.72035 0.24675,1.4331 -1.20412,-0.38228 -2.56601,-1.39088 -2.48409,-2.80177 -0.0124,-3.56448 2.27621,2.68462 1.27142,0.86407 -0.32342,-0.2319 -0.70085,-0.3424 -1.07606,-0.47515 -1.10849,-0.43695 -2.00403,-1.08161 -2.90766,-1.84515 -0.68916,-0.20061 -1.89487,0.51849 -2.80117,0.17069 -1.34313,0.0123 -2.68658,-0.0157 -4.02976,-0.007 -1.64862,-0.004 -3.29721,5.3e-4 -4.94581,0.005 -1.70831,0.0156 -3.41691,0.002 -5.12527,-0.002 -1.88552,-0.001 -3.78785,0.0199 -5.65181,-0.30289 -1.61312,-0.41203 -3.11949,-1.01365 -4.55211,-1.87338 -1.06857,-0.51714 -2.51478,-0.17582 -3.69332,-0.89655 -1.56564,-0.76749 -1.79424,-0.2578 -3.10046,0.52704 -2.22867,0.79539 -4.57343,0.87858 -6.84708,1.5285 -2.68462,0.76202 -5.29989,1.24409 -8.10868,0.98273 -2.70624,-0.0153 -5.41264,-0.009 -8.11885,-10e-4 -2.96944,0.005 -5.94074,0.061 -8.90045,0.32195 -3.55994,0.38972 -7.0581,1.11474 -10.57928,1.75316 -3.48885,0.21223 -6.9994,0.24456 -10.45443,0.83265 -3.60921,0.65164 -7.20109,1.58065 -10.90136,1.38191 -2.57461,0.0136 -5.15774,0.0698 -7.72581,-0.14424 -1.79639,-0.25829 -3.32081,-0.83654 -4.37377,-2.40574 -0.58526,-1.01793 -0.77724,-1.56419 -0.69668,-2.66169 -0.0111,-0.59186 -0.10774,-1.17672 -0.0306,-1.76643 1.22105,-11.82045 23.53291,-27.6417 28.91797,-15.98187 0.0691,0.17066 0.77783,1.67076 0.27948,1.88608 -0.21137,0.0913 -0.44997,-0.26625 -0.66548,-0.18518 -0.42515,0.15995 -0.10572,1.13758 -0.64143,1.20238 -0.10474,0.16766 -1.0228,1.65053 -1.10884,1.72871 -1.14141,1.03709 -3.03106,1.26779 -3.72496,2.9364 -2.61813,1.46866 -4.34763,4.1133 -6.59553,6.07123 -2.49849,2.49635 -5.02169,4.97157 -7.65517,7.32609 -2.98685,2.69355 -6.30735,4.98216 -9.17448,7.7915 -3.63262,2.83328 -6.5178,6.4862 -9.72769,9.77378 -2.89605,3.13316 -6.10095,5.89611 -9.00904,9.02608 -3.50856,2.46287 -6.65776,5.42277 -10.08388,8.00772 -4.07284,4.45533 -8.32226,8.75056 -11.54848,13.91854 0,0 -28.9932,12.92407 -28.9932,12.92407 z"
       inkscape:connector-curvature="0" />
    <path
       style="fill:#00ffff;stroke-width:0.26458332"
       id="path3773"
       d="m 140.67497,-421.17637 c 10.99932,-14.69255 21.5093,-17.18527 40.0318,-27.66084 5.3968,-0.82747 10.33982,1.31332 15.11014,3.58152 4.93075,3.01795 10.12246,5.54557 15.50301,7.64624 6.94035,1.85102 13.25269,-0.41082 19.74271,-2.7069 9.23462,-3.5248 18.15239,-7.81975 27.36684,-11.3864 8.81504,-3.37788 17.92287,-4.1073 27.22165,-3.09192 8.84436,1.38665 17.25372,4.141 25.39479,7.79204 6.91576,3.62712 14.08335,6.81067 21.49541,9.27478 7.20281,2.72462 14.6957,4.39004 22.12734,6.30668 7.70745,1.95398 15.47876,3.59619 23.28677,5.10022 8.53446,1.82631 16.94056,0.51313 25.23636,-1.68069 1.50442,-0.59653 3.04416,-1.11075 4.51326,-1.78964 1.54644,-0.71461 3.02776,-1.56332 4.52022,-2.38474 1.5294,-0.84177 6.05949,-3.47057 4.54393,-2.60411 -42.28661,24.17545 -21.54314,12.3064 -12.27767,6.63699 16.6021,-10.62729 32.77637,-22.44746 51.11766,-29.95597 6.91713,-2.16848 12.45695,-2.21525 18.64743,1.69721 5.41962,3.96578 9.35003,9.47799 13.60549,14.58758 2.76775,2.85734 6.18455,6.80157 10.49173,4.96763 7.21966,-8.88866 1.34676,-1.38305 -25.11062,13.82266 -0.59701,0.34311 1.16541,-0.77036 1.60538,-1.30003 0,0 29.01791,-13.21951 29.01791,-13.21951 v 0 c -3.32369,12.27786 -18.59698,18.53856 -31.05732,19.67418 -5.10981,-0.62476 -8.72029,-3.89536 -11.98872,-7.71544 -3.99864,-4.82891 -7.72578,-10.08681 -13.0538,-13.55362 -5.52929,-2.5808 -11.29781,-1.80961 -16.82578,0.5749 -11.25622,5.32597 -5.85374,2.88979 19.75964,-11.93336 1.31032,-0.75831 -2.57736,1.58898 -3.86813,2.38012 -4.52236,2.77189 -8.83809,5.80177 -13.26086,8.73027 -13.62993,8.28846 -27.16784,16.19501 -41.11072,24.21821 -2.69777,1.55238 -6.5056,3.50115 -9.41578,4.63158 -1.55263,0.60312 -3.1669,1.03365 -4.75036,1.55048 -8.64557,1.93887 -17.36248,2.63332 -26.09855,0.62823 -7.85029,-1.56919 -15.68378,-3.19421 -23.43555,-5.20422 -7.51837,-1.86743 -14.99232,-3.86273 -22.27646,-6.5336 -7.40151,-2.67726 -14.57306,-5.92087 -21.57267,-9.52039 -7.9448,-3.39524 -16.18054,-5.94553 -24.79954,-6.94706 -9.04967,-0.51742 -17.8316,0.65823 -26.26087,4.18216 -9.19819,3.76846 -18.21923,7.98531 -27.58448,11.33668 -7.05006,2.24253 -13.99579,3.66938 -21.19258,0.99965 -5.36255,-2.25541 -10.53439,-4.86227 -15.61156,-7.70083 -4.40444,-1.81964 -8.93187,-3.52557 -13.55585,-1.37718 8.30952,-4.85225 16.61903,-9.7045 24.92855,-14.55675 -2.19701,1.16482 -2.67555,1.27873 -4.64397,2.91863 -2.44319,2.03543 -4.34759,4.57165 -6.41403,6.96304 0,0 -29.10215,12.62152 -29.10215,12.62152 z"
       inkscape:connector-curvature="0" />
    <path
       style="fill:#00ffff;stroke-width:0.26458332"
       id="path3775"
       d="m 168.83479,-204.1058 c 3.28327,-0.3066 6.66955,-0.79505 9.73372,-2.09537 1.12332,-0.4767 4.27999,-2.34611 3.22105,-1.73971 -26.65261,15.26262 -31.32888,18.31961 -20.6363,11.50434 14.4296,-10.61862 29.70044,-20.12412 46.14718,-27.39633 6.75801,-2.06145 13.57852,-1.8411 20.39801,-0.34594 6.86514,1.78244 12.67013,5.8538 18.37357,9.89253 5.80684,4.1728 11.0898,8.93739 16.1866,13.93542 4.4945,4.56748 9.35022,9.14413 15.60611,10.98161 4.05212,0.258 8.12286,-1.03153 11.69079,-2.92272 1.09707,-0.5815 4.22768,-2.60305 3.14109,-2.00218 -7.85615,4.34438 -15.63685,8.82383 -23.45529,13.23575 7.5674,-5.82906 14.37804,-12.57263 21.32968,-19.10797 14.18362,-12.01232 30.21692,-23.36599 48.34281,-28.12589 7.63196,-1.9372 14.62307,0.40841 21.44374,3.72668 6.73714,3.89168 12.51826,9.19787 18.70416,13.88409 5.7263,4.55089 11.99444,8.26251 19.30109,9.26293 8.12242,0.78446 15.83584,-2.29629 23.2405,-5.23901 9.30203,-3.07338 18.47773,-6.49272 27.90147,-9.18486 8.31832,-2.87554 17.00528,-4.186 25.74044,-4.90728 7.28152,-0.65169 14.61209,-0.0988 21.77264,1.30771 5.46095,1.08894 10.71634,3.01106 15.96126,4.84476 4.19825,1.73889 7.95864,4.3199 11.40462,7.25096 2.31757,2.15116 3.94814,4.93609 6.40001,6.92978 1.74723,0.78713 3.66535,0.63859 5.53527,0.63103 3.04808,-1.24092 6.30872,-1.71638 9.57262,-1.9064 4.63262,-0.24273 9.27294,-0.27726 13.91084,-0.26909 5.62655,0.0236 11.17883,-1.19903 16.65214,-2.39151 5.75373,-1.70958 11.01701,-4.66712 16.75392,-6.39038 5.40972,-2.49404 10.77494,-3.25241 16.61244,-2.22162 5.7249,0.79639 10.30267,4.11699 14.65072,7.67918 4.16629,3.96611 8.50294,7.70306 12.91344,11.39219 3.69951,2.77032 8.09117,4.5388 12.51421,5.80277 4.58227,0.83079 9.37871,-0.16799 14.00434,-0.55211 4.52414,-0.80923 8.81304,-2.38808 13.24936,-3.5183 3.51533,-1.10032 6.90935,-2.43263 10.57489,-3.04056 1.58626,0.0798 2.82009,-0.62003 4.15364,-1.35491 0.29843,-0.16446 1.17401,-0.69236 0.87884,-0.5221 -27.5196,15.87378 -35.51777,20.30759 -25.89064,14.96457 0.70252,-0.99888 0.6441,-1.19549 0.37213,-2.43464 0,0 27.88579,-15.31268 27.88579,-15.31268 v 0 c 0.58746,1.53117 1.35805,3.00003 0.84868,4.6651 -2.32643,13.02203 -21.44448,16.64118 -33.58401,19.23661 -3.49816,0.94084 -6.86205,2.28182 -10.38971,3.11881 -4.45374,1.30622 -8.93866,2.59172 -13.57853,3.03757 -4.91431,0.41564 -9.96921,1.18272 -14.74835,-0.45154 -4.67542,-1.65526 -9.28515,-3.6386 -13.10968,-6.87247 -4.39478,-3.66834 -8.60007,-7.52512 -12.8696,-11.33451 -4.10048,-3.17741 -8.37065,-5.81221 -13.69028,-6.20133 -5.56493,-0.27824 -10.60976,1.23409 -15.7416,3.32433 -5.61342,2.1468 -11.07625,4.80478 -16.98257,6.08497 -5.62464,1.14212 -11.33469,2.03189 -17.09256,1.92346 -4.59928,0.0595 -9.21141,0.0703 -13.78915,0.57219 -3.3191,0.5143 -6.57456,1.62685 -9.94445,1.59978 -2.49716,-0.20704 -4.83224,-0.75121 -6.77296,-2.45211 -2.22239,-2.16775 -3.91337,-4.7979 -6.23229,-6.88488 -3.2571,-2.628 -6.72764,-4.99591 -10.72464,-6.36116 -5.07291,-1.82028 -10.2225,-3.54397 -15.5389,-4.4898 -7.02803,-1.05645 -14.1178,-1.52143 -21.20424,-0.68556 -8.60034,0.90752 -17.07187,2.51833 -25.27758,5.32014 -9.34334,2.85898 -18.55311,6.11917 -27.7632,9.37765 -7.85093,2.85152 -15.95216,5.5268 -24.39816,3.93906 -7.51083,-1.80898 -14.08268,-5.62808 -20.06293,-10.50083 -5.9981,-4.58558 -11.65288,-9.7631 -18.38042,-13.27441 -6.57836,-2.85621 -13.07623,-4.23442 -20.09761,-1.8728 -10.61125,3.70694 -25.14653,13.17773 16.37461,-10.86377 1.22412,-0.70879 -2.41485,1.47553 -3.58828,2.26544 -3.55542,2.39337 -3.88078,2.80871 -7.25591,5.60306 -7.04352,6.46382 -13.80731,13.23276 -21.07742,19.4496 -10.08293,6.01975 -20.11341,12.12821 -30.24878,18.05921 -5.01642,2.9355 -10.86711,4.33166 -16.54338,2.82181 -6.30946,-2.7369 -11.53101,-7.19114 -16.24542,-12.15678 -4.98708,-4.87561 -10.24567,-9.42655 -15.92757,-13.48478 -5.4531,-3.76042 -11.01563,-7.51126 -17.65445,-8.75451 -6.53867,-0.97592 -13.03059,-0.82166 -19.20225,1.84954 -11.56147,5.38319 -4.27357,2.11709 20.32664,-12.35408 1.0759,-0.63291 -2.19004,1.20444 -3.23007,1.89471 -2.14062,1.42073 -4.15217,3.02696 -6.22663,4.54268 -1.02397,0.74816 -2.03193,1.518 -3.04789,2.27698 -14.40166,9.92965 -29.35232,21.67321 -47.30428,22.44762 0,0 25.68292,-18.65974 25.68292,-18.65974 z"
       inkscape:connector-curvature="0" />
    <path
       style="fill:#00ffff;stroke-width:0.26458332"
       id="path3777"
       d="m 177.15103,-55.255108 c 5.66786,-1.421977 11.099,-3.597699 16.83017,-4.799516 4.41704,-1.137443 7.7355,-0.462888 12.0336,0.370311 3.94846,1.306433 7.84794,2.71108 11.79344,4.031298 3.52395,1.058307 7.22259,1.12895 10.87069,1.218644 4.34644,0.165523 8.45955,-1.597369 12.43141,-3.174709 5.61503,-2.330503 11.38373,-3.83077 17.40215,-4.618064 6.55042,-0.960517 13.03967,-0.646059 19.49196,0.719376 6.56924,1.895687 12.90116,4.47847 19.39335,6.600243 6.13611,1.783821 12.55758,2.709862 18.93692,2.244645 1.01404,-0.227197 2.0416,-0.400817 3.04218,-0.68154 1.44605,-0.405738 5.17464,-1.750483 6.45654,-2.40075 1.11665,-0.566446 4.29343,-2.577782 3.20345,-1.961568 -22.13155,12.512331 -31.53431,18.472071 -19.89995,11.18116 7.67241,-5.147178 14.57039,-11.335729 21.9094,-16.941271 15.00622,-10.189183 30.19574,-21.446225 47.91602,-25.991661 7.06744,-1.02661 13.37418,0.772372 19.51543,4.136575 5.92934,3.152669 10.83177,7.756208 16.11267,11.813884 4.25374,3.179286 9.04404,6.366034 14.41641,7.009712 5.42671,0.469503 10.6717,-0.807693 15.98993,-1.596628 5.69463,-1.499394 11.49726,-2.966006 17.41646,-2.703803 5.85629,0.446616 11.56505,2.274913 17.01292,4.402481 5.58904,2.450042 10.19998,6.456944 14.65879,10.526898 4.67371,4.468574 8.6749,9.587864 12.96954,14.416537 4.0409,3.462946 8.28778,7.314776 13.90573,6.598152 9.99664,-3.64228 25.46289,-12.643405 -19.87209,11.863017 -1.04201,0.563272 1.95562,-1.343078 2.86533,-2.101665 2.25015,-1.876319 3.88681,-3.766105 5.8951,-5.909124 6.75625,-7.683844 13.26698,-15.562368 20.25788,-23.040208 14.25178,-15.581762 27.68177,-20.861734 47.50078,-32.0598 6.33243,-2.566829 12.69997,-2.14204 19.30622,-1.495213 6.79074,1.053809 13.21279,3.478344 19.67058,5.734843 7.6467,2.366116 15.21399,5.031952 22.70977,7.84741 8.22992,2.96791 16.5432,5.510212 24.98264,7.793408 8.02484,2.228902 16.18586,2.899886 24.45772,2.452819 3.49033,-0.375364 6.82701,-1.358714 9.94524,-2.970371 0.94247,-0.487124 3.66421,-2.14032 2.7405,-1.618509 -25.09343,14.174734 -31.91979,20.049701 -22.71054,12.383532 1.97133,-2.462716 1.19224,-1.149456 2.38734,-3.909616 0,0 28.62093,-13.564341 28.62093,-13.564341 v 0 c -0.7234,3.717634 -0.13502,1.932755 -1.76634,5.354267 -9.03676,10.763541 -1.6117,2.393818 -31.14915,19.486827 -4.05297,2.345399 -8.86,3.064643 -13.44137,3.414025 -8.44867,0.160099 -16.78847,-0.994013 -24.93946,-3.266943 -8.51186,-2.29735 -16.84967,-5.075714 -25.16402,-8.007561 -7.52668,-2.716134 -15.08128,-5.377075 -22.72482,-7.744831 -6.32497,-2.101453 -12.6324,-4.409651 -19.31898,-5.041794 -6.3264,-0.448416 -12.41295,-0.107024 -18.21701,2.796567 47.72882,-27.99842 21.52192,-13.920312 13.1305,-6.615086 -0.8187,0.712708 -6.45422,6.302718 -7.16235,7.002039 -7.13758,7.289641 -13.63157,15.123742 -20.19599,22.922388 -11.20449,12.790699 -26.04045,25.235085 -43.50721,26.852086 -6.06906,-0.960093 -10.86233,-4.634018 -15.21457,-8.829886 -4.20005,-4.760543 -8.14022,-9.789372 -12.81819,-14.097318 -4.23373,-3.783356 -8.62893,-7.478289 -14.01342,-9.511374 -5.28452,-1.835864 -10.72763,-3.536235 -16.38347,-3.437069 -5.80777,0.409839 -11.41077,1.897776 -17.10243,3.040247 -5.5436,0.90977 -11.14068,1.779932 -16.74,0.708502 -5.55138,-1.657694 -10.63485,-4.628621 -15.13467,-8.262594 -5.04106,-4.065085 -9.92849,-8.39642 -15.76975,-11.317102 -5.78842,-2.783628 -11.75906,-3.901731 -18.09684,-2.212869 -2.99865,0.972026 -3.59047,1.065847 -6.51108,2.426546 -1.12739,0.525251 -4.39039,2.336165 -3.32049,1.701933 43.40574,-25.732131 25.2222,-15.03979 16.02848,-8.964269 -7.46424,5.475129 -14.41122,11.576659 -21.78283,17.150371 -12.77678,8.222774 -7.34372,4.801526 -33.87963,19.921352 -4.15464,2.367254 -8.92913,3.574733 -13.66139,3.937212 -6.64056,-0.08289 -13.24948,-1.014651 -19.55514,-3.172381 -6.3401,-2.193237 -12.60406,-4.67442 -19.14852,-6.210908 -6.29533,-0.935488 -12.59287,-0.969328 -18.88332,0.149833 -5.89599,1.105932 -11.53679,2.954576 -17.10836,5.173663 -4.30328,1.472803 -8.64163,2.708539 -13.25104,2.22959 -3.87295,-0.213968 -7.75258,-0.583353 -11.41046,-1.976516 -3.79258,-1.355831 -7.60372,-2.712456 -11.53264,-3.617675 -3.79041,-0.638545 -7.45497,-0.399124 -11.18758,0.622512 -5.65744,1.47746 -11.15794,3.488161 -16.84323,4.866799 0,0 25.21016,-19.277171 25.21016,-19.277171 z"
       inkscape:connector-curvature="0" />
    <path
       style="fill:#00ffff;stroke-width:0.26458332"
       id="path3779"
       d="m 190.64928,108.41402 c -1.67316,-5.36281 -3.07385,-10.895883 -0.78156,-16.235809 15.76445,-20.655756 27.07896,-21.430086 41.04494,-10.886096 7.571,6.227974 12.93608,14.561396 18.88385,22.246005 6.6286,9.10244 13.38287,18.08538 20.71568,26.63526 4.64434,4.508 9.3739,10.84451 16.20973,12.02672 1.06143,0.18356 2.15251,0.0892 3.22876,0.1338 1.13879,-0.17378 2.29415,-0.26107 3.41633,-0.52134 3.0272,-0.70212 4.00814,-1.30048 6.75992,-2.80395 1.20782,-0.65992 4.77803,-2.73478 3.58047,-2.05644 -24.1142,13.6594 -30.4391,18.01055 -19.0859,10.44429 8.53352,-6.19046 16.90761,-12.55829 25.67185,-18.42241 17.64189,-10.93192 35.49092,-23.20861 55.75793,-28.78553 9.45546,-2.94166 19.31995,-3.252916 29.05508,-1.90235 9.33048,1.043278 18.11547,4.1837 26.3512,8.57848 6.7786,4.53332 13.90849,8.40274 21.14185,12.13691 5.12969,2.79376 10.42112,3.47269 15.85624,1.3466 9.54445,-5.07132 24.65666,-12.97358 -19.08476,10.99402 -1.05291,0.57692 1.9662,-1.37935 2.92129,-2.10677 2.33825,-1.78089 3.54666,-2.89743 5.79183,-4.84791 5.71749,-5.446 11.75462,-10.52637 18.09774,-15.22468 12.12332,-8.04902 6.53547,-4.43225 32.94975,-19.207321 3.62493,-2.027608 7.74015,-1.938364 11.70266,-1.421474 6.3672,1.598269 11.44185,5.76162 16.19422,10.081181 5.48804,4.408934 10.3012,9.654694 16.00163,13.783544 5.45875,4.12203 8.04013,4.79486 14.58145,3.84424 2.66533,-0.67035 5.1567,-1.90619 7.54475,-3.24366 0.91527,-0.5126 3.60278,-2.15074 2.69208,-1.63007 -23.00774,13.15416 -32.14261,18.84627 -21.04006,11.98089 14.70152,-8.84764 28.98553,-20.31529 45.74582,-24.594477 6.55656,-1.578927 13.18914,-1.270556 19.73993,0.0662 6.27502,1.293357 12.57779,2.607867 18.72499,4.426587 5.73018,1.47082 11.58417,2.28687 17.23506,4.06715 5.96508,1.51357 11.49281,4.30498 17.17749,6.60908 4.48125,1.57138 9.27627,2.92467 14.04329,2.25882 0.70331,-0.11663 1.42605,-0.14853 2.10995,-0.34988 1.67396,-0.49287 1.92132,-0.99804 3.36655,-1.91479 0.56716,-0.35978 2.32913,-1.33908 1.74678,-1.00447 -25.99102,14.93404 -33.48939,19.89543 -23.41866,13.30323 12.60908,-8.40322 25.22728,-17.45078 39.3868,-22.92559 4.87113,-1.29591 9.91782,-1.52805 14.92945,-1.65799 5.04013,-0.35983 9.96823,0.82397 14.93883,1.46452 3.26123,0.44162 6.55084,0.6105 9.83887,0.66773 1.27868,0.003 0.58198,-0.19328 1.70339,1.34708 0,0 -27.41245,16.5391 -27.41245,16.5391 v 0 c 0.63635,1.00552 0.82799,0.82918 -0.19349,0.75695 -3.28326,-0.2385 -6.56616,-0.51298 -9.81874,-1.0363 -4.85637,-0.69683 -9.70126,-1.4823 -14.62778,-1.007 -4.82311,0.25432 -9.73235,0.62174 -14.19965,2.62313 -10.4715,5.37864 -4.36322,2.285 22.98779,-13.47716 0.70149,-0.40428 -1.36208,0.87641 -2.05875,1.28889 -2.03544,1.20513 -4.02368,2.44004 -5.98966,3.76145 -10.56783,8.29837 -1.72572,1.49143 -30.7911,18.2689 -2.50677,1.44698 -5.19433,2.09036 -8.08683,2.09536 -5.08857,-0.25489 -10.03319,-1.43642 -14.72375,-3.44982 -5.56744,-2.35654 -11.10591,-4.87587 -17.00032,-6.31486 -5.69473,-1.52749 -11.52718,-2.43689 -17.20273,-4.04471 -6.11484,-1.6061 -12.2632,-3.12156 -18.49697,-4.19383 -6.35418,-0.88482 -12.70717,-0.82601 -18.88845,1.12339 -2.893,1.01388 -3.09467,0.99655 -5.87338,2.325 -1.0388,0.49665 -4.06638,2.15948 -3.0748,1.57417 43.3959,-25.616089 26.88654,-15.81823 17.54778,-10.02578 -12.34393,8.20695 -3.82731,2.63234 -32.8853,19.27812 -3.4394,1.97022 -7.15987,3.48396 -11.12769,3.88192 -6.08703,0.2241 -11.08594,-1.96051 -15.79107,-5.82803 -5.60941,-4.3846 -10.58998,-9.52246 -16.11742,-14.01649 -4.38245,-3.82715 -9.14177,-7.58875 -15.11633,-8.2663 -2.79048,0.0513 -5.20718,0.31261 -7.81087,1.41539 -0.94041,0.39833 -3.62897,1.87052 -2.75124,1.34837 7.95149,-4.73054 15.98686,-9.31868 23.9803,-13.97799 -1.0246,0.617458 -2.04923,1.234889 -3.07383,1.852348 -6.52743,4.396682 -12.60813,9.451792 -18.28009,14.904952 -12.65002,11.70641 -27.56183,21.34638 -43.85627,27.11903 -6.07949,1.01928 -11.74866,-0.2608 -17.09994,-3.35256 -7.17553,-3.77709 -14.10089,-7.93565 -20.98842,-12.21253 -8.10707,-3.98386 -16.63065,-6.84544 -25.68273,-7.67588 -9.55601,-0.88477 -19.09853,-0.14516 -28.26076,2.89996 -4.94688,1.61623 -9.62321,3.46906 -14.31813,5.72651 -1.62653,0.78206 -6.38445,3.35836 -4.84595,2.41485 41.37072,-25.37174 24.99206,-14.8754 17.18548,-9.82802 -8.72247,5.85181 -17.28573,11.87211 -25.55772,18.35869 -13.27544,9.16205 -5.29095,3.79185 -34.53881,20.67597 -4.62918,2.67235 -9.6396,4.26053 -15.02037,3.89485 -1.21457,-0.2496 -2.46332,-0.36912 -3.64372,-0.74879 -7.00463,-2.25312 -11.91747,-8.44034 -16.82994,-13.5104 -7.24578,-8.66859 -14.02639,-17.68623 -20.73721,-26.77297 -5.81005,-7.43098 -11.08972,-15.53316 -18.70427,-21.2802 -2.35628,-1.560009 -2.67397,-1.932781 -5.22355,-3.013445 -0.7092,-0.300619 -1.43069,-0.594968 -2.18438,-0.753957 -0.63736,-0.134461 -2.50027,0.231088 -1.95057,-0.118374 23.59827,-15.002431 35.75896,-16.086508 24.07284,-14.824578 -4.08208,3.393176 -2.02249,8.997104 -0.67339,13.350214 0,0 -27.69286,15.55313 -27.69286,15.55313 z"
       inkscape:connector-curvature="0" />
    <path
       style="fill:#00ffff;stroke-width:0.26458332"
       id="path3781"
       d="m 211.80793,-334.96882 c 5.86557,3.85164 12.59666,4.4142 19.30402,5.42253 5.90118,0.94173 11.8693,1.23304 17.83355,1.39975 6.37128,-0.639 12.46191,-2.82437 18.22572,-5.52786 6.90787,-3.68226 14.06009,-7.00953 21.76103,-8.56139 7.53985,-1.55263 14.43407,0.6698 20.76585,4.67257 6.99145,5.46764 11.34501,13.29238 15.5862,20.91444 3.9882,7.40743 7.09507,15.34488 13.39731,21.11211 5.99419,3.68115 9.67618,0.79298 14.91729,-2.59712 -45.98628,30.72682 -19.09442,9.14389 -8.89048,1.13514 11.40844,-8.15586 24.24356,-14.65093 36.34711,-21.34759 2.90081,-1.60496 6.16916,-2.02388 9.39647,-2.25206 5.93108,-0.13247 11.63187,1.90609 17.11565,3.96563 6.48714,1.81793 12.22275,5.37425 18.25758,8.22796 6.3323,3.36479 12.87579,6.2846 19.74932,8.34059 6.99016,1.86317 14.28025,1.36338 21.34978,0.24318 7.79936,-1.3244 15.52692,-3.04014 23.26817,-4.67095 7.35984,-1.37036 14.67348,-2.9622 22.00749,-4.47127 6.56013,-1.42579 13.08071,-2.82874 19.75805,-3.60207 4.80288,-0.20703 9.78215,-1.18247 14.53475,-0.20098 2.81604,0.73875 5.52982,1.14838 7.9878,2.73363 0.92623,0.68339 0.55756,0.80698 1.15747,0.14451 0,0 -26.17591,18.32036 -26.17591,18.32036 v 0 c -1.32059,-0.81717 -0.74539,-0.46736 -1.72175,-1.05563 -2.23084,-1.0154 -4.81002,-1.25773 -7.18254,-1.79086 -4.64765,-0.14521 -9.30135,0.20897 -13.91703,0.73657 -6.57828,0.9125 -13.02123,2.45139 -19.53025,3.74708 -7.30689,1.55927 -14.64315,2.97778 -21.96705,4.45371 -7.77547,1.67515 -15.57658,3.31158 -23.44375,4.48376 -7.44358,0.75726 -14.9724,1.03039 -22.18442,-1.3435 -6.89755,-2.34527 -13.52981,-5.34575 -19.98683,-8.71691 -5.9204,-2.92836 -11.75689,-6.04547 -18.13888,-7.89506 -5.24791,-1.76393 -10.62083,-3.53833 -16.23452,-2.72772 -2.9315,0.63706 -2.91605,0.50051 -5.77979,1.69182 -0.98383,0.40926 -3.80881,1.90378 -2.89476,1.35615 43.46517,-26.04156 26.88225,-15.8074 17.42877,-10.01564 -14.80355,11.03712 -26.05934,23.75087 -44.82068,30.35424 -6.59408,3.36957 -11.11425,4.12464 -17.25565,-0.73306 -6.18453,-6.28599 -9.64234,-14.26929 -13.70576,-21.99812 -3.99727,-7.12697 -8.0586,-14.56996 -14.86482,-19.4084 -6.1431,-3.33441 -12.44145,-4.5965 -19.32895,-2.70605 -7.49313,2.19734 -14.49038,5.52743 -21.46537,9.00385 -6.1119,2.45179 -12.48679,4.57988 -19.15457,4.47378 -6.02355,-0.24394 -12.03459,-0.72913 -17.9861,-1.72346 -7.05873,-1.0118 -13.89482,-2.65388 -20.13399,-6.28717 0,0 26.61447,-17.30049 26.61447,-17.30049 z"
       inkscape:connector-curvature="0" />
    <a
       id="a25"
       xlink:href="https://theportal.wiki/wiki/Einstein%27s_General_Relativity_equation"
       target="_blank"
       transform="translate(-49.136903,1.5119047)"
       xlink:title="Einstein field equations">
      <text
         id="text23"
         y="-514.51489"
         x="172.16815"
         style="font-style:normal;font-weight:normal;font-size:10.58333302px;line-height:1.25;font-family:sans-serif;letter-spacing:0px;word-spacing:0px;fill:#000000;fill-opacity:1;stroke:none;stroke-width:0.26458332"
         xml:space="preserve"><tspan
           style="font-size:25.39999962px;fill:#ffffff;stroke-width:0.26458332"
           y="-514.51489"
           x="172.16815"
           id="tspan21"
           sodipodi:role="line">Link Blank</tspan></text>
    </a>
    <a
       id="a28"
       xlink:href="https://theportal.wiki/wiki/Atiyah-Singer_Theorem"
       transform="translate(1.5119047,3.0238094)"
       xlink:title="Atiyah-Singer Theorem">
      <text
         id="text26"
         y="-516.40472"
         x="275.92261"
         style="font-style:normal;font-weight:normal;font-size:10.58333302px;line-height:1.25;font-family:sans-serif;letter-spacing:0px;word-spacing:0px;fill:#000000;fill-opacity:1;stroke:none;stroke-width:0.26458332"
         xml:space="preserve"><tspan
           style="font-size:25.39999962px;fill:#ffffff;stroke-width:0.26458332"
           y="-516.40472"
           x="275.92261"
           id="tspan24"
           sodipodi:role="line">Normal Link</tspan></text>
    </a>
  </g>
</svg>
