<?xml version="1.0" encoding="UTF-8" standalone="no"?>
<!-- Created with Inkscape (http://www.inkscape.org/) -->

<svg xmlns:dc="http://purl.org/dc/elements/1.1/" xmlns:cc="http://creativecommons.org/ns#" xmlns:rdf="http://www.w3.org/1999/02/22-rdf-syntax-ns#" xmlns:svg="http://www.w3.org/2000/svg" xmlns="http://www.w3.org/2000/svg" xmlns:xlink="http://www.w3.org/1999/xlink" xmlns:sodipodi="http://sodipodi.sourceforge.net/DTD/sodipodi-0.dtd" xmlns:inkscape="http://www.inkscape.org/namespaces/inkscape" width="400" height="400" viewBox="0 0 105.83333 105.83334" version="1.1" id="svg10908" inkscape:version="0.92.4 (5da689c313, 2019-01-14)" sodipodi:docname="sun.svg">
  <defs id="defs10902">
    <linearGradient inkscape:collect="always" xlink:href="#Neues_Verlaufsfeld_1" id="linearGradient10350" x1="362.61353" y1="224.92503" x2="465.78336" y2="224.92503" gradientUnits="userSpaceOnUse" />
    <linearGradient id="Neues_Verlaufsfeld_1" x1="375.67999" y1="714.34003" x2="375.67999" y2="692.5" gradientUnits="userSpaceOnUse">
      <stop offset="0" stop-color="#caa348" id="stop4" />
      <stop offset="0.06" stop-color="#ac8446" id="stop6" />
      <stop offset="0.13" stop-color="#edd15f" id="stop8" />
      <stop offset="0.52" stop-color="#a4733a" id="stop10" />
      <stop offset="0.63" stop-color="#d9b652" id="stop12" />
      <stop offset="1" stop-color="#d49a47" id="stop14" />
    </linearGradient>
    <linearGradient inkscape:collect="always" xlink:href="#Neues_Verlaufsfeld_1" id="linearGradient10408" x1="-139.52457" y1="-135.20094" x2="-130.47542" y2="135.20096" gradientUnits="userSpaceOnUse" />
    <linearGradient inkscape:collect="always" xlink:href="#Neues_Verlaufsfeld_1" id="linearGradient10416" x1="-148.9994" y1="144.70726" x2="-144.20677" y2="-152.10107" gradientUnits="userSpaceOnUse" />
    <clipPath id="aa">
      <path d="M 0,12960 H 12960 V 0 H 0 Z" id="path51" inkscape:connector-curvature="0" />
    </clipPath>
    <linearGradient inkscape:collect="always" xlink:href="#Neues_Verlaufsfeld_1" id="linearGradient11759" gradientUnits="userSpaceOnUse" x1="362.61353" y1="224.92503" x2="465.78336" y2="224.92503" />
    <linearGradient inkscape:collect="always" xlink:href="#Neues_Verlaufsfeld_1" id="linearGradient11761" gradientUnits="userSpaceOnUse" x1="362.61353" y1="224.92503" x2="465.78336" y2="224.92503" />
    <linearGradient inkscape:collect="always" xlink:href="#Neues_Verlaufsfeld_1" id="linearGradient11763" gradientUnits="userSpaceOnUse" x1="362.61353" y1="224.92503" x2="465.78336" y2="224.92503" />
    <linearGradient inkscape:collect="always" xlink:href="#Neues_Verlaufsfeld_1" id="linearGradient11765" gradientUnits="userSpaceOnUse" x1="362.61353" y1="224.92503" x2="465.78336" y2="224.92503" />
    <linearGradient inkscape:collect="always" xlink:href="#Neues_Verlaufsfeld_1" id="linearGradient11767" gradientUnits="userSpaceOnUse" x1="362.61353" y1="224.92503" x2="465.78336" y2="224.92503" />
    <linearGradient inkscape:collect="always" xlink:href="#Neues_Verlaufsfeld_1" id="linearGradient11769" gradientUnits="userSpaceOnUse" x1="362.61353" y1="224.92503" x2="465.78336" y2="224.92503" />
    <linearGradient inkscape:collect="always" xlink:href="#Neues_Verlaufsfeld_1" id="linearGradient11771" gradientUnits="userSpaceOnUse" x1="362.61353" y1="224.92503" x2="465.78336" y2="224.92503" />
    <linearGradient inkscape:collect="always" xlink:href="#Neues_Verlaufsfeld_1" id="linearGradient11773" gradientUnits="userSpaceOnUse" x1="362.61353" y1="224.92503" x2="465.78336" y2="224.92503" />
    <linearGradient inkscape:collect="always" xlink:href="#Neues_Verlaufsfeld_1" id="linearGradient11775" gradientUnits="userSpaceOnUse" x1="-148.9994" y1="144.70726" x2="-144.20677" y2="-152.10107" />
    <linearGradient inkscape:collect="always" xlink:href="#Neues_Verlaufsfeld_1" id="linearGradient11777" gradientUnits="userSpaceOnUse" x1="362.61353" y1="224.92503" x2="465.78336" y2="224.92503" />
    <linearGradient inkscape:collect="always" xlink:href="#Neues_Verlaufsfeld_1" id="linearGradient11779" gradientUnits="userSpaceOnUse" x1="362.61353" y1="224.92503" x2="465.78336" y2="224.92503" />
    <linearGradient inkscape:collect="always" xlink:href="#Neues_Verlaufsfeld_1" id="linearGradient11781" gradientUnits="userSpaceOnUse" x1="362.61353" y1="224.92503" x2="465.78336" y2="224.92503" />
    <linearGradient inkscape:collect="always" xlink:href="#Neues_Verlaufsfeld_1" id="linearGradient11783" gradientUnits="userSpaceOnUse" x1="362.61353" y1="224.92503" x2="465.78336" y2="224.92503" />
    <linearGradient inkscape:collect="always" xlink:href="#Neues_Verlaufsfeld_1" id="linearGradient11785" gradientUnits="userSpaceOnUse" x1="362.61353" y1="224.92503" x2="465.78336" y2="224.92503" />
    <linearGradient inkscape:collect="always" xlink:href="#Neues_Verlaufsfeld_1" id="linearGradient11787" gradientUnits="userSpaceOnUse" x1="362.61353" y1="224.92503" x2="465.78336" y2="224.92503" />
    <linearGradient inkscape:collect="always" xlink:href="#Neues_Verlaufsfeld_1" id="linearGradient11789" gradientUnits="userSpaceOnUse" x1="362.61353" y1="224.92503" x2="465.78336" y2="224.92503" />
    <linearGradient inkscape:collect="always" xlink:href="#Neues_Verlaufsfeld_1" id="linearGradient11791" gradientUnits="userSpaceOnUse" x1="362.61353" y1="224.92503" x2="465.78336" y2="224.92503" />
    <linearGradient inkscape:collect="always" xlink:href="#Neues_Verlaufsfeld_1" id="linearGradient11793" gradientUnits="userSpaceOnUse" x1="362.61353" y1="224.92503" x2="465.78336" y2="224.92503" />
    <linearGradient inkscape:collect="always" xlink:href="#Neues_Verlaufsfeld_1" id="linearGradient11795" gradientUnits="userSpaceOnUse" x1="362.61353" y1="224.92503" x2="465.78336" y2="224.92503" />
    <linearGradient inkscape:collect="always" xlink:href="#Neues_Verlaufsfeld_1" id="linearGradient11797" gradientUnits="userSpaceOnUse" x1="362.61353" y1="224.92503" x2="465.78336" y2="224.92503" />
    <linearGradient inkscape:collect="always" xlink:href="#Neues_Verlaufsfeld_1" id="linearGradient11799" gradientUnits="userSpaceOnUse" x1="362.61353" y1="224.92503" x2="465.78336" y2="224.92503" />
    <linearGradient inkscape:collect="always" xlink:href="#Neues_Verlaufsfeld_1" id="linearGradient11801" gradientUnits="userSpaceOnUse" x1="362.61353" y1="224.92503" x2="465.78336" y2="224.92503" />
    <linearGradient inkscape:collect="always" xlink:href="#Neues_Verlaufsfeld_1" id="linearGradient11803" gradientUnits="userSpaceOnUse" x1="362.61353" y1="224.92503" x2="465.78336" y2="224.92503" />
    <linearGradient inkscape:collect="always" xlink:href="#Neues_Verlaufsfeld_1" id="linearGradient11805" gradientUnits="userSpaceOnUse" x1="362.61353" y1="224.92503" x2="465.78336" y2="224.92503" />
    <linearGradient inkscape:collect="always" xlink:href="#Neues_Verlaufsfeld_1" id="linearGradient11807" gradientUnits="userSpaceOnUse" x1="362.61353" y1="224.92503" x2="465.78336" y2="224.92503" />
    <linearGradient inkscape:collect="always" xlink:href="#Neues_Verlaufsfeld_1" id="linearGradient11809" gradientUnits="userSpaceOnUse" x1="362.61353" y1="224.92503" x2="465.78336" y2="224.92503" />
  </defs>
  <sodipodi:namedview id="base" pagecolor="#ffffff" bordercolor="#666666" borderopacity="1.0" inkscape:pageopacity="0.0" inkscape:pageshadow="2" inkscape:zoom="0.35" inkscape:cx="-394.03228" inkscape:cy="646.67097" inkscape:document-units="mm" inkscape:current-layer="layer1" showgrid="false" units="px" inkscape:window-width="1920" inkscape:window-height="1017" inkscape:window-x="-8" inkscape:window-y="-8" inkscape:window-maximized="1" />
  <metadata id="metadata10905">
    <rdf:RDF>
      <cc:Work rdf:about="">
        <dc:format>image/svg+xml</dc:format>
        <dc:type rdf:resource="http://purl.org/dc/dcmitype/StillImage" />
        <dc:title></dc:title>
      </cc:Work>
    </rdf:RDF>
  </metadata>
  <g inkscape:label="Layer 1" inkscape:groupmode="layer" id="layer1" transform="translate(0,-191.16666)">
    <g id="g7246" style="display:inline;fill:none;stroke:url(#linearGradient10350)" transform="matrix(0.78697343,0,0,0.78697343,-272.66195,67.457862)">
      <g transform="matrix(0.13646804,0,0,-0.13646804,414.77171,224.92504)" id="g1773" style="fill:none;stroke:url(#linearGradient11761)">
        <path style="fill:none;stroke:url(#linearGradient11759)" d="m 0,0 c 0,-2.071 -1.678,-3.75 -3.749,-3.75 -2.072,0 -3.751,1.679 -3.751,3.75 0,2.071 1.679,3.75 3.751,3.75 C -1.678,3.75 0,2.071 0,0" id="path1771" inkscape:connector-curvature="0" />
      </g>
      <g transform="matrix(0.13646804,0,0,-0.13646804,414.77171,224.92504)" id="g1777" style="fill:none;stroke:url(#linearGradient11765)">
        <path style="fill:none;stroke:url(#linearGradient11763);stroke-width:9;stroke-miterlimit:10" d="m 0,0 c 0,-2.071 -1.678,-3.75 -3.749,-3.75 -2.072,0 -3.751,1.679 -3.751,3.75 0,2.071 1.679,3.75 3.751,3.75 C -1.678,3.75 0,2.071 0,0 Z" stroke-miterlimit="10" id="path1775" inkscape:connector-curvature="0" />
      </g>
      <g transform="matrix(0.13646804,0,0,-0.13646804,465.78337,224.92504)" id="g18985" style="fill:none;stroke:url(#linearGradient11769)">
        <path style="fill:none;stroke:url(#linearGradient11767)" d="M 0,0 C 0,208.76 -169.24,378 -378,378 -586.77,377.999 -756,208.76 -756,0 c 0,-208.77 169.23,-378 378,-378 208.77,-0.002 378,169.23 378,378" id="path18983" inkscape:connector-curvature="0" />
      </g>
      <g transform="matrix(0.13646804,0,0,-0.13646804,432.62167,224.92504)" id="g18989" style="fill:none;stroke:url(#linearGradient11773)">
        <path style="fill:url(#linearGradient10408);fill-opacity:1;stroke:url(#linearGradient11771);stroke-width:1.00100005;stroke-miterlimit:10" d="m 0,0 c 0,74.559 -60.44,135 -135,135 -74.558,0 -135,-60.441 -135,-135 0,-74.56 60.442,-135 135,-135 74.56,0 135,60.44 135,135 z" stroke-miterlimit="10" id="path18987" inkscape:connector-curvature="0" />
      </g>
      <g transform="matrix(0.13646804,0,0,-0.13646804,434.70962,224.92504)" id="g18997" style="fill:url(#linearGradient10416);fill-opacity:1;stroke:url(#linearGradient11779)">
        <path style="fill:url(#linearGradient11775);fill-opacity:1;stroke:url(#linearGradient11777);stroke-width:1.00100005;stroke-miterlimit:10" d="m 0,0 c 0,83.009 -67.292,150.3 -150.3,150.3 -83.008,0 -150.3,-67.291 -150.3,-150.3 0,-83.009 67.29,-150.3 150.3,-150.3 C -67.29,-150.3 0,-83.008 0,0 Z" stroke-miterlimit="10" id="path18995" inkscape:connector-curvature="0" />
      </g>
      <g transform="matrix(0.13646804,0,0,-0.13646804,437.53448,224.92504)" id="g19001" style="fill:none;stroke:url(#linearGradient11783)">
        <path style="fill:none;fill-opacity:1;stroke:url(#linearGradient11781);stroke-width:1.00100005;stroke-miterlimit:10" d="m 0,0 c 0,94.441 -76.558,171 -171,171 -94.441,0 -171,-76.559 -171,-171 0,-94.442 76.559,-171 171,-171 94.442,0 171,76.558 171,171 z" stroke-miterlimit="10" id="path18999" inkscape:connector-curvature="0" />
      </g>
      <g transform="matrix(0.13646804,0,0,-0.13646804,414.68972,224.92504)" id="g19005" style="fill:none;stroke:url(#linearGradient11787)">
        <path style="fill:none;stroke:url(#linearGradient11785)" d="m 0,0 c 0,1.988 -1.611,3.6 -3.6,3.6 -1.989,0 -3.6,-1.612 -3.6,-3.6 0,-1.988 1.611,-3.6 3.6,-3.6 1.989,0 3.6,1.612 3.6,3.6" id="path19003" inkscape:connector-curvature="0" />
      </g>
      <g transform="matrix(0.13646804,0,0,-0.13646804,414.68972,224.92504)" id="g19009" style="fill:none;stroke:url(#linearGradient11791)">
        <path style="fill:none;stroke:url(#linearGradient11789);stroke-width:1.00100005;stroke-miterlimit:10" d="m 0,0 c 0,1.988 -1.611,3.6 -3.6,3.6 -1.989,0 -3.6,-1.612 -3.6,-3.6 0,-1.988 1.611,-3.6 3.6,-3.6 1.989,0 3.6,1.612 3.6,3.6 z" stroke-miterlimit="10" id="path19007" inkscape:connector-curvature="0" />
      </g>
      <a href="https://theportal.wiki/wiki/Kepler%27s_1st_law" actuate="'onRequest'" show="new" title="Kepler's 1st law" id="a6889" style="fill:none;fill-opacity:1;stroke:url(#linearGradient11809);stroke-width:0.69999999;stroke-linecap:round;stroke-linejoin:round;stroke-miterlimit:4;stroke-dasharray:none;paint-order:fill markers stroke">
        <desc id="desc6901">Kepler's 1st law</desc>
        <title id="title6899">Kepler's 1st law</title>
        <g id="g6887" style="fill:none;fill-opacity:1;stroke:url(#linearGradient11807);stroke-width:0.69999999;stroke-linecap:round;stroke-linejoin:round;stroke-miterlimit:4;stroke-dasharray:none;paint-order:fill markers stroke">
          <g id="g18993" transform="matrix(0.13646804,0,0,-0.13646804,463.32703,224.92504)" style="display:inline;fill:none;fill-opacity:1;stroke:url(#linearGradient11795);stroke-width:5.12940598;stroke-linecap:round;stroke-linejoin:round;stroke-miterlimit:4;stroke-dasharray:none;paint-order:fill markers stroke">
            <path inkscape:connector-curvature="0" id="path18991" stroke-miterlimit="10" d="m 0,0 c 0,198.82 -161.18,360 -360,360 -198.82,0 -360,-161.18 -360,-360 0,-198.83 161.17,-360 360,-360 198.82,-0.002 360,161.18 360,360 z" style="fill:none;fill-opacity:1;stroke:url(#linearGradient11793);stroke-width:5.12940598;stroke-linecap:round;stroke-linejoin:round;stroke-miterlimit:4;stroke-dasharray:none;paint-order:fill markers stroke" />
          </g>
          <path style="display:inline;fill:none;fill-opacity:1;stroke:url(#linearGradient11797);stroke-width:5.12940598;stroke-linecap:round;stroke-linejoin:round;stroke-miterlimit:4;stroke-dasharray:none;paint-order:fill markers stroke" d="m 0,0 c -26.031,9.328 -76.495,12.23 -81.077,-34.791 -7.777,22.365 -2.092,57.545 48.318,64.047 19.167,2.631 38.278,9.277 48.934,29.715 8.333,19.672 -4.564,32.068 -18.194,35.402 -15.018,4.414 -28.469,12.174 -34.491,19.145 -18.078,21.056 -59.724,49.769 -87.879,11.826 4.86,23.174 27.855,50.394 74.406,30.002 17.786,-7.625 37.592,-11.772 57.253,0.252 17.274,12.568 12.609,29.834 2.646,39.714 -10.599,11.522 -16.693,22.563 -19.659,34.575 -4.94,27.209 -28.126,72.48 -71.145,52.933 15.483,17.922 48.793,30.588 79.628,-9.816 11.861,-15.283 27.176,-28.512 50.2,-27.524 21.202,2.622 25.49,19.989 21.564,33.459 -3.689,15.211 -3.689,30.741 -0.668,39.442 9.197,26.181 13.24,76.611 -33.697,82.023 22.504,7.379 57.573,1.076 63.185,-49.441 2.29,-19.213 8.602,-38.44 28.846,-49.455 19.519,-8.676 32.143,4 35.718,17.564 4.676,14.94 10.624,26.924 19.463,34.625 21.096,17.877 48.708,60.598 10.271,88.076 23.262,-4.453 50.885,-26.962 31.313,-73.869 -7.307,-17.918 -11.104,-37.791 1.266,-57.24 12.869,-17.047 30.053,-12.08 39.757,-1.941 11.33,10.8 24.775,18.566 33.819,20.3 27.274,5.125 72.97,26.838 54.185,70.194 17.643,-15.799 29.72,-49.324 -11.221,-79.44 -15.497,-11.591 -28.988,-26.672 -28.408,-49.711 2.247,-21.246 19.533,-25.836 33.076,-22.152 15.271,3.422 27.884,3.176 39.77,-0.258 26.032,-9.326 76.831,-11.883 81.412,35.145 7.775,-22.371 2.094,-57.549 -48.313,-64.051 -19.17,-2.631 -38.281,-9.279 -48.94,-29.713 -8.328,-19.674 4.565,-32.066 18.199,-35.408 15.018,-4.408 28.466,-12.17 34.487,-19.139 18.078,-21.056 59.726,-49.771 87.882,-11.826 -4.859,-23.178 -27.856,-50.4 -74.407,-29.998 -17.785,7.621 -37.593,11.768 -57.251,-0.254 -17.276,-12.572 -12.612,-29.836 -2.646,-39.723 10.594,-11.513 17.141,-21.794 19.864,-34.33 4.939,-27.205 28.122,-73.076 71.138,-53.527 -15.483,-17.92 -48.791,-30.588 -79.624,9.813 -11.865,15.289 -27.178,28.513 -50.205,27.525 -21.2,-2.621 -25.486,-19.988 -21.562,-33.457 3.69,-15.213 3.691,-30.74 0.667,-39.443 -9.193,-26.186 -13.239,-76.608 33.699,-82.02 -22.503,-7.381 -57.574,-1.076 -63.185,49.437 -2.289,19.215 -8.601,38.438 -28.845,49.456 -19.521,8.677 -32.141,-3.997 -35.719,-17.565 -4.679,-14.937 -11.193,-25.738 -20.113,-34.316 -21.093,-17.883 -48.704,-60.598 -10.269,-88.078 -23.259,4.453 -50.885,26.962 -31.312,73.867 7.307,17.918 11.105,37.795 -1.264,57.24 -12.872,17.049 -30.052,12.08 -39.759,1.943 -11.329,-10.802 -24.776,-18.566 -33.821,-20.297 -27.273,-5.13 -72.967,-26.839 -54.184,-70.193 -17.64,15.793 -29.718,49.322 11.223,79.434 15.495,11.593 28.986,26.672 28.407,49.713 C 70.492,-0.867 53.204,3.727 39.664,0.039 24.39,-3.377 11.727,-3.344 0,0 Z" stroke-miterlimit="10" id="path21599" inkscape:connector-curvature="0" transform="matrix(0.13646804,0,0,-0.13646804,387.76462,241.73757)" />
          <g clip-path="url(#aa)" id="g21603" transform="matrix(0.13646804,0,0,-0.13646804,-270.50262,1599.0214)" style="display:inline;fill:none;fill-opacity:1;stroke:url(#linearGradient11805);stroke-width:5.12940598;stroke-linecap:round;stroke-linejoin:round;stroke-miterlimit:4;stroke-dasharray:none;paint-order:fill markers stroke">
            <g transform="translate(4809.2,9936.1)" id="g21597" style="fill:none;fill-opacity:1;stroke:url(#linearGradient11801);stroke-width:5.12940598;stroke-linecap:round;stroke-linejoin:round;stroke-miterlimit:4;stroke-dasharray:none;paint-order:fill markers stroke">
              <path style="fill:none;fill-opacity:1;stroke:url(#linearGradient11799);stroke-width:5.12940598;stroke-linecap:round;stroke-linejoin:round;stroke-miterlimit:4;stroke-dasharray:none;paint-order:fill markers stroke" d="m 0,0 c -25.021,10.143 -66.413,1.664 -63.305,-39.051 -16.218,24.897 -14.53,44.606 -4.697,60.996 9.634,16.055 20.08,24.629 50.253,33.16 15.838,4.961 26.436,15.456 28.709,21.586 0.871,2.401 0.824,8.104 -5.894,9.786 -7.351,2.224 -25.328,8.066 -44.552,35.957 -16.571,21.103 -56.511,35.445 -74.823,-1.045 -1.075,29.691 10.527,45.716 27.4,54.695 16.527,8.795 29.895,10.76 60.153,2.523 16.133,-3.904 30.62,-0.371 35.729,3.713 1.981,1.614 4.882,6.516 -0.01,11.422 -5.153,5.694 -16.88,22.996 -20.348,53.414 -4.063,26.951 -31.813,58.598 -65.511,35.551 13.448,26.494 31.362,34.889 50.47,34.566 18.719,-0.316 31.373,-5.076 53.844,-26.943 12.214,-11.234 26.604,-15.16 33.049,-14.062 2.514,0.445 7.43,3.334 5.529,9.996 -1.751,7.472 -5.682,25.965 8.862,56.558 9.99,24.901 2.443,66.664 -38.315,64.272 25.177,15.779 44.855,13.744 61.064,3.621 15.882,-9.914 24.27,-20.51 32.263,-50.832 4.688,-15.924 14.994,-26.703 21.081,-29.086 2.387,-0.908 8.087,-0.967 9.888,5.721 2.351,7.314 8.363,26 35.837,44.353 20.493,15.754 34.442,57.131 -2.368,74.793 29.666,1.6 45.894,-9.717 55.169,-26.428 9.087,-16.373 11.289,-29.697 3.589,-60.103 -3.62,-16.196 0.171,-30.619 4.342,-35.653 1.648,-1.955 6.604,-4.765 11.426,0.209 5.598,5.256 19.645,17.903 53.413,20.608 26.559,3.797 58.951,31.219 36.504,65.32 26.252,-13.916 34.325,-31.976 33.667,-51.078 -0.649,-18.709 -5.627,-31.273 -27.891,-53.353 -11.447,-12.018 -15.63,-26.332 -14.648,-32.799 0.405,-2.524 3.205,-7.487 9.901,-5.703 7.504,1.619 28.354,3.123 56.427,-9.082 25.374,-9.959 66.656,-1.752 63.544,38.957 16.217,-24.893 14.533,-44.604 4.696,-60.995 -9.633,-16.052 -20.079,-24.628 -50.252,-33.156 -15.833,-4.967 -26.431,-15.459 -28.704,-21.592 -0.873,-2.4 -0.826,-8.099 5.893,-9.785 7.348,-2.22 25.326,-8.062 44.552,-35.957 16.569,-21.099 56.511,-35.445 74.822,1.047 1.073,-29.691 -10.528,-45.715 -27.401,-54.693 -16.529,-8.793 -29.897,-10.764 -60.155,-2.524 -16.128,3.903 -30.618,0.371 -35.725,-3.715 -1.982,-1.609 -4.883,-6.515 0.008,-11.423 5.154,-5.694 17.265,-21.559 20.792,-53.854 4.511,-27.266 31.575,-58.514 65.274,-35.465 -13.449,-26.492 -31.364,-34.888 -50.475,-34.562 -18.719,0.314 -31.368,5.072 -53.841,26.941 -12.217,11.233 -26.606,15.162 -33.052,14.067 -2.514,-0.452 -7.428,-3.338 -5.528,-9.998 1.751,-7.475 5.68,-25.965 -8.861,-56.559 -9.989,-24.906 -2.442,-66.666 38.317,-64.277 -25.178,-15.776 -44.856,-13.741 -61.067,-3.62 -15.881,9.915 -24.272,20.512 -32.261,50.834 -4.687,15.92 -14.989,26.7 -21.084,29.084 -2.384,0.907 -8.083,0.965 -9.885,-5.724 -2.355,-7.305 -11.475,-26.117 -36.083,-44.328 -21.311,-16.991 -34.843,-56.846 1.97,-74.508 -29.672,-1.598 -45.899,9.715 -55.174,26.43 -9.085,16.369 -11.29,29.701 -3.584,60.097 3.616,16.197 -0.175,30.623 -4.348,35.656 -1.647,1.956 -6.605,4.768 -11.421,-0.214 -5.601,-5.248 -19.646,-17.903 -53.416,-20.602 -26.559,-3.801 -58.951,-31.217 -36.503,-65.318 -26.252,13.914 -34.33,31.974 -33.666,51.07 0.647,18.717 5.624,31.277 27.888,53.359 11.447,12.02 15.63,26.334 14.647,32.799 -0.404,2.522 -3.203,7.487 -9.896,5.699 C 48.72,-10.84 29.164,-14.176 0,0 Z" stroke-miterlimit="10" id="path21595" inkscape:connector-curvature="0" />
            </g>
            <g transform="translate(4823.6,9945.8)" id="g21601" style="fill:none;fill-opacity:1;stroke:url(#linearGradient11803);stroke-width:5.12940598;stroke-linecap:round;stroke-linejoin:round;stroke-miterlimit:4;stroke-dasharray:none;paint-order:fill markers stroke" />
          </g>
        </g>
      </a>
    </g>
  </g>
</svg>
