<svg xmlns="http://www.w3.org/2000/svg" xmlns:xlink="http://www.w3.org/1999/xlink" viewBox="0 0 751.37 782.21"><defs><style>.cls-1{fill:url(#Neues_Verlaufsfeld_1);}.cls-2{fill:url(#Neues_Verlaufsfeld_1-2);}.cls-3{fill:url(#Neues_Verlaufsfeld_1-3);}</style><linearGradient id="Neues_Verlaufsfeld_1" x1="375.68" y1="714.34" x2="375.68" y2="692.5" gradientUnits="userSpaceOnUse"><stop offset="0" stop-color="#caa348"/><stop offset="0.06" stop-color="#ac8446"/><stop offset="0.13" stop-color="#edd15f"/><stop offset="0.52" stop-color="#a4733a"/><stop offset="0.63" stop-color="#d9b652"/><stop offset="1" stop-color="#d49a47"/></linearGradient><linearGradient id="Neues_Verlaufsfeld_1-2" x1="959.56" y1="931.12" x2="959.56" y2="148.91" xlink:href="#Neues_Verlaufsfeld_1"/><linearGradient id="Neues_Verlaufsfeld_1-3" x1="375.68" y1="89.71" x2="375.68" y2="67.87" xlink:href="#Neues_Verlaufsfeld_1"/></defs><title>artdeco6</title><g id="layer1" data-name="Ebene 5"><polygon class="cls-1" points="364.62 703.5 375.68 714.34 386.74 703.53 375.68 692.53 375.68 692.5 364.62 703.5"/><path class="cls-2" d="M1335.25,750,1334.68,595l-42.56-42.19v-9.45L1295,541l-2.89-2.34V527.27l43.12-43.12-.18-.11h.06l0-60,.1-.1-.1-.1,0-94.91-38-37.65,0-141.27H1297l.16-.95H1072.2l-.2-.12-8.12,8.12H963l-107.87,0-8.07-8.06L622,149V291.6l-38.06,37.84.5,155.62L627,527.25v9.45L624.11,539l2.89,2.34v11.38l-43.12,43.12.18.11H584l0,60-.1.1.1.1,0,94.41L622,788.56V931H846.93l.19.12,9.26-9.26h70l.19.15.12-.15h24.33V922h41.33l70.6,0,9.07,9.06,225.06-.06.05-143.29Zm-96.2,149.18-8.67-8.67-2.4,2.4,6.23,6.23-49.17-.39,14.71-14.57h13.1v-3.39h-9.67l60.08-59.5V899.4Zm-38.25-24.46v-5.69h-3.39v9l-19.36,19.16-17.51-14.75a28.65,28.65,0,0,0-20.33-6.29,18.61,18.61,0,0,0-13,6.58l-18,20.85c-2.82,3.48-7.74,5.55-13.16,5.55s-10.34-2.07-13.12-5.49l-16-20.86c-3.71-4.57-10-7.29-16.83-7.29s-13.11,2.72-16.82,7.29l-.59.71L1016.27,867l70.18,0,9.5,9.51,8.65-9.52,98.29-.05,39.16-38.9h.07V754.26l21.14,18.5v40.18ZM944.06,890l3.19-4.17a16.11,16.11,0,0,1,24.33,0L975,890H960v0Zm-25.5,0-5.51-5.6L938.51,859l16.78,17a19.91,19.91,0,0,0-11.74,6.95l-5.43,7.1Zm40.81-51.89,19.08,19.18-18.29,18.29-.74,0h0c-.47,0-.94,0-1.4,0l-18.08-18.07Zm15.87,44.74a19.82,19.82,0,0,0-12.28-7l16.91-17.13,26,26.07-5.24,5.24H981.08ZM1003.51,895l-.09-.3.09.07,6.87-7.38,1.86-1.86L959.12,832l0,.13-.21-.38L906.59,885.2l2.82,2.83.05,0,6.62,7h18.21l-6.61,8.65a15,15,0,0,1-23.33,0L891,887.24l68.55-68.54,69.53,69.46-12.59,15.49a16.11,16.11,0,0,1-24.33,0l-7-8.62ZM872.1,875.56a19.65,19.65,0,0,0-15.32,7.29l-16.92,20.8a15,15,0,0,1-23.33,0l-16.91-20.8a19.76,19.76,0,0,0-30.66,0l-17.27,21.24c-2.32,2.85-6.55,4.56-11.32,4.57h0c-4.77,0-9-1.69-11.34-4.54l-17.39-21.19c-3.22-3.92-8.82-6.26-15-6.26h-.11c-6.18,0-11.77,2.4-15,6.36l-4.62,5.74a25.79,25.79,0,0,0-7.46-9.75h8.07v-3.39H663.93a25.6,25.6,0,0,0-8.06-2.14V822.31l15.37,15.32-13,11.43v5.88l15.92-14.39.15.15L677,838l1.11-1-.06-.06.5-.5-22.68-22.71v-80.4l19.33,16.28L658,762.06V768l19-14.4v75.93L715.08,867l.06-.06V867H818.8l9.5,9.5,8.64-9.5h65.91l-15.63,15.61A19.63,19.63,0,0,0,872.1,875.56ZM640.42,906v10.17A21.66,21.66,0,0,1,636,885.9l14.89,12.45v.33h.4l4.56-.08V877.33a21.85,21.85,0,0,1,6.5,1.81v11.94h3.39v-10a21.66,21.66,0,0,1-22,37.2V906ZM628,879.2l5,4.21a25.61,25.61,0,0,0-5,11.88ZM590,417.54V331.27l4-4v86.23Zm0,8.48,32-32v5.57l-32,32Zm89.67-245.2,9.07,9.07,2.4-2.4-6.63-6.63,48.46.39-14.65,14.57H706.27v3.39h8.64l-59,58.71V180.63Zm38.65,23.37V211h3.39V200.83l18.49-18.31,18.11,14.38a28.66,28.66,0,0,0,20.33,6.3,18.65,18.65,0,0,0,13-6.58l18-20.86c2.82-3.47,7.74-5.55,13.16-5.55s10.34,2.08,13.12,5.5l16,20.86c3.71,4.56,10,7.29,16.83,7.29s13.11-2.73,16.82-7.29l.43-.53,17,17H886.59l-.2-.18-.27.18-51,0-9.43-10.38-10.39,10.39-99.06,0L677.07,252H677v73.77l-21.13-18.5V266ZM959.92,183H946.79l-19.27-24,30.6,0h31.59l-19.28,24Zm-.88,5h0l16.85,0-4.29,5.61a16.11,16.11,0,0,1-24.33,0L942.68,188Zm41.49,0,7.21,7.2L980.8,221.26l-17.53-17.75a19.87,19.87,0,0,0,12-7l6.53-8.53Zm-41,53.83-19.38-18.59,19.37-19.37,1,0,18.84,18.84Zm-16-45.24a20,20,0,0,0,13.06,7.11l-17.92,18.15-27.6-26.48,7.44-7.4h18Zm-28-13.61.1.35-.09-.08-10.85,11.45,3.49,3.54.08-.09L960,248.05l0-.12.08.16,54-53.56-1.27-1.27h0L1003,183l-.19.2,0-.24H985.65l5.52-7.23a15,15,0,0,1,23.33,0l13.75,16.9-68.68,68.67-70-69.89,12.75-15.68a16.11,16.11,0,0,1,24.33,0l5.85,7.2Zm131.14,20.9a19.68,19.68,0,0,0,15.32-7.29L1079,175.76a15,15,0,0,1,23.33,0l16.91,20.81a19.76,19.76,0,0,0,30.66,0l17.27-21.25c2.32-2.85,6.55-4.56,11.32-4.57s9,1.69,11.39,4.54l17.39,21.19c3.22,3.93,8.82,6.27,15,6.27h.11c6.18,0,11.77-2.41,15-6.36l4.63-5.76a25.82,25.82,0,0,0,6.53,9.37h-8.4v3.39h13.12a25.46,25.46,0,0,0,10.06,3.15v51.13l-15.4-15.25,13-11.44v-5.89L1241,243l.21.2-.53.54,22.57,22.33v80.61l-19.33-16.28L1261.08,318V312l-19,14.4V252h-.38l.38-1-38.08-38-.06.06V213H1100l-9.88-10.87L1079.25,213h-63L1032,197.29A19.67,19.67,0,0,0,1046.75,203.86ZM1278.18,173v-9.85a21.92,21.92,0,0,1,5.15,31.11L1268,181.35h0l-4.76.09V203a22,22,0,0,1-8-2.54V188h-3.39v10.17a21.92,21.92,0,0,1,23-36.9V173Zm13,27.87-5.07-4.27a25.5,25.5,0,0,0,5.08-12.37Zm-35.42,308-11.83-10L1260.74,483v-5.95l-18.62,17v-76.6l21.14,19.35V501.6Zm7.5,1.1v5.22l-2.89-2.44Zm25.52-218.57L1271.58,305v6l19.58-15.82v29l-10.54,10.54,10.53,9.57v26.82l-23.08-20.25,0-80Zm24.34,76.25-16-16V311.48l16,16Zm-45-10.77L1286,372.54,1270.42,386v6.05L1291.14,374v80.39l-23-19.41Zm29.07,37.44,16,16v6.35l-16-16Zm-33.88,36.37-17.5-16L1261,398.83v-6.17l-18.83,18.89v-76.7l21.14,17.8Zm-21.14,72.64,10.34,8.71-10.34,10Zm26-62.35,18.77,15.81-16.44,13.69v5.95l20.71-17.3v15.62l-23,22.2Zm29.15,36.2-.12-.12h0l0-73.57,16,16v65.18l-21,21V482.09Zm-5.12,31.29,21-21v4.18l-21,21Zm23-87,14,14v46.35l-14,14Zm0-2.82v-6.35l14,14v6.35Zm-18-32.81V354.47l23,23v31.35Zm23-11.19-5-5V317.44l5,4.95Zm-7-50-16-16v-3.17l16,16ZM1268,187.26l12.18,10.37A21.81,21.81,0,0,1,1268,203ZM986.89,256H973.2l37.06-37h14.17Zm-54.7,0-39.25-37h15.92l37.06,37ZM665.4,510.77,677,500.59V522ZM628,452.46V372.1l22.91,20.1v78.32l-18.65-15.7,16.59-14V434.9Zm49-121.15v77l-21.13-17.8V313.29l17.49,15.19-14.93,13.66v6.17Zm-21.13,65.11L675.2,412.7l-16.59,14v5.94L677,417.13v76.14l-21.13-18.55Zm-5-93.16-18.06-14.43L650.91,271ZM629.68,292l21.23,17.09v77.08l-17.73-15.56,15-13.14V351.4L628,369.08V339.15l11-10-11-11V293.64ZM628,474.69V457.18l22.91,19.29v20.32Zm27.87,6.09,18.41,16.15-12.17,10.68-6.24-6Zm2.3,31.36v5l2.7-2.37L678.75,532l4.25,4.25V254.61L719.12,219H884.84l44,42.14L929,261h21.9l8.57,8.56,0-.12.07.15L968.2,261h21.89l.14.14L1032.36,219h169.21l34.55,33.62V536.32l5.69-5.69,15.27-14.73,6.18,5.2v49l-2.31-2.22v-5l-2.7,2.37L1240.37,548l-4.25-4.26V825.42L1200,861H1035.68L1010.17,836l-24.95.07-25.6-25.56,0,.12-.07-.15L933.92,836l-24-.12L884.54,861h-167L683,827.38V543.71l-4.45,4.53h0L662,564.13l-6.17-5.2v-49Zm670.95,150.13v85.49l-4,4V666.27Zm0-8.48-31.92,31.92v-5.35l31.92-31.92Zm-87,94.93v-77l21.14,17.8v77.19l-17.5-15.19,14.93-13.66v-6.17Zm11.61-179.46-11.61,10.18V558.06Zm9.53,114.35-19.33-16.28,16.59-14v-5.94l-18.4,15.49V586.76l21.14,18.55Zm4.88-74.17,18.72,15.77-16.59,14v5.94l21-17.64,0,80.5-23-20.21Zm23.09-4v17.5l-23.09-19.45V583.15Zm-28-6.19-18.42-16.15L1257,572.43l6.25,6ZM990.23,841h16.68l20.73,20h-17.38Zm-81.37,20H892.54l20.67-20h15.68ZM630.62,788.44,647.54,775v-6L628,784.84v-29l10.5-10.5L628,735.83V709l22.91,20.1v79.66Zm-24.62-76,16,16v40.18l-16-16Zm44.91,10.64-17.73-15.56L648.7,694v-6L628,706V625.63l22.91,19.29ZM622,685.76l-16-16v-6.35l16,16Zm33.87-36.39,17.49,16L658.17,681.2v6.17L677,668.48v76.7l-21.13-17.8ZM677,576.73,666.66,568,677,558Zm-18.25-9.42-2.88,2.78v-5.22Zm4.62,3.88,11.83,10L658.38,597v6L677,586v76.6L655.87,643.2V578.43ZM650.91,639l-18.65-15.71,16.44-13.69v-6L628,620.92V605.31l22.91-22.1Zm-29-36.1.12.12v73.59l-16-16V595.41l21-21v23.53ZM627,571.59l-21,21v-4.18l21-21Zm-23,87-14-14V598.24l14-14Zm0,2.82v6.35l-14-14v-6.35Zm18,32.83v31.35l-23-23V671.24Zm-23,11.17,5,5v51.37l-5-5Zm7,50,16,16v3.18l-16-16Zm44.91,137.2-11.8-10.05a21.63,21.63,0,0,1,11.8-5.23Zm617.27-115.87,17.51,14-17.5,17.33Zm20.69,10.85-20.69-16.65,0-77.11L1286,709.44l-15,13.14v6l20.22-17.74v30.84l-10.06,9.15,10.06,10v24.39Zm8.33-93.39,25.92-25.93v85.42l-25.95,25.69Zm31.92-95.93v47.35l-31.92,31.91,0-74.52h-.08l.09-.09-5.12-4.94v-36.7Zm-43-6.09-18-17.37,0-49.75,18,14.58V540h0v2.3l-14.88,12.06v5.85l14.88-12Zm-18-73V505.26l18-17.38v45.91Zm24-3.76,21-21v3.35l-21,21Zm30-104.65V324.37l7,6.93v86.49Zm-9-95.33v3.16l-16-16v-3Zm-45.08-53V206.56a25.54,25.54,0,0,0,15-6.56l4.8,4.09L1270.39,219v5.85l20.79-17.52,0,78ZM1074.36,155h216.83V177.8a25.64,25.64,0,0,0-9.47-16.86h8.21v-3.39h-13.8a25.4,25.4,0,0,0-10.39-2.21,25.66,25.66,0,0,0-25.31,29.88l-6.79,8.21c-2.3,2.85-6.53,4.57-11.3,4.6h-.09c-4.77,0-9-1.7-11.34-4.54l-17.39-21.19c-3.22-3.93-8.82-6.27-15-6.27h-.06c-6.17,0-11.77,2.37-15,6.31l-17.28,21.25a15,15,0,0,1-23.33,0L1106,172.78a19.75,19.75,0,0,0-30.65,0l-16.92,20.81a15,15,0,0,1-23,.34Zm-42.76,34.28-13.43-16.53a19.75,19.75,0,0,0-30.7.06L979.71,183H973l19.27-24h69.61ZM925,159l19.27,24h-5.6l-8.27-10.18a20.82,20.82,0,0,0-31.65,0l-12.45,15.31L857.13,159Zm-297-4H844.76l37.75,37.69-.73.9c-2.82,3.47-7.74,5.55-13.16,5.55s-10.34-2.08-13.12-5.5l-16-20.86c-3.72-4.56-10-7.29-16.83-7.29s-13.11,2.73-16.78,7.24l-18,20.86a14.2,14.2,0,0,1-9.8,4.91,23.78,23.78,0,0,1-16.89-5.27l-21.21-16.75-54.69-.27,5.55-5.55-2.39-2.4-7.93,7.92L650.92,176v.27h0v2l0,2.26h0v82.26L628,285.63Zm-6,230.54-26,26V325.33l26-25.75Zm-32,96.22V434.41l32-32V477l-.12.12,5.12,4.94v36.7Zm43,6.09,17.91,17.28v49.76L633,540.39V540h0v-2.3l14.88-12.06v-5.85L633,531.84Zm17.91,72.89v14.14L633,592.15V546.24ZM627,564.59l-21,21v-3.35l21-21ZM597,669.24v85.53l-7-7V662.24Zm9,94.55v-2.38l16,16v2.4Zm44.91,53.58v56.12A25.5,25.5,0,0,0,636.14,880l-4.8-4.09,17.39-14.89V855.2L628,872.67V794.54ZM844.76,925H628V902.76a25.64,25.64,0,0,0,8.21,15.33h-7.55v3.39H641A25.66,25.66,0,0,0,679.05,899a26.13,26.13,0,0,0-.47-4.88l0,0,6.6-8.18c2.3-2.86,6.53-4.58,11.3-4.6h.09c4.77,0,9,1.69,11.34,4.54l17.39,21.19c3.22,3.92,8.82,6.26,15,6.26h.06c6.17,0,11.77-2.37,15-6.31l17.28-21.24a15,15,0,0,1,23.32,0l16.92,20.8a19.75,19.75,0,0,0,30.65,0l16.92-20.8a15,15,0,0,1,23.33,0l.1.12Zm42.89-34.4,13,16a19.75,19.75,0,0,0,30.7-.06L940.23,895h5.55l-20.06,24.93H858.33ZM970.12,920v-.09H928.29l20-24.83-.13-.1h11v0h11.71l-.09.07,20,24.92Zm23.23,0-20.1-25h5.82l9.43,11.6a20.82,20.82,0,0,0,31.65,0l12.29-15.12L1061,920Zm42.83-33.11.89-1.08c2.82-3.48,7.74-5.55,13.16-5.55s10.34,2.07,13.12,5.49l16,20.86c3.71,4.57,10,7.29,16.83,7.29s13.11-2.72,16.78-7.24l18-20.85a14.22,14.22,0,0,1,9.8-4.92,23.8,23.8,0,0,1,16.84,5.23l20.67,17.33,56,.32-6,6,2.39,2.4,8.35-8.35,29.27.17v-.27h0V901.8l0-2.36h0l0-83,23-22.75L1291.12,925H1074.36Z" transform="translate(-583.88 -148.91)"/><polygon class="cls-3" points="386.74 78.72 375.68 67.87 364.62 78.69 375.68 89.69 375.68 89.72 386.74 78.72"/></g></svg>
